<svg width="141" height="63" viewBox="0 0 141 63" fill="none" xmlns="http://www.w3.org/2000/svg">
<path d="M20.8819 53.6495C20.7088 53.6495 20.5338 53.6021 20.3825 53.5019C20.06 53.2891 19.9051 52.895 19.998 52.5201L21.6163 45.9807H15.3398C14.9097 45.9807 14.5361 45.6818 14.4487 45.259L9.01962 19.4132C8.96677 19.1598 9.02144 18.8974 9.17453 18.6896C9.32579 18.4819 9.55724 18.347 9.8142 18.3192L49.9462 14.006C50.2227 13.9732 50.502 14.0771 50.697 14.2757C50.892 14.4743 50.9845 14.7568 50.9462 15.032L47.3761 41.5444C47.3141 41.9964 46.93 42.3354 46.4726 42.3354H35.999L21.4377 53.4618C21.2719 53.5876 21.0769 53.6495 20.8819 53.6495Z" fill="url(#paint0_linear_214_469)"/>
<path d="M64.1791 31.2805C64.1791 31.6256 64.2383 31.9139 64.3566 32.1456C64.4749 32.3772 64.7509 32.493 65.1846 32.493C65.3818 32.493 65.5691 32.4832 65.7465 32.4635V34.3266C65.3916 34.366 65.0614 34.3857 64.7558 34.3857C64.1249 34.3857 63.6148 34.334 63.2254 34.2305C62.836 34.127 62.5329 33.9274 62.316 33.6316C62.0991 33.3359 61.9907 32.912 61.9907 32.36V27.85H61V25.913H61.9907V23.7393H64.1791V25.913H65.8057V27.85H64.1791V31.2805ZM73.6722 33.3655C73.4849 33.6218 73.162 33.851 72.7037 34.053C72.2453 34.2551 71.745 34.3562 71.2028 34.3562C70.3649 34.3562 69.6379 34.1689 69.0218 33.7943C68.4057 33.4197 67.935 32.9095 67.6096 32.2639C67.2843 31.6182 67.1217 30.901 67.1217 30.1124C67.1217 29.3238 67.2843 28.6066 67.6096 27.9609C67.935 27.3152 68.4057 26.8051 69.0218 26.4305C69.6379 26.0559 70.3649 25.8686 71.2028 25.8686C71.7647 25.8686 72.2601 25.9647 72.6889 26.157C73.1177 26.3492 73.4455 26.5932 73.6722 26.8889V26.0461H75.8606V34.1787H73.6722V33.3655ZM73.1546 28.4489C72.7505 28.0201 72.2083 27.8057 71.5281 27.8057C70.8381 27.8057 70.2934 28.0201 69.8942 28.4489C69.4949 28.8777 69.2953 29.4322 69.2953 30.1124C69.2953 30.7729 69.4999 31.32 69.909 31.7537C70.3181 32.1875 70.8578 32.4043 71.5281 32.4043C72.2182 32.4043 72.7628 32.1998 73.162 31.7907C73.5613 31.3816 73.7609 30.8221 73.7609 30.1124C73.7609 29.4322 73.5588 28.8777 73.1546 28.4489ZM78.049 34.1787V23H80.2375V26.8889C80.4642 26.5932 80.792 26.3492 81.2208 26.157C81.6496 25.9647 82.1449 25.8686 82.7068 25.8686C83.5447 25.8686 84.2718 26.0559 84.8879 26.4305C85.504 26.8051 85.9747 27.3152 86.3 27.9609C86.6253 28.6066 86.788 29.3238 86.788 30.1124C86.788 30.901 86.6253 31.6182 86.3 32.2639C85.9747 32.9095 85.504 33.4197 84.8879 33.7943C84.2718 34.1689 83.5447 34.3562 82.7068 34.3562C82.1647 34.3562 81.6644 34.2551 81.206 34.053C80.7476 33.851 80.4248 33.6218 80.2375 33.3655V34.1787H78.049ZM80.7476 31.7907C81.1468 32.1998 81.6915 32.4043 82.3815 32.4043C83.0519 32.4043 83.5916 32.1875 84.0007 31.7537C84.4098 31.32 84.6143 30.7729 84.6143 30.1124C84.6143 29.4322 84.4147 28.8777 84.0155 28.4489C83.6162 28.0201 83.0716 27.8057 82.3815 27.8057C81.7013 27.8057 81.1592 28.0201 80.755 28.4489C80.3508 28.8777 80.1487 29.4322 80.1487 30.1124C80.1487 30.8221 80.3484 31.3816 80.7476 31.7907ZM88.6067 23H90.8247V34.1787H88.6067V23ZM95.0167 33.9865C94.3415 33.7203 93.7623 33.2693 93.2793 32.6335C92.7963 31.9977 92.5548 31.1672 92.5548 30.142C92.5548 29.1168 92.7987 28.2887 93.2867 27.6578C93.7747 27.0269 94.3587 26.5784 95.0389 26.3122C95.7191 26.0461 96.3648 25.913 96.976 25.913C97.6857 25.913 98.361 26.0707 99.0018 26.3861C99.6425 26.7016 100.167 27.1649 100.577 27.7761C100.986 28.3873 101.2 29.1118 101.22 29.9497C101.22 30.206 101.215 30.4278 101.205 30.6151C101.195 30.8024 101.185 30.9207 101.175 30.97H94.758C94.8763 31.5418 95.172 31.9312 95.6452 32.1382C96.1184 32.3452 96.562 32.4487 96.976 32.4487C97.5083 32.4487 97.9322 32.3526 98.2476 32.1603C98.5631 31.9681 98.8342 31.7488 99.0609 31.5023L100.776 32.493C99.8495 33.7548 98.5828 34.3857 96.976 34.3857C96.3451 34.3857 95.692 34.2527 95.0167 33.9865ZM95.4677 28.301C95.0833 28.6017 94.8664 28.9689 94.8171 29.4026H98.8835C98.8539 29.1463 98.7553 28.8999 98.5877 28.6633C98.4201 28.4267 98.1959 28.232 97.9149 28.0792C97.634 27.9264 97.3161 27.85 96.9612 27.85C96.35 27.85 95.8522 28.0004 95.4677 28.301ZM105.744 31.2805C105.744 31.6256 105.804 31.9139 105.922 32.1456C106.04 32.3772 106.316 32.493 106.75 32.493C106.947 32.493 107.134 32.4832 107.312 32.4635V34.3266C106.957 34.366 106.627 34.3857 106.321 34.3857C105.69 34.3857 105.18 34.334 104.791 34.2305C104.401 34.127 104.098 33.9274 103.881 33.6316C103.664 33.3359 103.556 32.912 103.556 32.36V27.85H102.565V25.913H103.556V23.7393H105.744V25.913H107.371V27.85H105.744V31.2805ZM115.238 33.3655C115.05 33.6218 114.727 33.851 114.269 34.053C113.811 34.2551 113.31 34.3562 112.768 34.3562C111.93 34.3562 111.203 34.1689 110.587 33.7943C109.971 33.4197 109.5 32.9095 109.175 32.2639C108.85 31.6182 108.687 30.901 108.687 30.1124C108.687 29.3238 108.85 28.6066 109.175 27.9609C109.5 27.3152 109.971 26.8051 110.587 26.4305C111.203 26.0559 111.93 25.8686 112.768 25.8686C113.33 25.8686 113.825 25.9647 114.254 26.157C114.683 26.3492 115.011 26.5932 115.238 26.8889V26.0461H117.426V34.1787H115.238V33.3655ZM114.72 28.4489C114.316 28.0201 113.774 27.8057 113.093 27.8057C112.403 27.8057 111.859 28.0201 111.46 28.4489C111.06 28.8777 110.861 29.4322 110.861 30.1124C110.861 30.7729 111.065 31.32 111.474 31.7537C111.883 32.1875 112.423 32.4043 113.093 32.4043C113.783 32.4043 114.328 32.1998 114.727 31.7907C115.127 31.3816 115.326 30.8221 115.326 30.1124C115.326 29.4322 115.124 28.8777 114.72 28.4489ZM119.629 23H121.847V34.1787H119.629V23ZM126.194 23V29.5061L128.96 26.0904H131.666L128.398 29.8758L131.799 34.1787H129.122L126.993 31.5171L126.194 32.4339V34.1787H123.976V23H126.194Z" fill="url(#paint1_linear_214_469)"/>
<path d="M63.7532 45.2499C63.704 45.4172 63.7138 45.6337 63.5957 45.7322C63.5563 46.2636 63.3005 46.7754 63.202 47.2478C63.4284 47.2773 63.7335 47.2675 63.9795 47.2577C64.5701 47.3462 65.2885 47.2183 65.8692 47.5431C65.82 47.5628 65.7806 47.5332 65.7412 47.5628C65.0031 47.297 63.9697 47.425 63.2414 47.3167C63.1922 47.3265 63.1528 47.3659 63.143 47.425C63.143 47.4742 63.2414 47.4348 63.2611 47.484C63.2709 47.4447 63.2808 47.3954 63.3005 47.4053C63.3005 47.4545 63.4186 47.4939 63.4579 47.425C63.5662 47.4742 63.6449 47.4348 63.7335 47.4348C63.763 47.4447 63.7532 47.484 63.7729 47.5037C63.8024 47.5037 63.8122 47.4939 63.8122 47.484C63.8319 47.484 63.8221 47.5037 63.8319 47.5037C63.8614 47.5037 63.8418 47.4643 63.8221 47.4643C63.8221 47.4348 63.8614 47.4643 63.8614 47.484C63.891 47.4742 63.8516 47.4447 63.8614 47.425C63.9795 47.5726 64.1862 47.4545 64.324 47.5234C64.3339 47.5234 64.3339 47.5135 64.3339 47.4939C64.3929 47.5332 64.4027 47.4742 64.4716 47.5135C64.5012 47.484 64.4126 47.484 64.4126 47.4447C64.452 47.4643 64.511 47.4545 64.5209 47.4545C64.5504 47.5037 64.5012 47.4545 64.5012 47.484C64.6291 47.5726 64.8063 47.484 64.9441 47.5431C64.9736 47.5332 64.9933 47.5135 65.0031 47.484C65.0326 47.4939 65.0031 47.5628 65.0523 47.5529C65.0818 47.5431 65.0326 47.5234 65.0425 47.4939C65.072 47.5332 65.131 47.5628 65.1114 47.612C65.1704 47.612 65.1507 47.5923 65.1507 47.5529C65.1901 47.5923 65.2393 47.5234 65.2491 47.5628C65.2787 47.5628 65.259 47.5234 65.2688 47.5037C65.3476 47.5628 65.5149 47.484 65.6625 47.5628C65.5641 47.5923 65.4558 47.6021 65.3377 47.5628C65.2984 47.5824 65.3082 47.6513 65.2491 47.6415C65.2098 47.6513 65.2196 47.6021 65.2098 47.5824C65.1803 47.6513 65.0425 47.5923 65.0523 47.671C65.0031 47.6809 65.0326 47.612 64.9933 47.612C64.9933 47.671 64.9637 47.6415 64.8948 47.6612C64.8948 47.6316 64.9145 47.6316 64.9342 47.6316C64.9342 47.6021 64.8653 47.5923 64.885 47.6415C64.8555 47.6316 64.8653 47.5923 64.8161 47.6021C64.7767 47.6021 64.7767 47.6316 64.7571 47.6612C64.2059 47.5923 63.5071 47.612 63.1036 47.6316C63.0544 47.6513 63.0839 47.7497 63.0249 47.7497C63.0249 48.0352 62.8477 48.2911 62.8084 48.5666C62.6706 48.9603 62.4737 49.4721 62.3261 49.8854C62.1293 50.4563 61.7356 50.8302 61.6667 51.4208C61.6667 51.5585 61.6667 51.6766 61.6273 51.8144C61.6372 51.9817 61.647 52.1687 61.6077 52.3361C61.6175 52.8085 61.6569 53.3498 61.9817 53.6253C61.4994 53.5663 61.3911 53.1037 61.3124 52.6904C61.2927 52.4738 61.2534 52.1589 61.2829 51.9129C61.3124 51.9129 61.2927 51.9522 61.3222 51.9424C61.3222 51.8636 61.3026 51.7554 61.3419 51.7062C61.2829 51.7357 61.3124 51.7948 61.2927 51.8341C61.2927 51.657 61.273 51.4897 61.3518 51.3519C61.3419 51.2141 61.3616 51.0468 61.273 50.9287C61.3222 50.8696 61.3518 50.7909 61.4108 50.7417C61.5585 49.6197 61.7848 48.793 62.0604 47.7497C61.7258 47.6907 61.3124 47.986 61.0171 47.7891C60.9679 47.5726 61.0171 47.3265 61.2632 47.3856C61.5289 47.3167 61.8537 47.3167 62.1982 47.2675C62.3556 46.7754 62.5328 46.1258 62.7099 45.5649C62.8969 44.9842 63.0052 44.3346 63.4382 44C63.8221 44.0295 63.8811 44.4626 63.7729 44.8366C63.8122 44.8759 63.8122 44.8858 63.8024 44.9547C63.8221 44.9547 63.8122 44.9153 63.8221 44.9055C63.8713 45.0236 63.7335 45.122 63.763 45.2204C63.7532 45.2204 63.7532 45.2105 63.7335 45.2105C63.7237 45.2302 63.7335 45.2893 63.7433 45.2499H63.7532ZM63.2611 45.0039C63.2414 44.935 63.2119 45.0432 63.2611 45.0039C63.2513 45.0236 63.2513 45.0432 63.2316 45.0432C63.2316 45.0137 63.2217 45.0236 63.2217 45.0432H63.2119C63.1922 45.0629 63.1922 45.0924 63.202 45.122C63.1824 45.122 63.1922 45.1318 63.1824 45.1417H63.1725C63.1824 45.2007 63.1135 45.2499 63.1528 45.2991C63.1627 45.2401 63.1922 45.2105 63.1824 45.1417C63.202 45.1417 63.1922 45.1318 63.202 45.122H63.2119C63.2119 45.1023 63.2119 45.0924 63.2217 45.0924C63.0347 45.7617 62.7788 46.549 62.582 47.2577C62.6903 47.2773 62.7198 47.2478 62.8182 47.2577C63.0839 46.2735 63.4579 45.3779 63.517 44.4134C63.4087 44.5807 63.33 44.7873 63.2611 45.0039ZM63.6843 44.5118C63.7237 44.5511 63.6449 44.5511 63.6843 44.5118ZM63.0544 47.2281C63.0643 47.2773 63.0249 47.238 63.0544 47.2281C63.1036 47.1888 63.0544 47.1691 63.0446 47.1297C63.0643 47.0707 63.1135 47.0313 63.1036 46.9526C63.1331 46.9329 63.143 46.9526 63.1725 46.923V46.8541C63.1627 46.8541 63.143 46.8541 63.143 46.8443C63.1725 46.7852 63.1627 46.6868 63.2119 46.6573C63.2119 46.6671 63.2119 46.677 63.2217 46.677C63.2316 46.6278 63.3005 46.5786 63.2611 46.5195C63.2316 46.549 63.2513 46.6081 63.2217 46.6179C63.202 46.5589 63.2513 46.49 63.2709 46.4408C63.2906 46.4408 63.2709 46.4801 63.2906 46.4801C63.3398 46.3424 63.3792 46.2538 63.4087 46.0766C63.3398 46.1554 63.3398 46.3719 63.2709 46.4014C63.4087 45.87 63.6154 45.3188 63.6843 44.748C63.6941 44.748 63.6941 44.7283 63.6843 44.7283C63.6646 44.6791 63.704 44.6692 63.7138 44.6496C63.6941 44.6397 63.6745 44.62 63.6941 44.6004C63.6252 44.7677 63.6056 44.9743 63.5859 45.1417C63.5662 45.1515 63.5563 45.1318 63.5367 45.1318C63.5367 45.1613 63.5563 45.1712 63.5563 45.2007C63.4973 45.2499 63.4186 45.4566 63.4776 45.555C63.4481 45.5747 63.4382 45.5452 63.4087 45.5649C63.3005 46.1357 63.0249 46.7557 62.9265 47.2675C62.9954 47.2773 63.015 47.2281 63.0446 47.1986C63.0446 47.2183 63.0544 47.2183 63.0544 47.2281ZM63.3005 44.8267C63.3103 44.8366 63.2906 44.8267 63.3005 44.8267C63.3497 44.807 63.2709 44.7873 63.3005 44.8267ZM63.0839 44.9055C63.1331 44.9153 63.0839 44.8661 63.0839 44.9055ZM63.2611 44.9153C63.2611 44.9251 63.2513 44.9153 63.2611 44.9153ZM63.576 44.9547C63.6252 44.9645 63.576 44.9153 63.576 44.9547ZM63.5662 45.0334C63.576 45.0826 63.576 44.9842 63.5662 45.0334ZM63.7433 45.0629C63.7532 45.0629 63.7335 45.0531 63.7433 45.0629ZM63.7335 45.0728C63.7827 45.0728 63.7138 45.1417 63.7335 45.0728ZM63.7138 45.2105C63.7335 45.2007 63.7433 45.1417 63.7138 45.1318C63.7138 45.1712 63.6745 45.1909 63.7138 45.2105ZM63.1036 45.3779C63.143 45.3975 63.1331 45.3188 63.1135 45.3188C63.1233 45.3483 63.1036 45.3483 63.1036 45.3779ZM62.9265 45.3877C62.9166 45.3877 62.9166 45.4074 62.9166 45.4172C62.9265 45.4763 62.8773 45.4271 62.9166 45.4172C62.9265 45.4172 62.9265 45.3975 62.9265 45.3877C62.9658 45.3877 62.9166 45.3385 62.9265 45.3877ZM63.576 45.3975H63.5957V45.3779H63.576V45.3975ZM63.0938 45.4763C63.0938 45.4566 63.143 45.3975 63.0938 45.3975C63.1036 45.4369 63.0544 45.4566 63.0938 45.4763ZM62.8084 45.4566V45.4861C62.8379 45.5058 62.8477 45.4468 62.8182 45.4468C62.8182 45.4566 62.8182 45.4664 62.8084 45.4566ZM62.8871 45.4861C62.9068 45.5353 62.9068 45.4369 62.8871 45.4861ZM63.6745 45.5353C63.6745 45.5255 63.6941 45.4763 63.6745 45.4763C63.6646 45.4763 63.6449 45.5255 63.6745 45.5353ZM62.7887 45.5747C62.7887 45.5944 62.769 45.5845 62.7887 45.5747C62.8084 45.5649 62.8084 45.5255 62.8182 45.5058C62.7887 45.5058 62.7887 45.5452 62.7887 45.5747ZM63.0544 45.5944C63.0643 45.5747 63.0938 45.5156 63.0643 45.5058C63.0643 45.5255 63.0347 45.5845 63.0544 45.5944ZM63.5563 45.5156C63.5662 45.5649 63.5662 45.4763 63.5563 45.5156ZM62.8674 45.5649C62.8674 45.5649 62.8674 45.555 62.8773 45.555C62.8773 45.5452 62.8773 45.5255 62.8576 45.5353C62.8576 45.5452 62.8576 45.5649 62.8674 45.5649ZM62.8477 45.6731C62.8281 45.6337 62.8871 45.5944 62.8281 45.5944C62.8379 45.6141 62.8182 45.6731 62.8477 45.6731ZM63.517 45.6042V45.6239C63.5465 45.6436 63.5563 45.5845 63.5268 45.5944C63.5268 45.5944 63.5268 45.6042 63.517 45.6042ZM62.7592 45.6633C62.7592 45.6731 62.7493 45.6731 62.7592 45.6633H62.769C62.7592 45.6239 62.7887 45.6337 62.7887 45.6042C62.7493 45.5944 62.769 45.6436 62.7592 45.6633ZM63.0347 45.6731C63.0347 45.6633 63.0643 45.6239 63.0347 45.6239C63.0347 45.6337 63.0052 45.6731 63.0347 45.6731ZM63.517 45.6928C63.517 45.6928 63.5465 45.6534 63.517 45.6534C63.517 45.6534 63.4875 45.6928 63.517 45.6928ZM62.7493 45.7322C62.7395 45.7125 62.7887 45.6928 62.7493 45.683C62.7493 45.6928 62.7198 45.7322 62.7493 45.7322ZM62.9954 45.7223C63.0446 45.7322 62.9954 45.683 62.9954 45.7223ZM63.4579 45.8306C63.5071 45.8404 63.4678 45.7715 63.517 45.7814C63.4875 45.7519 63.5465 45.7125 63.4973 45.7125C63.4875 45.7519 63.4678 45.7814 63.4579 45.8306ZM62.7985 45.8011C62.7985 45.7814 62.8379 45.7125 62.7985 45.7223C62.8084 45.7519 62.7592 45.7814 62.7985 45.8011ZM63.5662 45.7715C63.5662 45.7617 63.5662 45.7519 63.576 45.7519C63.576 45.742 63.576 45.7322 63.5563 45.7322C63.5563 45.742 63.5465 45.7617 63.5662 45.7715ZM62.6903 45.8896C62.7296 45.9192 62.6509 45.9093 62.6903 45.8896H62.7001C62.7099 45.8503 62.7493 45.7912 62.7296 45.7519C62.7099 45.8011 62.7001 45.8404 62.6903 45.8896ZM62.9757 45.7814C63.015 45.8207 62.9954 45.742 62.9757 45.7814ZM62.9757 45.8601C62.9658 45.8404 63.0052 45.8207 62.9757 45.8109C62.9757 45.8207 62.9462 45.8601 62.9757 45.8601ZM62.7592 45.8896C62.7985 45.9192 62.7198 45.9093 62.7592 45.8896C62.7985 45.87 62.7493 45.8207 62.7592 45.8896ZM63.4579 45.8601C63.4678 45.9093 63.4678 45.8109 63.4579 45.8601ZM62.7296 45.9782C62.7592 45.9881 62.7592 45.9585 62.7592 45.929C62.7198 45.9192 62.7493 45.9684 62.7296 45.9782ZM62.9363 45.9585C62.9462 45.9684 62.9363 45.9487 62.9363 45.9585ZM62.6312 46.0668C62.6706 46.0373 62.6903 45.9979 62.6706 45.9585C62.6607 45.9979 62.6411 46.0176 62.6312 46.0668ZM63.517 45.9881H63.5367V45.9684H63.517V45.9881ZM62.9265 46.0077C62.9265 46.0176 62.9068 46.0077 62.9265 46.0077C62.9462 45.9979 62.9265 45.9881 62.9265 46.0077ZM62.7099 46.0373C62.7296 46.0865 62.7296 45.9881 62.7099 46.0373ZM63.3989 46.0668C63.4087 46.0668 63.3989 46.0569 63.3989 46.0668ZM62.6903 46.0766V46.0963C62.7198 46.116 62.7296 46.0569 62.7001 46.0668C62.7001 46.0668 62.7001 46.0766 62.6903 46.0766ZM62.6115 46.2046C62.6017 46.1652 62.6903 46.0963 62.6214 46.0766C62.6411 46.1357 62.5722 46.1751 62.6115 46.2046ZM62.8773 46.1258C62.8871 46.1258 62.8773 46.116 62.8773 46.1258ZM63.4678 46.1357C63.4776 46.0865 63.4579 46.2046 63.4678 46.1357ZM62.6804 46.1455C62.7001 46.0865 62.6509 46.2046 62.6804 46.1455ZM62.6706 46.2243C62.6706 46.2243 62.6706 46.2144 62.6804 46.2144C62.6804 46.2046 62.6706 46.1849 62.6509 46.1947C62.6607 46.2046 62.6509 46.2243 62.6706 46.2243ZM62.5623 46.303C62.5918 46.303 62.6115 46.2439 62.582 46.2243C62.5722 46.2439 62.582 46.2833 62.5623 46.303ZM62.8477 46.2439C62.8477 46.1947 62.8379 46.3128 62.8477 46.2439ZM62.6214 46.4014C62.6312 46.3719 62.6607 46.3128 62.6312 46.2833C62.6411 46.3325 62.5918 46.3817 62.6214 46.4014ZM62.4737 46.5786C62.4147 46.7754 62.3163 47.0805 62.2867 47.2675C62.3556 47.0805 62.4737 46.7459 62.4737 46.5786C62.5131 46.5097 62.5722 46.4014 62.5623 46.3128C62.5131 46.362 62.4934 46.4998 62.4737 46.5786ZM62.8182 46.3424C62.8576 46.3227 62.7887 46.3817 62.8182 46.3424ZM62.5918 46.4408H62.582C62.5623 46.5589 62.523 46.6081 62.5131 46.7262C62.5525 46.677 62.5918 46.5392 62.5918 46.4408C62.6115 46.4309 62.5918 46.4309 62.5918 46.4408ZM62.6411 46.4408C62.6509 46.3916 62.6312 46.5097 62.6411 46.4408ZM62.7887 46.4408C62.7887 46.4506 62.7788 46.4408 62.7887 46.4408ZM62.7887 46.5195C62.7788 46.5097 62.7887 46.4801 62.769 46.4801C62.7592 46.49 62.7592 46.5195 62.7887 46.5195ZM62.7395 46.6179C62.7493 46.6278 62.7296 46.6179 62.7395 46.6179ZM62.7296 46.6671C62.7296 46.677 62.7198 46.6573 62.7296 46.6671ZM63.2119 46.7164C63.2217 46.7262 63.2217 46.7164 63.2119 46.7164C63.202 46.6967 63.1922 46.7164 63.2119 46.7164ZM62.3556 47.2675C62.4344 47.1002 62.4639 46.9329 62.523 46.7459H62.4934C62.4541 46.9526 62.3753 47.1002 62.3556 47.2675ZM62.6804 46.8049C62.7198 46.8148 62.7001 46.7656 62.7099 46.7557C62.6804 46.7459 62.7001 46.7951 62.6804 46.8049ZM63.1725 46.8345C63.1824 46.8345 63.1725 46.8246 63.1725 46.8345ZM62.6411 46.9624C62.6411 46.9722 62.6312 46.9722 62.6411 46.9624C62.6607 46.9526 62.6607 46.9329 62.6706 46.9132C62.6312 46.9033 62.6509 46.9427 62.6411 46.9624ZM62.6115 47.1002C62.6115 47.1002 62.6312 47.051 62.6115 47.0411C62.6214 47.0707 62.5722 47.0903 62.6115 47.1002ZM63.0938 47.1297C63.1331 47.1002 63.0643 47.1691 63.0938 47.1297ZM62.582 47.1494C62.5918 47.1002 62.5722 47.2183 62.582 47.1494ZM62.9658 47.4053C62.9757 47.4053 62.9658 47.425 62.9658 47.4053C62.9658 47.3856 63.0052 47.3856 62.9954 47.3462C62.9658 47.3462 62.9068 47.3265 62.8773 47.3659C62.9363 47.3856 62.8281 47.3659 62.8674 47.4545C62.8969 47.4545 62.8969 47.4151 62.9462 47.4348C62.9462 47.4151 62.956 47.4151 62.9658 47.4053ZM62.6903 47.4053C62.6903 47.3856 62.6706 47.3758 62.6509 47.3659C62.6017 47.3856 62.5722 47.3659 62.5525 47.3954C62.6017 47.3856 62.582 47.4545 62.6509 47.4447C62.6706 47.4151 62.6214 47.3954 62.6509 47.3856C62.6607 47.4053 62.6706 47.4053 62.6706 47.4348C62.7099 47.4545 62.7985 47.4151 62.7592 47.3659C62.7592 47.425 62.7296 47.3758 62.6903 47.3462C62.6706 47.3758 62.7296 47.3954 62.6903 47.4053ZM63.0052 47.3659C63.015 47.3659 63.0052 47.3561 63.0052 47.3659ZM63.6843 47.4939C63.7237 47.5332 63.704 47.4545 63.6843 47.4939ZM62.9068 47.5135C62.9166 47.5135 62.9166 47.5234 62.9265 47.5234C62.9265 47.5135 62.9265 47.484 62.9068 47.4939V47.5135ZM64.9933 47.5824C64.9933 47.5628 64.9834 47.5529 64.9736 47.5529C64.9736 47.5726 64.9637 47.5923 64.9933 47.5824ZM64.9244 47.5824H64.9441V47.5628H64.9244V47.5824ZM64.2453 47.612C64.2551 47.5824 64.2256 47.5923 64.2158 47.5726C64.2158 47.6021 64.2256 47.612 64.2453 47.612ZM64.3339 47.6021C64.3437 47.6415 64.3437 47.5529 64.3339 47.6021ZM62.6706 48.4682C62.7001 48.4584 62.6706 48.4387 62.7001 48.4092C62.6903 48.419 62.6706 48.419 62.6706 48.3993C62.7099 48.3304 62.7788 48.2714 62.7395 48.1631C62.769 48.1533 62.769 48.1631 62.7985 48.1434C62.8084 48.0548 62.8281 47.9466 62.8674 47.8974C62.8379 47.8875 62.8281 47.7891 62.8773 47.7793V47.799C62.8871 47.8482 62.8477 47.799 62.8773 47.799C62.9068 47.7694 62.9068 47.6809 62.8773 47.6612C62.8576 47.671 62.8281 47.6612 62.7887 47.671C62.7395 47.9466 62.6017 48.1434 62.5722 48.3698C62.5033 48.4977 62.4344 48.665 62.4049 48.8422L62.3753 48.8127C62.3556 48.8619 62.395 48.9308 62.3753 48.9406C62.3458 48.9505 62.3753 48.8914 62.336 48.9111C62.2966 49.1473 62.1883 49.3048 62.1194 49.5311C62.1686 49.5016 62.149 49.5016 62.1982 49.5311C62.2769 49.2851 62.4147 49.0489 62.4934 48.8225C62.523 48.8225 62.4836 48.8816 62.5131 48.8717C62.5131 48.852 62.523 48.8422 62.5328 48.8422C62.5426 48.793 62.4934 48.8127 62.5033 48.7635C62.5328 48.7733 62.5426 48.793 62.5623 48.7635C62.5328 48.7241 62.5328 48.6355 62.5918 48.6847C62.6312 48.6257 62.5525 48.6454 62.5623 48.5765C62.5918 48.5765 62.582 48.606 62.5918 48.606C62.6312 48.5666 62.5623 48.5568 62.5918 48.5273C62.6115 48.5371 62.6214 48.5469 62.6411 48.5568C62.6411 48.5174 62.6607 48.5076 62.6706 48.4682ZM62.4541 47.6907C62.2867 48.2418 62.2179 48.7733 62.0309 49.2949C62.0702 49.3835 61.962 49.4721 62.021 49.5213C62.2572 48.9111 62.5033 48.2714 62.6804 47.6809C62.5722 47.6612 62.523 47.7005 62.4541 47.6907ZM61.9817 48.3698C61.9128 48.478 61.8537 48.6355 61.9029 48.7339C62.0013 48.419 62.0702 48.0155 62.1588 47.7301H62.1194C62.0702 47.9958 61.9915 48.1139 61.9817 48.3698ZM62.1686 47.8679C62.208 47.858 62.2474 47.7497 62.208 47.7399C62.1883 47.7891 62.1785 47.8383 62.1686 47.8679ZM62.1194 48.1434C62.1293 48.045 62.2179 47.9269 62.1588 47.8777C62.1686 47.9761 62.0702 48.0647 62.1194 48.1434ZM62.0801 48.1926C62.1293 48.2025 62.0801 48.1533 62.0801 48.1926ZM62.0801 48.2517C62.1096 48.2615 62.1096 48.1926 62.0801 48.2123V48.2517ZM62.0801 48.2911C62.0899 48.3403 62.0899 48.2517 62.0801 48.2911ZM62.021 48.5469C62.021 48.5568 62.0013 48.5469 62.021 48.5469H62.0309C62.0505 48.4977 62.0505 48.4288 62.0604 48.3796C62.021 48.3993 62.0112 48.4977 62.021 48.5469ZM61.9817 48.7339C61.9718 48.6749 62.0309 48.6257 61.9915 48.5765C61.9817 48.6158 61.9423 48.7143 61.9817 48.7339ZM61.9423 48.8422C61.9423 48.8028 61.9915 48.7536 61.9423 48.7438C61.9423 48.7733 61.9226 48.8028 61.9423 48.8422ZM61.6962 49.5508C61.6864 49.5607 61.6962 49.5803 61.6766 49.5803C61.6569 49.5213 61.6372 49.6197 61.6766 49.5803C61.6962 49.6591 61.6372 49.6099 61.6273 49.6295C61.6372 49.6394 61.6569 49.6394 61.6667 49.6492C61.6077 49.8067 61.5486 49.9445 61.5683 50.0921C61.5289 50.1118 61.5388 50.1512 61.5289 50.2299C61.5092 50.2496 61.4896 50.3283 61.5191 50.3775C61.4994 50.3578 61.4797 50.3677 61.4896 50.3972C61.4994 50.3972 61.5191 50.3972 61.5191 50.4071C61.5191 50.4464 61.4699 50.4563 61.46 50.4956C61.4699 50.5055 61.4994 50.4956 61.4994 50.5153C61.46 50.5153 61.4403 50.5645 61.4896 50.5744C61.46 50.594 61.4108 50.6531 61.46 50.6826C61.4403 50.6236 61.5289 50.6137 61.4896 50.5744C61.4896 50.5448 61.4994 50.5645 61.5092 50.5645C61.5781 50.1216 61.647 49.8756 61.6962 49.5508C61.7553 49.2556 61.8734 49.039 61.8635 48.7536C61.8242 48.8225 61.8242 48.9701 61.7848 49.039C61.834 49.0882 61.7159 49.1375 61.7651 49.2063C61.7454 49.2162 61.7356 49.167 61.7356 49.2162C61.7848 49.2851 61.647 49.4721 61.6667 49.5508H61.6962ZM61.9128 48.8816C61.9226 48.8914 61.9029 48.8816 61.9128 48.8816ZM61.8832 49.039C61.9029 48.98 61.9324 48.9603 61.9029 48.9111C61.9128 48.9603 61.8537 48.9997 61.8832 49.039ZM62.4737 48.9406C62.4836 48.9308 62.5033 48.9209 62.4737 48.9111C62.4737 48.9209 62.4541 48.9406 62.4737 48.9406ZM62.4442 49.0292C62.4836 48.9997 62.4147 49.0686 62.4442 49.0292ZM61.8537 49.1473C61.8832 49.1473 61.8734 49.1079 61.8832 49.0882C61.8537 49.0784 61.8537 49.1079 61.8537 49.1473ZM61.8439 49.1768C61.8931 49.1965 61.8439 49.1473 61.8439 49.1768ZM61.7947 49.4032H61.7848C61.7848 49.4721 61.7356 49.4918 61.7651 49.5508C61.7159 49.5902 61.7356 49.6984 61.7061 49.7575C61.775 49.7083 61.7356 49.6197 61.7651 49.5508C61.8045 49.5311 61.7848 49.4721 61.7947 49.4032C61.834 49.3835 61.834 49.2752 61.8242 49.226C61.8143 49.2851 61.7947 49.3737 61.7947 49.4032ZM62.0998 49.5902C62.0998 49.5803 62.1194 49.5705 62.0998 49.5606C62.0998 49.5705 62.0801 49.5902 62.0998 49.5902ZM62.0899 49.6788C62.0998 49.728 62.0998 49.6295 62.0899 49.6788ZM61.7061 49.7969C61.7159 49.8067 61.7061 49.787 61.7061 49.7969ZM61.6962 49.8461C61.7159 49.8854 61.7159 49.7969 61.6962 49.8461ZM61.647 50.1216C61.647 50.0724 61.7159 49.9839 61.6864 49.915C61.6766 49.974 61.6273 50.0626 61.647 50.1216ZM61.6077 50.3578C61.6175 50.2889 61.6766 50.2201 61.6273 50.161C61.6175 50.2397 61.588 50.2889 61.6077 50.3578ZM61.3321 51.3814C61.3813 51.3814 61.3222 51.4503 61.3321 51.3814ZM61.3419 51.5192C61.3518 51.4897 61.3715 51.47 61.3321 51.4601C61.3419 51.4798 61.3222 51.5192 61.3419 51.5192ZM61.4305 51.5192C61.4797 51.529 61.4305 51.4798 61.4305 51.5192ZM61.3321 51.5684C61.3321 51.5487 61.3518 51.5389 61.3321 51.529C61.3321 51.5487 61.3124 51.5585 61.3321 51.5684ZM61.4305 51.5684C61.46 51.6176 61.4403 51.529 61.4305 51.5684ZM61.4108 51.6471C61.4502 51.6668 61.4502 51.5979 61.4305 51.5979C61.4305 51.6274 61.4108 51.6274 61.4108 51.6471ZM61.3222 51.6865C61.3518 51.6865 61.3715 51.6668 61.3715 51.6373C61.3419 51.6373 61.3222 51.657 61.3222 51.6865ZM61.4108 51.8735C61.4207 51.8243 61.401 51.9424 61.4108 51.8735ZM61.401 51.9227C61.4305 51.8735 61.4207 51.9621 61.401 51.9227ZM61.3222 52.0113C61.3124 52.0014 61.3321 51.9522 61.3124 51.9522C61.3026 51.9817 61.2829 52.0113 61.3222 52.0113ZM61.4108 52.0703C61.4108 52.0506 61.4305 51.9916 61.3911 52.0014C61.401 52.0211 61.3911 52.0605 61.4108 52.0703ZM61.3419 52.09C61.3321 52.0408 61.3715 52.0211 61.3321 52.0113C61.3419 52.0506 61.3026 52.0802 61.3419 52.09ZM61.401 52.2081C61.4108 52.1786 61.4207 52.1294 61.401 52.0998C61.3911 52.1097 61.3813 52.1884 61.401 52.2081ZM61.3321 52.1195C61.3419 52.1687 61.3419 52.0703 61.3321 52.1195ZM61.3321 52.2081C61.3715 52.2081 61.3222 52.2573 61.3321 52.2081C61.3222 52.1786 61.3715 52.1687 61.3321 52.1589C61.3321 52.1687 61.3124 52.1687 61.3124 52.1786C61.3222 52.1884 61.3124 52.2081 61.3321 52.2081ZM61.401 52.4049C61.3911 52.3459 61.4207 52.2672 61.3911 52.2278C61.401 52.3065 61.3616 52.3557 61.401 52.4049ZM61.3419 52.3065C61.3419 52.2967 61.3616 52.2475 61.3321 52.2475C61.3124 52.2672 61.3124 52.3065 61.3419 52.3065ZM61.3222 52.3656C61.3321 52.3262 61.3124 52.4443 61.3222 52.3656ZM61.3911 52.4246C61.4305 52.5526 61.3715 52.5427 61.3911 52.4246ZM63.8516 44.4527C63.8516 44.4134 63.8418 44.5315 63.8516 44.4527ZM63.8319 44.5413C63.8713 44.5807 63.8516 44.5019 63.8319 44.5413ZM63.6843 44.7283C63.6646 44.7283 63.6745 44.748 63.6843 44.748V44.7283ZM63.8122 44.7972C63.8516 44.7578 63.8024 44.7086 63.8122 44.7972ZM63.8122 44.7972C63.8122 44.8169 63.7926 44.807 63.8122 44.7972ZM63.2217 45.0432H63.2316C63.2316 45.0629 63.2414 45.0924 63.2217 45.0924V45.0432ZM63.7532 45.2499C63.7729 45.2401 63.7532 45.2302 63.7532 45.2499ZM63.517 45.309C63.5563 45.3483 63.5367 45.2696 63.517 45.309ZM63.5071 45.3385C63.5465 45.3877 63.4776 45.4074 63.5071 45.3385ZM63.4776 45.4172C63.4973 45.4172 63.5071 45.4271 63.5071 45.4468C63.4776 45.4566 63.4875 45.4369 63.4776 45.4172ZM63.4382 45.6239C63.4875 45.6337 63.4382 45.5944 63.4382 45.6239ZM63.4087 45.7322C63.4481 45.7322 63.3989 45.683 63.4087 45.7322ZM63.4087 45.7322C63.4186 45.7814 63.3792 45.7322 63.4087 45.7322ZM63.3005 46.0963C63.3201 46.1455 63.3201 46.0471 63.3005 46.0963ZM63.2414 46.2243H63.2709V46.2735H63.2414V46.2243ZM63.2119 46.3719C63.2217 46.3817 63.202 46.362 63.2119 46.3719ZM63.1528 46.6081C63.1627 46.6179 63.143 46.5983 63.1528 46.6081ZM63.1135 46.8935H63.143V46.9132C63.1331 46.9132 63.1331 46.923 63.1233 46.923H63.1036V46.9033C63.1135 46.9033 63.1135 46.8935 63.1135 46.8935ZM63.5859 47.3856C63.5268 47.3561 63.5071 47.425 63.5859 47.3856ZM63.8122 47.484C63.7827 47.4643 63.7729 47.4348 63.763 47.3954C63.7926 47.4151 63.8024 47.4447 63.8122 47.484ZM64.1272 47.4053C64.1665 47.4447 64.1469 47.3659 64.1272 47.4053ZM64.2059 47.4053C64.2551 47.4151 64.2846 47.425 64.2945 47.4643C64.2453 47.4643 64.2354 47.4053 64.2158 47.4643C64.1764 47.484 64.1961 47.4151 64.2059 47.4053ZM64.5897 47.425C64.6291 47.4151 64.5996 47.4643 64.6291 47.4643C64.6094 47.5037 64.5996 47.4348 64.5897 47.425ZM63.9894 47.4348C64.0091 47.4348 64.0189 47.4447 64.0386 47.4447C64.0386 47.4643 63.9697 47.4643 63.9894 47.4348ZM64.7374 47.4447C64.7374 47.4348 64.7571 47.4348 64.7669 47.4348V47.4643C64.7571 47.4643 64.7472 47.4447 64.7374 47.4447ZM64.8063 47.4348C64.8358 47.4348 64.8358 47.4742 64.8161 47.4939C64.7866 47.4939 64.8161 47.4545 64.8063 47.4348ZM64.0977 47.4545C64.137 47.4939 64.1173 47.4151 64.0977 47.4545ZM64.1469 47.4545C64.1567 47.5037 64.1567 47.4053 64.1469 47.4545ZM64.3339 47.4545C64.3437 47.5037 64.3437 47.4053 64.3339 47.4545ZM64.6586 47.4447C64.6685 47.4545 64.6783 47.4545 64.698 47.4545C64.698 47.4742 64.6586 47.4643 64.6586 47.4939C64.6291 47.484 64.6783 47.4643 64.6586 47.4447ZM64.5701 47.4643C64.5602 47.4545 64.5504 47.4742 64.5701 47.4643ZM64.5701 47.4643C64.5799 47.484 64.5799 47.4643 64.5701 47.4643ZM64.9342 47.484C64.9637 47.5234 64.9539 47.4447 64.9342 47.484ZM65.1114 47.484C65.131 47.484 65.1409 47.5037 65.131 47.5234C65.1114 47.5234 65.1114 47.5037 65.1114 47.484ZM65.1606 47.484C65.1704 47.484 65.1803 47.5037 65.1803 47.5234C65.1606 47.5234 65.1606 47.5037 65.1606 47.484ZM65.6822 47.5628C65.692 47.612 65.692 47.5135 65.6822 47.5628ZM65.3968 47.612C65.4066 47.6612 65.4066 47.5628 65.3968 47.612ZM65.3377 47.6316C65.3869 47.6415 65.3377 47.6021 65.3377 47.6316ZM62.7493 48.0942C62.7788 48.0647 62.7493 48.2025 62.7493 48.0942ZM62.6312 48.2517C62.6804 48.2615 62.6312 48.2123 62.6312 48.2517ZM62.6706 48.4682C62.6509 48.4682 62.6411 48.4485 62.6509 48.4485C62.6607 48.4485 62.6706 48.4584 62.6706 48.4682ZM61.5683 50.0331C61.5781 50.0823 61.5781 49.9839 61.5683 50.0331ZM61.5585 50.1512C61.5683 50.161 61.5486 50.1413 61.5585 50.1512ZM61.5289 50.2299C61.5486 50.2299 61.5388 50.2496 61.5289 50.2299ZM61.3222 51.3322C61.3321 51.342 61.3124 51.3223 61.3222 51.3322ZM61.3124 52.6904V52.7199C61.2927 52.7199 61.2829 52.71 61.2829 52.6904H61.3124ZM73.0636 45.8601C73.0636 45.8503 73.0734 45.8503 73.0833 45.8503C73.0833 45.8601 73.0636 45.8601 73.0636 45.8601ZM72.6404 45.8601C72.6601 45.87 72.6207 45.8995 72.601 45.8896C72.5813 45.8503 72.6404 45.8896 72.6404 45.8601ZM72.4731 45.87C72.5026 45.87 72.5223 45.8995 72.5026 45.9093C72.4928 45.8995 72.4731 45.8995 72.4731 45.87ZM73.4671 45.8798C73.4868 45.8404 73.4671 45.9585 73.4671 45.8798ZM73.5557 45.8798C73.5754 45.8798 73.5754 45.8995 73.595 45.8896C73.595 45.9093 73.536 45.9093 73.5557 45.8798ZM73.7919 45.9782C73.7919 45.9881 73.8017 45.9881 73.8116 45.9881C73.8116 45.9585 73.8017 45.9782 73.7919 45.9782C73.782 45.9487 73.7525 45.9388 73.7525 45.9093C73.7919 45.929 73.8608 45.9192 73.8608 45.9782C73.8805 45.9782 73.8805 45.9585 73.8805 45.9388C73.9592 45.9684 73.9986 46.0373 74.0084 46.1455C73.9592 46.2538 74.0773 46.3128 74.0478 46.4113C73.9986 46.4309 74.0379 46.3719 74.0084 46.3719C73.969 46.3916 74.0182 46.4309 74.0084 46.4703C73.8903 46.549 73.7525 46.6179 73.6147 46.677C73.6049 46.677 73.6049 46.677 73.6049 46.6868C73.2703 46.7459 72.9849 46.8148 72.6404 46.864C72.601 46.8541 72.6502 46.8148 72.6502 46.7951C72.6109 46.7951 72.4928 46.8148 72.4829 46.7459C72.4534 46.7852 72.414 46.736 72.414 46.8049C72.414 46.7852 72.3747 46.7852 72.3747 46.7459C72.414 46.7262 72.4436 46.7557 72.4731 46.7262C72.3156 46.7164 72.1286 46.7951 71.9515 46.8148C71.9515 46.7951 71.9515 46.7852 71.9416 46.7754C71.9416 46.8049 71.7645 46.8541 71.7054 46.7951C72.0204 46.6967 72.3254 46.6475 72.601 46.5884C72.6305 46.5687 72.6502 46.5392 72.6502 46.4998C72.6699 46.5097 72.6699 46.49 72.6994 46.49C72.6994 46.5195 72.6502 46.5195 72.6502 46.5589C72.6699 46.5687 72.7093 46.5589 72.7683 46.5589V46.5195C72.7683 46.4998 72.7388 46.5097 72.7191 46.5097C72.7191 46.4703 72.7683 46.4801 72.788 46.4703C72.8077 46.49 72.7782 46.49 72.788 46.5195C72.788 46.549 72.8372 46.5294 72.8569 46.5294C72.8766 46.5294 72.8569 46.4998 72.8766 46.49C72.8864 46.4703 72.8372 46.4998 72.8274 46.4998C72.7979 46.4309 72.9356 46.4408 72.9947 46.4211C72.975 46.4703 72.9061 46.4605 72.8963 46.4998C72.9455 46.5097 73.0045 46.4506 73.0636 46.4801C73.0931 46.4703 73.0734 46.3916 73.1226 46.3916C73.1226 46.4211 73.0931 46.4113 73.103 46.4506C73.1423 46.4605 73.1325 46.4211 73.1325 46.3916C73.2703 46.4113 73.3982 46.3227 73.5262 46.2932C73.5262 46.2636 73.4769 46.2833 73.4966 46.2538C73.4769 46.2538 73.4769 46.2735 73.4769 46.2833C73.3785 46.2636 73.29 46.2636 73.2014 46.2636C73.1718 46.2636 73.1915 46.2046 73.1325 46.2144C73.103 46.2243 73.1423 46.2439 73.1325 46.2636C73.103 46.2735 73.0734 46.2636 73.0636 46.2341C73.0341 46.2243 73.0242 46.2439 73.0242 46.2636C73.0045 46.2636 73.0045 46.2439 72.9947 46.2439C73.0045 46.2636 72.9652 46.2636 72.916 46.2636C72.9061 46.2636 72.8963 46.2439 72.9061 46.2144C72.8864 46.2243 72.8864 46.2341 72.8864 46.2439C72.8766 46.2439 72.8668 46.2341 72.8668 46.2144C72.8372 46.2243 72.8471 46.2538 72.8274 46.2636C72.788 46.2046 72.7486 46.2439 72.6896 46.2439C72.6896 46.2636 72.7191 46.2538 72.7093 46.2636C72.6699 46.2636 72.6798 46.2144 72.6305 46.2341C72.6109 46.2636 72.6502 46.2439 72.6601 46.2636C72.6601 46.2932 72.5912 46.2735 72.5518 46.2833C72.542 46.2538 72.5813 46.2636 72.5912 46.2538C72.5321 46.2341 72.414 46.2144 72.3845 46.2833C72.3451 46.2636 72.3254 46.2932 72.2959 46.303C72.2664 46.2932 72.2566 46.2636 72.227 46.2538C72.0007 46.2538 71.7153 46.3522 71.5184 46.2932C71.5086 46.3128 71.4889 46.3325 71.4692 46.3522C71.3314 46.3325 71.2035 46.4014 71.0755 46.3719C71.0854 46.3424 71.0755 46.3325 71.0657 46.3128H71.0066C71.0066 46.3128 70.9968 46.362 70.9968 46.3817C71.0263 46.3817 71.0263 46.362 71.0263 46.3424C71.0558 46.3424 71.0362 46.3817 71.0755 46.3719C70.9771 46.4113 70.8689 46.4309 70.7606 46.4211C70.7606 46.3817 70.7606 46.3817 70.8 46.3916C70.8 46.3719 70.7901 46.3719 70.7901 46.3522C70.7606 46.3522 70.7704 46.3817 70.7311 46.3719C70.7311 46.3325 70.7114 46.303 70.7409 46.2636C70.7606 46.2636 70.7311 46.3227 70.7606 46.3128C70.8098 46.3325 70.7606 46.2439 70.8 46.2636C70.7901 46.2932 70.7803 46.3128 70.8393 46.303C70.8098 46.2833 70.9279 46.2144 70.9181 46.2833C70.9476 46.2636 70.9574 46.2144 71.0066 46.2341C71.0263 46.2538 70.9968 46.2538 71.0165 46.2636C71.0854 46.2735 71.0854 46.2636 71.1346 46.2538C71.1444 46.2243 71.0952 46.2636 71.1149 46.2144C71.1247 46.2144 71.1346 46.2341 71.1346 46.2144C71.1543 46.2243 71.1444 46.2439 71.1543 46.2636C71.1838 46.2538 71.2035 46.2439 71.2232 46.2636C71.2428 46.2439 71.2822 46.2243 71.2625 46.1554C71.3314 46.1751 71.3216 46.1947 71.3511 46.1849C71.3511 46.2144 71.3413 46.2341 71.3511 46.2538C71.3806 46.2341 71.4298 46.2341 71.4003 46.1849C71.4397 46.1947 71.4298 46.1652 71.4594 46.1751C71.4594 46.2144 71.4495 46.2144 71.4692 46.2439C71.4987 46.2538 71.4889 46.2144 71.5086 46.2144C71.5184 46.1849 71.479 46.1947 71.4889 46.1554C71.5086 46.1652 71.5184 46.1455 71.5086 46.1357C71.5283 46.1652 71.5381 46.1849 71.5479 46.2144C71.607 46.2341 71.5873 46.1455 71.607 46.1357C71.6168 46.1455 71.666 46.1652 71.6267 46.1849C71.6267 46.2046 71.6562 46.2046 71.6857 46.2046C71.6857 46.1849 71.6857 46.1652 71.666 46.1554C71.6562 46.1357 71.7153 46.1652 71.7054 46.1455C71.7349 46.1554 71.7054 46.1849 71.7054 46.2046H71.7251C71.7546 46.1849 71.7349 46.1751 71.7349 46.1455C71.7448 46.1455 71.7645 46.1455 71.7645 46.1357C71.794 46.1357 71.7841 46.1652 71.7841 46.1947C71.8235 46.1554 71.8629 46.1062 71.9416 46.1357C71.981 46.1357 71.9416 46.1751 71.9416 46.1357C71.9416 46.116 71.9416 46.1062 71.9711 46.1062C71.9613 46.1455 71.981 46.1652 72.0007 46.1751C72.04 46.1554 71.981 46.1357 72.0105 46.1258C72.0302 46.1455 72.1483 46.1652 72.1483 46.0963C72.168 46.1062 72.168 46.1258 72.1778 46.1455C72.227 46.1455 72.3058 46.0963 72.3156 46.1455C72.3353 46.1455 72.3254 46.116 72.3254 46.0963C72.3254 46.0766 72.2959 46.0865 72.2861 46.0865C72.2959 46.0471 72.2861 46.0274 72.2762 46.0176C72.2959 46.0077 72.3058 46.0373 72.2959 46.0471C72.3254 46.0668 72.3156 46.0274 72.3156 46.0176C72.3353 46.0274 72.3353 46.0668 72.3845 46.0471C72.3943 46.0963 72.3451 46.0766 72.3353 46.1062C72.3353 46.1455 72.4239 46.1357 72.4239 46.0963C72.4829 46.1455 72.5124 46.0963 72.5912 46.0963C72.5912 46.0766 72.6109 46.0373 72.6502 46.0274C72.6502 46.0569 72.6404 46.0668 72.6305 46.0865C72.6404 46.1455 72.6896 46.0963 72.7191 46.1258C72.7191 46.116 72.7191 46.0963 72.7093 46.0963C72.7683 46.0668 72.8372 46.0963 72.9061 46.0963C72.9553 46.0963 72.9849 46.0668 73.0242 46.0668C73.0931 46.0668 73.1226 46.0865 73.1718 46.0766C73.3195 46.0471 73.4671 46.1554 73.5754 46.0865C73.595 46.1258 73.6246 46.116 73.6443 46.1258C73.6935 46.116 73.6541 46.0373 73.7033 46.0766C73.6935 46.0373 73.6344 46.0569 73.6738 46.0176C73.6738 45.9979 73.6541 45.9979 73.6344 45.9979C73.6246 46.0077 73.6344 46.0766 73.595 46.0766C73.595 46.0569 73.595 46.0373 73.5852 46.0274C73.6344 46.0176 73.595 45.9684 73.6049 45.9388C73.6246 45.929 73.6836 45.9881 73.6836 45.929C73.6836 45.9093 73.6639 45.9487 73.6344 45.929C73.6344 45.9093 73.6246 45.9093 73.6246 45.8896C73.6836 45.8995 73.6935 45.8995 73.7328 45.9093C73.723 45.929 73.7033 45.929 73.6935 45.9585C73.7033 45.9979 73.7525 45.9782 73.7919 45.9782ZM73.8411 45.9979C73.8706 45.9585 73.8608 46.0274 73.8411 45.9979ZM73.7427 46.0373C73.7525 46.0077 73.7132 46.0274 73.7033 46.0176C73.7033 46.0373 73.723 46.0373 73.7427 46.0373ZM73.8411 46.1455C73.8706 46.1554 73.8706 46.0963 73.8411 46.1062V46.1455ZM72.9356 46.1455H72.8766C72.8668 46.1849 72.9356 46.1849 72.9356 46.1455ZM72.4632 46.1751C72.4731 46.2144 72.4731 46.1357 72.4632 46.1751ZM72.5223 46.1751C72.5026 46.2144 72.5912 46.1849 72.5912 46.1554C72.5617 46.1554 72.5321 46.1554 72.5223 46.1751ZM72.7683 46.1751C72.7782 46.1751 72.7683 46.1652 72.7683 46.1751ZM72.0991 46.2046H72.1188C72.1385 46.1751 72.0794 46.1751 72.0892 46.1947C72.0892 46.1947 72.0991 46.1947 72.0991 46.2046ZM71.5479 46.2833C71.5479 46.2636 71.5381 46.2636 71.5184 46.2538C71.5184 46.2636 71.5184 46.2833 71.5479 46.2833ZM70.9476 46.2932C70.9673 46.2932 70.9771 46.2932 70.9968 46.303V46.2636H70.9574C70.9574 46.2735 70.9476 46.2833 70.9476 46.2932ZM71.3806 46.2833C71.4102 46.2439 71.3905 46.3227 71.3806 46.2833ZM71.607 46.2932H71.6267V46.2636H71.607V46.2932ZM71.4889 46.303C71.4987 46.3128 71.479 46.303 71.4889 46.303ZM71.1641 46.3128C71.174 46.3227 71.1543 46.3128 71.1641 46.3128ZM73.5065 46.4113C73.5852 46.4309 73.6541 46.3719 73.7328 46.362C73.7328 46.3325 73.7328 46.3227 73.7132 46.3128C73.6443 46.3522 73.5655 46.3719 73.5065 46.4113ZM70.9476 46.3719C70.9574 46.3817 70.9377 46.3719 70.9476 46.3719ZM70.8885 46.3817C70.8787 46.3817 70.8689 46.3817 70.8689 46.3916C70.8787 46.3817 70.8885 46.3916 70.8885 46.3817ZM73.4769 46.4211C73.4573 46.4014 73.4573 46.4605 73.4769 46.4605V46.4211C73.4966 46.4113 73.4769 46.4113 73.4769 46.4211ZM73.0833 46.5884C73.0931 46.5983 73.0734 46.5884 73.0833 46.5884ZM72.4928 46.7262C72.5321 46.7065 72.5321 46.7262 72.542 46.736C72.5518 46.677 72.6207 46.736 72.6404 46.677C72.5715 46.7065 72.5321 46.6671 72.4928 46.7262ZM72.8077 46.7459H72.8274V46.736H72.8077V46.7459ZM72.6109 46.7557C72.6404 46.8049 72.6305 46.7262 72.6109 46.7557ZM72.0007 45.9093C72.0105 45.9487 71.9613 45.9093 71.9515 45.929C71.9219 45.9093 71.981 45.9093 72.0007 45.9093ZM72.0597 45.9093C72.0696 45.9585 72.0696 45.87 72.0597 45.9093ZM72.7486 45.9093C72.7683 45.9388 72.788 45.8995 72.8175 45.9192C72.8372 45.9782 72.7683 45.9388 72.7585 45.9684C72.729 45.9487 72.7388 45.9388 72.7486 45.9093ZM72.8766 45.9093C72.8864 45.9093 72.8963 45.929 72.8963 45.9585C72.8668 45.9487 72.8668 45.9487 72.8274 45.9585C72.8175 45.9093 72.8864 45.9487 72.8766 45.9093ZM73.5655 46.0176H73.5557C73.5458 46.0274 73.5557 46.0274 73.5655 46.0274C73.5557 46.0471 73.5754 46.0569 73.5754 46.0766C73.5458 46.0569 73.4277 46.1062 73.4179 46.0373C73.4376 46.0373 73.4573 46.0373 73.4573 46.0274C73.4769 46.0274 73.4769 46.0471 73.5065 46.0373C73.536 46.0176 73.4769 46.0176 73.4966 45.9684C73.3588 45.9585 73.2211 45.9487 73.0833 45.929C73.0537 45.9782 73.103 45.9585 73.0931 46.0176C73.0636 46.0077 73.0636 45.9684 73.0439 45.9388C72.9849 45.9388 72.9553 45.9881 72.9061 45.929C73.103 45.9093 73.3096 45.9093 73.5852 45.9388C73.595 45.9881 73.5458 45.9684 73.5655 46.0176ZM72.5321 45.929C72.4632 45.9684 72.3648 45.9881 72.3156 45.9388C72.3943 45.9388 72.4632 45.9388 72.5321 45.929ZM71.8826 45.9388C71.8826 45.929 71.8924 45.929 71.9022 45.929C71.9022 45.9388 71.8924 45.9388 71.8826 45.9388ZM72.5715 45.9388C72.5715 45.9093 72.601 45.9684 72.601 45.929C72.6404 45.9487 72.5715 45.9684 72.5715 45.9388ZM72.6798 45.9388C72.7388 45.9782 72.7191 45.9093 72.6798 45.9388ZM71.6759 45.9585C71.6857 45.9585 71.6759 45.9487 71.6759 45.9585ZM71.7054 45.9585C71.7054 45.9388 71.7054 45.9487 71.7153 45.9388C71.7153 45.9585 71.7054 45.9487 71.7054 45.9585ZM72.3058 45.9585C72.2664 46.0274 72.1385 45.929 72.1188 46.0274C72.1089 46.0274 72.1089 46.0077 72.1089 45.9881C72.0499 45.9979 72.0499 45.9979 71.981 45.9979C72.0302 45.9388 72.2172 45.9684 72.3058 45.9585ZM72.5715 45.9388C72.5715 45.9585 72.5518 45.9487 72.5715 45.9388ZM72.8471 45.9684C72.8766 45.9684 72.8471 46.0373 72.9061 46.0274C72.9061 46.0865 72.8569 46.0569 72.8274 46.0471C72.8471 46.0176 72.8471 46.0274 72.8471 45.9684ZM71.8924 45.9782C71.9121 45.9881 71.8924 45.9979 71.8924 46.0176C71.8727 46.0077 71.8924 45.9881 71.8924 45.9782ZM71.9219 45.9881C71.9219 45.9585 71.9515 45.9881 71.9416 46.0176H71.9219C71.9219 46.0077 71.9318 45.9881 71.9219 45.9881ZM72.9652 45.9881C72.975 45.9979 72.9553 45.9881 72.9652 45.9881ZM71.8334 45.9979C71.8629 46.0373 71.853 45.9585 71.8334 45.9979ZM72.788 45.9881C72.7782 46.0077 72.7683 46.0176 72.7585 46.0176C72.7585 45.9979 72.7683 45.9881 72.788 45.9881ZM73.1325 45.9979C73.1325 45.9979 73.1522 45.9782 73.1718 45.9881C73.1915 46.0077 73.1226 46.0373 73.1325 45.9979ZM73.349 46.0274C73.349 46.0471 73.3392 46.0569 73.3392 46.0668C73.2998 46.0471 73.2506 46.0471 73.2112 46.0471C73.2309 46.0274 73.2112 46.0274 73.2112 45.9881C73.2407 45.9881 73.2506 46.0176 73.2801 46.0274C73.2998 46.0274 73.2801 45.9979 73.2998 45.9881C73.349 45.9684 73.2998 46.0471 73.349 46.0274ZM73.349 46.0274C73.349 46.0176 73.3293 46.0176 73.3392 45.9979C73.3687 45.9684 73.4081 46.0176 73.3982 46.0668C73.3588 46.0766 73.3785 46.0274 73.349 46.0274ZM73.4573 46.0274H73.4179C73.4179 46.0077 73.4277 45.9979 73.4277 45.9881H73.4573V46.0274ZM71.6857 45.9979L71.7054 46.0176V46.0274H71.6759C71.6759 46.0176 71.6857 46.0176 71.6857 45.9979ZM71.7743 46.0176C71.7743 45.9979 71.8334 45.9881 71.8235 46.0274C71.8038 46.0274 71.794 46.0077 71.7743 46.0176ZM72.5813 46.0176C72.5912 46.0176 72.5715 46.0077 72.5813 46.0176ZM72.6601 45.9979C72.6896 46.0077 72.7093 46.0274 72.7191 46.0274C72.729 46.0668 72.6994 46.0471 72.6994 46.0274C72.6896 46.0274 72.6896 46.0471 72.6896 46.0668C72.6699 46.0963 72.6798 46.0176 72.6601 45.9979ZM73.5655 46.0176C73.5754 46.0176 73.5852 46.0274 73.5852 46.0274H73.5655V46.0176ZM71.6267 46.0274C71.6464 46.0766 71.6464 45.9881 71.6267 46.0274ZM72.788 46.0274H72.8077C72.8077 46.0373 72.7979 46.0373 72.7979 46.0471C72.788 46.0471 72.788 46.0373 72.7683 46.0373C72.7782 46.0274 72.788 46.0274 72.788 46.0274ZM73.103 46.0274C73.1226 46.0766 73.1226 45.9881 73.103 46.0274ZM73.1915 46.0274C73.2014 46.0766 73.2014 45.9881 73.1915 46.0274ZM70.9476 46.0373C70.9574 46.0471 70.9377 46.0373 70.9476 46.0373ZM73.0144 46.0274C73.0439 46.0274 73.0537 46.0274 73.0734 46.0373C73.0734 46.0569 73.0045 46.0668 73.0144 46.0274ZM71.3708 46.0471C71.3708 46.0865 71.3314 46.0766 71.3511 46.1258C71.3117 46.0865 71.2625 46.0963 71.2232 46.0865C71.233 46.0668 71.233 46.0471 71.2625 46.0471C71.2724 46.1062 71.3314 46.0274 71.3708 46.0471ZM71.3905 46.0373H71.4102V46.0668H71.3905V46.0373ZM71.4889 46.0471C71.4987 46.0569 71.479 46.0471 71.4889 46.0471ZM71.8137 46.0373C71.8432 46.0274 71.8432 46.1062 71.8137 46.0963V46.0373ZM72.04 46.0471C72.0499 46.0569 72.0302 46.0471 72.04 46.0471ZM71.5479 46.0471C71.5775 46.0569 71.5676 46.0865 71.5578 46.0963C71.5381 46.0963 71.5479 46.0668 71.5479 46.0471ZM71.8629 46.0471C71.8924 46.0373 71.8826 46.0766 71.8826 46.0963C71.8629 46.0963 71.853 46.0766 71.8629 46.0471ZM72.1483 46.0963C72.0991 46.0865 72.0794 46.1258 72.0597 46.0963C72.0499 46.0668 72.0794 46.0766 72.0794 46.0471C72.0892 46.0766 72.1188 46.0865 72.1483 46.0963ZM72.2467 46.0668C72.227 46.0766 72.227 46.0963 72.1975 46.0963C72.1877 46.0668 72.2172 46.0668 72.2467 46.0668ZM73.6344 46.0766C73.6541 46.1258 73.6541 46.0274 73.6344 46.0766ZM71.1543 46.0766C71.174 46.0668 71.1641 46.1258 71.1346 46.1062V46.0865C71.1444 46.0865 71.1444 46.0865 71.1543 46.0766ZM71.0657 46.0963V46.1357C71.0263 46.0963 71.0263 46.1455 70.9771 46.1258C70.9574 46.116 71.0263 46.0963 71.046 46.0865C71.046 46.0963 71.0558 46.0963 71.0657 46.0963ZM71.0657 46.0963C71.0854 46.0865 71.0657 46.0865 71.0657 46.0963ZM71.1051 46.0963C71.1149 46.1455 71.1149 46.0471 71.1051 46.0963ZM71.7153 46.0865C71.7645 46.0963 71.7054 46.1455 71.7153 46.0865ZM70.9181 46.1258C70.9377 46.1554 70.9377 46.0766 70.9181 46.1258ZM71.4298 46.1062C71.4397 46.116 71.4298 46.1357 71.4495 46.1357C71.4397 46.1554 71.4102 46.1357 71.4298 46.1062ZM70.8295 46.1357C70.8196 46.116 70.8098 46.1357 70.8295 46.1357ZM70.8787 46.1357C70.8787 46.1258 70.8885 46.1258 70.8984 46.1258C70.8984 46.1357 70.8787 46.1357 70.8787 46.1357ZM70.7704 46.1357C70.8098 46.1554 70.7409 46.1652 70.7704 46.1357ZM70.8295 46.1357C70.8393 46.1357 70.8492 46.1357 70.8492 46.1455H70.8295V46.1357ZM71.479 46.1455C71.5086 46.0963 71.4889 46.1751 71.479 46.1455ZM71.4003 46.1455C71.42 46.1947 71.42 46.1062 71.4003 46.1455ZM70.6622 46.1554C70.6622 46.1652 70.6523 46.1554 70.6622 46.1554ZM70.6228 46.1751C70.613 46.1554 70.6031 46.1751 70.6228 46.1751ZM70.5342 46.1751C70.5539 46.2046 70.5244 46.1947 70.5047 46.1947C70.5047 46.1751 70.5244 46.1652 70.5342 46.1751ZM70.6228 46.1751C70.6622 46.1554 70.6228 46.2046 70.6228 46.1751ZM70.4555 46.1947C70.4653 46.1849 70.4555 46.1849 70.4555 46.1947ZM70.4555 46.1947C70.4457 46.2341 70.4063 46.1849 70.4555 46.1947ZM70.6425 46.1947H70.672V46.2341H70.6425V46.1947ZM69.9339 46.2144C69.9437 46.2636 69.9437 46.1751 69.9339 46.2144ZM71.1838 46.2144C71.2232 46.1947 71.1543 46.2538 71.1838 46.2144ZM70.2488 46.2144H70.2685V46.2538H70.239V46.2341C70.2488 46.2341 70.2488 46.2243 70.2488 46.2144ZM70.8689 46.2341C70.8787 46.2341 70.8689 46.2243 70.8689 46.2341ZM71.0755 46.2341C71.0755 46.2144 71.0952 46.2243 71.1051 46.2144C71.0952 46.2341 71.0854 46.2243 71.0755 46.2341ZM70.1504 46.2341C70.1602 46.2341 70.1602 46.2538 70.1701 46.2538C70.1701 46.2735 70.1406 46.2538 70.1504 46.2341ZM70.1996 46.2341C70.2291 46.2341 70.2291 46.2538 70.2094 46.2636H70.1898V46.2439C70.1996 46.2439 70.1996 46.2341 70.1996 46.2341ZM71.046 46.2538C71.046 46.2636 71.0362 46.2538 71.046 46.2538ZM72.8864 46.2439C72.9258 46.2636 72.8471 46.2735 72.8864 46.2439ZM70.0421 46.2636C70.052 46.2144 70.0323 46.3227 70.0421 46.2636ZM69.6386 46.2636C69.6878 46.2636 69.6189 46.3227 69.6386 46.2636ZM69.9339 46.2636C69.9831 46.3128 69.8847 46.303 69.9339 46.2636ZM70.4063 46.2636C70.4358 46.2341 70.426 46.303 70.4063 46.2636ZM72.7585 46.2636C72.7683 46.2735 72.7486 46.2636 72.7585 46.2636ZM70.298 46.2833C70.2587 46.2833 70.2685 46.3424 70.2094 46.3424C70.2193 46.3227 70.2291 46.303 70.2291 46.2833C70.2488 46.3128 70.2685 46.2538 70.298 46.2833ZM70.5638 46.2833C70.5736 46.2735 70.5834 46.2833 70.5834 46.2636C70.5736 46.2735 70.5638 46.2636 70.5638 46.2833ZM68.0442 51.6078V51.5979C68.0344 51.5979 68.0442 51.6078 68.0442 51.6078C68.0344 51.7751 67.9557 51.8833 67.936 51.9916C67.9065 52.1687 67.8671 52.2868 67.8277 52.4148C67.7588 52.6412 67.6702 52.8872 67.621 53.1037C67.5915 53.2021 67.5226 53.3006 67.4833 53.399C67.4439 53.5466 67.3651 53.8025 67.3455 53.8911C67.3258 54.0387 67.1978 54.3044 67.1782 54.4422C67.1585 54.4521 67.1388 54.4422 67.1388 54.4619C67.0994 54.4619 67.1093 54.4324 67.0994 54.4127C67.0502 54.4717 67.001 54.3733 66.9813 54.4127C66.9124 54.393 66.9223 54.3044 66.9026 54.2552C66.8632 54.2552 66.8829 54.3044 66.8632 54.3143C66.814 54.2651 66.8435 54.1371 66.7943 54.0879C66.8927 54.0092 66.8927 53.8222 66.9813 53.7238C67.0601 53.3596 67.2077 53.1136 67.2569 52.7199C67.4931 51.9129 67.6112 51.0172 67.6309 50.0527C67.6309 49.8461 67.621 49.7181 67.6407 49.5705C67.5817 49.4524 67.6112 49.2457 67.562 49.1178V49.0784C67.5423 49.0686 67.5423 49.1178 67.562 49.1178C67.5423 49.2162 67.6014 49.2851 67.5718 49.3737C67.5029 49.0882 67.4537 48.7733 67.3356 48.5076C67.1782 48.1336 66.9124 47.8186 66.4499 47.7301C66.2924 47.7596 66.1841 47.671 66.0463 47.7005C66.0365 47.6809 66.007 47.6809 65.9971 47.671C65.8003 47.7202 65.6822 47.8088 65.4854 47.8777C65.4558 47.8777 65.4755 47.9171 65.4558 47.9269C65.4361 47.9367 65.446 47.9072 65.4165 47.9072C65.2984 48.0352 65.0228 48.1237 64.8555 47.9958C64.8456 47.9269 64.8555 47.8285 64.8063 47.799C64.7964 47.7104 64.8161 47.6513 64.8358 47.5726C65.0622 47.4348 65.3771 47.3561 65.5936 47.1888C65.6822 47.2183 65.8987 47.0903 65.9282 47.2281C66.0267 47.2084 66.0955 47.1691 66.1743 47.1396C66.1743 47.1592 66.1743 47.1691 66.1644 47.1789C66.1841 47.1691 66.2924 47.1297 66.3121 47.11C66.3318 47.11 66.3514 47.1199 66.3416 47.1396C66.3711 47.1297 66.381 47.1002 66.3908 47.0805C66.4499 47.1002 66.4203 47.0805 66.4794 47.0608C66.4892 47.0903 66.4597 47.0903 66.4695 47.11C66.5089 47.0903 66.5778 47.1002 66.6172 47.0608C66.8632 47.0215 67.0207 46.9033 67.2274 46.9132C67.2372 46.9033 67.247 46.8837 67.247 46.8541C67.3455 46.9033 67.4439 46.7951 67.5226 46.8345C67.4537 46.8935 67.4045 46.864 67.3553 46.923C67.3553 46.9722 67.434 46.9033 67.4242 46.9722C67.375 46.9624 67.3258 46.9624 67.3258 47.0215C67.3159 47.0215 67.3159 47.0018 67.3061 46.9919C67.1978 47.0313 67.0994 47.0313 67.0502 47.11C67.0305 47.1002 67.001 47.1002 66.9912 47.0805C66.9813 47.0903 66.9616 47.0903 66.9715 47.1297C67.0207 47.1691 67.0896 47.1199 67.1289 47.1002C67.1486 47.1002 67.1388 47.1199 67.1289 47.1297H67.1585C67.1978 47.1199 67.1486 47.11 67.1585 47.0903C67.2569 47.1297 67.3356 47.0707 67.434 47.051C67.434 47.0215 67.3848 47.051 67.4045 47.0018C67.4537 47.0116 67.4833 47.0608 67.4833 47.0903C67.5325 47.0903 67.5423 47.0608 67.5718 47.0608C67.5718 47.0215 67.5226 47.0903 67.5128 47.051C67.5128 47.0116 67.5521 47.051 67.562 47.0018C67.5423 46.9821 67.5128 47.0116 67.4734 47.0018C67.4833 46.9722 67.4439 46.9722 67.4537 46.9427C67.4636 46.923 67.4734 46.8837 67.5128 46.8837C67.5128 46.8935 67.5029 46.8935 67.5029 46.9033C67.5521 46.9132 67.5029 46.864 67.5325 46.8541C67.5718 46.8541 67.5718 46.8738 67.5423 46.8935C67.5718 46.9033 67.5817 46.8837 67.5718 46.8541C67.5915 46.8837 67.6112 46.8935 67.6506 46.8837C67.621 46.9427 67.5423 46.9033 67.4833 46.9722C67.5029 47.0215 67.5325 46.9624 67.5718 46.9722C67.5718 47.0018 67.6112 47.0018 67.5915 47.051C67.621 47.051 67.621 47.0313 67.6407 47.0313C67.6112 47.0215 67.6309 47.0116 67.621 47.0018C67.6604 46.9919 67.7195 46.9722 67.7785 46.9722C67.7883 46.9722 67.808 46.923 67.7883 46.9132C67.7982 46.8837 67.8376 46.8935 67.8671 46.8837C67.8769 46.9033 67.8572 46.9033 67.8572 46.923C67.9458 46.9033 68.0442 46.9132 68.1328 46.8541C68.1623 46.8541 68.1525 46.9033 68.1722 46.9033C68.182 46.8738 68.2115 46.864 68.2115 46.8345C68.2214 46.8443 68.2411 46.8443 68.2706 46.8443V46.8837C68.2804 46.8443 68.2804 46.8443 68.3198 46.864C68.3297 46.8345 68.2804 46.8443 68.2903 46.7951C68.3198 46.7852 68.3297 46.8246 68.3297 46.7852C68.3592 46.7852 68.3395 46.8443 68.3592 46.8541C68.3887 46.8246 68.3789 46.7951 68.4281 46.8049C68.4379 46.7754 68.4084 46.7754 68.4084 46.7459C68.4478 46.7557 68.4379 46.8049 68.4478 46.8443C68.4478 46.7852 68.556 46.736 68.5757 46.7754C68.6249 46.6967 68.7332 46.7656 68.7725 46.6868C68.8021 46.6868 68.7922 46.7262 68.8316 46.7262C68.8513 46.7164 68.8414 46.6967 68.8414 46.677C68.9005 46.677 69.0186 46.6671 69.0875 46.6278C69.1072 46.6278 69.1072 46.677 69.1367 46.677C69.1367 46.6671 69.1072 46.6278 69.1465 46.5983C69.1564 46.5884 69.2253 46.6179 69.1957 46.5786C69.2253 46.5294 69.1957 46.6376 69.2548 46.6179C69.2548 46.6278 69.2449 46.6278 69.2253 46.6278C69.2154 46.6573 69.2449 46.6475 69.2449 46.677C69.2646 46.6278 69.2942 46.6179 69.2745 46.5589C69.3237 46.5392 69.3532 46.4506 69.3434 46.4014C69.3434 46.3817 69.3434 46.3817 69.363 46.3916C69.3729 46.3817 69.3926 46.3325 69.3729 46.3227C69.4811 46.3424 69.6878 46.2735 69.8158 46.3719C69.8355 46.4014 69.8256 46.4605 69.8453 46.49C69.9142 46.4703 70.0126 46.4998 70.0323 46.4506C70.0913 46.4801 70.1701 46.3916 70.1799 46.49C70.239 46.49 70.2882 46.4408 70.3374 46.4801C70.3571 46.4506 70.3079 46.3522 70.3177 46.3424C70.3669 46.3325 70.3669 46.4309 70.4063 46.3719C70.4063 46.3719 70.4161 46.3817 70.426 46.3817C70.4555 46.3817 70.426 46.3128 70.4555 46.303C70.4752 46.3227 70.5145 46.3227 70.5047 46.3719C70.5244 46.3719 70.5441 46.3719 70.5638 46.3522C70.5539 46.3128 70.5244 46.362 70.5145 46.3522C70.5047 46.303 70.5736 46.3325 70.5736 46.2932C70.613 46.303 70.5834 46.3128 70.5834 46.3522C70.6326 46.3719 70.5834 46.2833 70.6326 46.303C70.613 46.362 70.6819 46.3817 70.7508 46.3817C70.7606 46.4014 70.7311 46.4014 70.7409 46.4309C70.5145 46.4703 70.2488 46.549 70.052 46.5294C70.0225 46.5294 70.052 46.5884 70.0225 46.5687C70.0225 46.5392 70.0225 46.5195 70.0126 46.5097C69.9634 46.5195 70.0028 46.549 70.0126 46.5786C69.9339 46.5786 69.8748 46.5983 69.7666 46.6179C69.7764 46.7065 69.7272 46.7459 69.6878 46.7852C69.5993 47.0215 69.5205 47.2478 69.4123 47.4447C69.3729 47.6218 69.2745 47.7694 69.2646 47.9171C69.1564 48.0548 69.1564 48.3009 69.0383 48.419C69.0284 48.4387 69.0481 48.4387 69.0481 48.4682C68.9792 48.7339 68.871 48.9701 68.7824 49.1768V49.226C68.7332 49.354 68.743 49.541 68.6446 49.6788C68.6446 49.6886 68.6544 49.6886 68.6643 49.6886C68.6249 49.728 68.6151 49.7673 68.6249 49.8264C68.5659 49.974 68.5068 50.161 68.4674 50.3578C68.4576 50.3578 68.4478 50.3578 68.4379 50.348C68.3985 50.5153 68.3395 50.7318 68.2804 50.8795C68.3001 50.9484 68.2706 51.0172 68.2214 51.0468C68.2509 51.1157 68.182 51.1157 68.2115 51.2042C68.1427 51.2239 68.1919 51.3617 68.1033 51.3814C68.1328 51.4601 68.0934 51.5585 68.0442 51.6078ZM70.4653 46.3719C70.4653 46.362 70.485 46.3522 70.485 46.3424C70.4653 46.3325 70.4358 46.3719 70.4653 46.3719ZM70.5834 46.4211C70.6326 46.4113 70.6523 46.4309 70.672 46.3817C70.6425 46.3817 70.5933 46.3817 70.5834 46.4211ZM70.1602 46.4801C70.1307 46.5195 70.1209 46.4506 70.1602 46.4801ZM69.8158 46.5195C69.8453 46.5687 69.8355 46.49 69.8158 46.5195ZM69.2056 46.6376C69.1957 46.6573 69.1859 46.6475 69.1761 46.6376C69.1564 46.6868 69.2449 46.6573 69.2056 46.6376ZM69.0481 46.6868C69.0579 46.736 69.0579 46.6376 69.0481 46.6868ZM69.0087 46.6967C69.0383 46.6573 69.0284 46.736 69.0087 46.6967ZM68.871 46.7065C68.871 46.736 68.8906 46.736 68.9202 46.736V46.6967C68.8906 46.6967 68.8906 46.7164 68.871 46.7065ZM67.621 47.11C67.5718 47.11 67.5325 47.1199 67.5128 47.1396C67.562 47.1396 67.5915 47.1297 67.621 47.11C67.6506 47.1199 67.6702 47.0805 67.6899 47.11C67.2372 47.297 66.7057 47.3758 66.2825 47.5726C66.9813 47.7005 67.5325 48.0745 67.6112 48.6946C67.6604 48.6847 67.6702 48.793 67.6899 48.8324C67.6801 48.8422 67.6506 48.8422 67.6506 48.8619C67.6899 48.8619 67.6801 48.9209 67.6899 48.9406C67.6899 48.9209 67.6998 48.9111 67.7195 48.9111C67.7785 49.0882 67.8671 49.3146 67.8277 49.4819C67.8179 49.4721 67.808 49.4918 67.8277 49.4819V49.5213C67.8966 49.5902 67.8474 49.7476 67.8868 49.8657C67.8179 49.9445 67.8966 50.0823 67.808 50.1708C67.8179 50.2004 67.8376 50.2201 67.8376 50.2693C67.808 50.2693 67.8179 50.2299 67.808 50.2299C67.7883 50.3382 67.808 50.3972 67.7982 50.5153C67.8179 50.5448 67.8474 50.4661 67.8572 50.4956C67.8572 50.5547 67.8769 50.5744 67.8572 50.6236C67.7982 50.594 67.8376 50.6334 67.808 50.6629C67.808 50.6334 67.808 50.5744 67.7883 50.6137C67.808 50.6334 67.7293 50.7417 67.7883 50.7515C67.7785 50.722 67.8474 50.7121 67.8474 50.7417C67.808 50.7712 67.7293 50.8991 67.7982 50.9877C67.7391 50.9779 67.7588 51.0468 67.7982 51.0468V50.9877H67.808C67.808 50.8991 67.808 50.8499 67.8376 50.8106C67.8474 50.8893 67.8277 50.9484 67.8376 50.9877C68.3001 49.541 68.7036 48.0844 69.2449 46.7262C69.1957 46.7065 69.1761 46.736 69.1072 46.7459C69.0383 46.7656 68.9595 46.7459 68.8906 46.7557C68.8611 46.7656 68.8316 46.8148 68.7824 46.8148C68.5265 46.8541 68.2903 46.9427 68.0541 46.9919C67.9852 47.0018 67.9557 47.0018 67.9065 47.0215C67.8179 47.0608 67.6899 47.0608 67.621 47.11ZM68.6446 46.7754C68.6544 46.7754 68.6643 46.7852 68.684 46.7852V46.7459C68.6643 46.7459 68.6446 46.7557 68.6446 46.7754ZM68.6249 46.7852C68.6347 46.7951 68.6249 46.7754 68.6249 46.7852ZM68.5166 46.8148C68.5363 46.8148 68.5659 46.8246 68.5659 46.8049C68.556 46.8049 68.556 46.7852 68.5462 46.7852C68.5462 46.8049 68.5166 46.7951 68.5166 46.8148ZM68.1131 46.9132C68.123 46.923 68.1033 46.9132 68.1131 46.9132ZM67.2569 46.9722C67.2864 46.9821 67.3356 46.923 67.2963 46.9132C67.3061 46.9624 67.2667 46.9526 67.2569 46.9722ZM67.9557 46.9526C67.9655 46.9624 67.9458 46.9427 67.9557 46.9526ZM67.8572 46.9722H67.8966C67.8966 46.9722 67.8966 46.9526 67.8868 46.9526C67.8769 46.9722 67.8671 46.9722 67.8572 46.9722ZM67.2274 46.9722C67.2274 46.9821 67.2175 46.9722 67.2274 46.9722ZM67.2175 46.9722C67.2077 46.9821 67.1978 46.9722 67.1978 46.9919C67.2077 46.9821 67.2175 46.9919 67.2175 46.9722ZM67.1486 47.0018C67.1683 47.051 67.1683 46.9624 67.1486 47.0018ZM67.7588 46.9919H67.7195C67.6899 47.0411 67.7687 47.0215 67.7588 46.9919ZM67.808 47.0018C67.8179 47.051 67.8179 46.9624 67.808 47.0018ZM67.6702 47.0215C67.6998 46.9919 67.6407 47.0608 67.6702 47.0215ZM66.8829 47.1396C66.9223 47.1297 66.9124 47.1396 66.9419 47.1592C66.9419 47.1297 66.9419 47.1199 66.9223 47.11C66.9223 47.1396 66.8632 47.1002 66.8829 47.1396ZM67.3651 47.11C67.3553 47.11 67.3356 47.11 67.3356 47.1199C67.3455 47.1199 67.3651 47.1199 67.3651 47.11ZM66.8238 47.1691L66.7943 47.1396C66.7746 47.1691 66.8238 47.1986 66.8238 47.1691C66.8534 47.1592 66.8534 47.1789 66.8632 47.1789C66.8632 47.1592 66.8731 47.1592 66.8731 47.1396C66.8632 47.1199 66.8337 47.1396 66.8238 47.1691ZM67.4636 47.1396C67.4931 47.1002 67.4833 47.1789 67.4636 47.1396ZM67.2274 47.1592C67.2667 47.1297 67.2077 47.1986 67.2274 47.1592ZM67.2175 47.2281C67.2963 47.2084 67.3848 47.1986 67.4537 47.1592C67.3455 47.1592 67.2667 47.1789 67.2175 47.2281ZM66.6861 47.1888C66.6467 47.1888 66.6073 47.2183 66.627 47.238C66.627 47.2084 66.6959 47.2478 66.6959 47.2084C66.6861 47.2084 66.6861 47.1986 66.6861 47.1888C66.7057 47.1986 66.7057 47.2183 66.7451 47.2084C66.7353 47.1986 66.7451 47.1986 66.7451 47.1789C66.7254 47.1691 66.6959 47.1592 66.6861 47.1888ZM66.7746 47.1691C66.7648 47.1691 66.755 47.1691 66.755 47.1789C66.7648 47.1789 66.7746 47.1789 66.7746 47.1691ZM66.066 47.238C66.1251 47.238 65.9873 47.2478 66.066 47.238ZM67.1585 47.238C67.188 47.2084 67.1782 47.2773 67.1585 47.238ZM67.0994 47.2675C67.0994 47.2478 67.0896 47.2478 67.0896 47.2675C67.0994 47.2675 67.0994 47.2773 67.0994 47.2675ZM67.0108 47.2872C67.0305 47.2872 67.0699 47.297 67.0502 47.2675H67.0108V47.2872ZM67.4636 48.7635C67.4734 48.7241 67.4537 48.8324 67.4636 48.7635ZM67.4636 48.8225C67.4734 48.8225 67.4734 48.8324 67.4833 48.8324C67.4833 48.8225 67.4833 48.793 67.4636 48.8028V48.8225ZM67.4833 48.8619H67.5128V48.852H67.4833V48.8619ZM68.6151 48.9406C68.6249 48.9505 68.6052 48.9406 68.6151 48.9406ZM68.6151 48.98C68.6052 48.98 68.5954 48.98 68.5954 48.9898C68.5954 48.9898 68.6151 48.9898 68.6151 48.98ZM68.556 49.0193C68.5659 49.0292 68.5462 49.0095 68.556 49.0193ZM67.7588 51.47C67.7883 51.5093 67.7687 51.5585 67.7588 51.5979C67.7293 51.5979 67.6998 51.5979 67.7293 51.6274C67.7096 51.6373 67.7588 51.6274 67.7785 51.657C67.7982 51.5782 67.8474 51.5093 67.8376 51.4208C67.9261 51.3125 67.9261 51.096 67.995 50.9877C68.0639 50.7318 68.1623 50.3874 68.2804 50.102C68.2804 49.9937 68.3297 49.8362 68.3887 49.7378C68.3887 49.7083 68.3887 49.6886 68.3789 49.6886C68.4478 49.4918 68.5363 49.2457 68.5462 49.0292C68.2804 49.7673 68.0246 50.722 67.7588 51.47ZM67.7391 49.0882C67.749 49.1276 67.749 49.039 67.7391 49.0882ZM68.7627 49.1178C68.7725 49.1571 68.7725 49.0784 68.7627 49.1178ZM67.749 49.1375C67.749 49.1276 67.7293 49.1276 67.7293 49.1375C67.7391 49.1375 67.749 49.1571 67.749 49.1375ZM67.749 49.1768C67.7588 49.1276 67.7391 49.2359 67.749 49.1768ZM68.7135 49.2851C68.7529 49.2851 68.6938 49.3441 68.7135 49.2851ZM67.6998 49.4524C67.6899 49.413 67.7096 49.3343 67.6801 49.3146C67.6506 49.3638 67.6801 49.4327 67.6998 49.4524ZM68.6446 49.5114C68.6741 49.5311 68.6741 49.4524 68.6544 49.4524C68.6446 49.4622 68.6347 49.4819 68.6446 49.5114ZM67.6998 49.5606C67.7096 49.5606 67.6998 49.5508 67.6998 49.5606ZM68.6052 49.6886C68.5954 49.6591 68.6347 49.6197 68.6151 49.5902C68.6151 49.6295 68.5659 49.6689 68.6052 49.6886ZM67.7293 49.7772C67.7391 49.7378 67.7293 49.6886 67.6998 49.6788C67.7195 49.7181 67.6702 49.7673 67.7293 49.7772ZM68.5659 49.7969C68.5659 49.787 68.5659 49.7673 68.5954 49.7772C68.5855 49.7575 68.6052 49.7083 68.5757 49.7181C68.5855 49.7378 68.5363 49.7673 68.5659 49.7969ZM67.8376 49.8559C67.8277 49.8165 67.8474 49.8067 67.8572 49.7772C67.8474 49.7673 67.8376 49.7575 67.808 49.7575C67.8376 49.8067 67.7785 49.8362 67.8376 49.8559ZM67.7293 50.0823C67.7096 50.0035 67.7293 49.8953 67.6998 49.8067C67.6998 49.8657 67.6702 50.0331 67.7293 50.0823ZM68.556 49.8067C68.556 49.8264 68.5363 49.8165 68.556 49.8067ZM68.5954 49.8067C68.5954 49.8165 68.5855 49.8067 68.5954 49.8067ZM68.5363 49.8657C68.5462 49.915 68.5462 49.8264 68.5363 49.8657ZM68.5166 50.0035C68.5166 49.974 68.5462 49.9248 68.5166 49.9051C68.5068 49.9248 68.497 49.9839 68.5166 50.0035ZM68.4478 50.1905C68.4674 50.1512 68.5166 50.0724 68.4871 50.0232C68.4674 50.0724 68.4182 50.1512 68.4478 50.1905ZM67.7195 50.4464C67.6998 50.3283 67.7588 50.1708 67.6899 50.1118C67.6998 50.2594 67.6604 50.3874 67.7195 50.4464ZM68.4478 50.2102C68.4379 50.2102 68.4281 50.2102 68.4281 50.2201C68.4281 50.2201 68.4478 50.2201 68.4478 50.2102ZM68.2804 50.7417C68.3592 50.6728 68.31 50.4366 68.4084 50.3972C68.3789 50.3283 68.4478 50.2693 68.4084 50.2299C68.369 50.3972 68.2903 50.5645 68.2804 50.7417ZM68.2804 50.3972C68.2706 50.3972 68.2509 50.3972 68.2509 50.4071C68.2608 50.4071 68.2804 50.4071 68.2804 50.3972ZM67.6899 50.9877C67.6702 50.8499 67.7391 50.5842 67.6899 50.4563C67.6998 50.6334 67.6014 50.8302 67.6899 50.9877ZM68.2312 50.8991C68.2509 50.8893 68.2804 50.7909 68.2411 50.7909C68.2608 50.8499 68.1919 50.8696 68.2312 50.8991ZM68.2115 50.9779C68.2115 50.968 68.2411 50.9287 68.2115 50.9287C68.2017 50.9385 68.182 50.968 68.2115 50.9779ZM68.0639 50.9877C68.0934 50.9976 68.1131 50.9582 68.0836 50.9484C68.0836 50.968 68.0738 50.9779 68.0639 50.9877ZM67.5915 51.3322C67.6112 51.5684 67.5029 51.716 67.5423 51.9325C67.5817 51.8144 67.5915 51.657 67.5915 51.5192C67.6407 51.3519 67.6899 51.1452 67.6506 51.0074C67.621 51.1157 67.6407 51.2436 67.5915 51.3322ZM68.1427 51.1452C68.182 51.1353 68.1919 51.0271 68.182 50.9976C68.1722 51.0566 68.1427 51.0861 68.1427 51.1452ZM67.7883 51.0665C67.7982 51.1058 67.7982 51.0271 67.7883 51.0665ZM67.7588 51.1157C67.7391 51.1452 67.7195 51.2141 67.7391 51.2239C67.7785 51.2239 67.808 51.155 67.7883 51.1058C67.7883 51.1353 67.749 51.0763 67.749 51.1058C67.7588 51.1058 67.7687 51.1058 67.7588 51.1157ZM68.1131 51.2633C68.1427 51.2633 68.1525 51.1846 68.1328 51.1747C68.123 51.2042 68.1033 51.2239 68.1131 51.2633ZM68.0147 51.2239C68.0049 51.2338 67.995 51.2239 67.995 51.2436C67.995 51.2338 68.0147 51.2436 68.0147 51.2239ZM67.7391 51.2731C67.7687 51.2436 67.7293 51.3716 67.7391 51.2731ZM68.0541 51.4208C68.0934 51.4208 68.123 51.3027 68.0836 51.3027C68.0639 51.342 68.0738 51.3716 68.0541 51.4208ZM68.0049 51.5881C68.0344 51.5881 68.0442 51.529 68.0246 51.5192C68.0147 51.5389 68.0147 51.5684 68.0049 51.5881ZM67.9655 51.6963C68.0049 51.716 67.995 51.6471 67.9753 51.6471C67.9852 51.6766 67.9557 51.6766 67.9655 51.6963ZM67.749 51.6963C67.749 51.7062 67.7293 51.7062 67.749 51.6963C67.7982 51.6963 67.749 51.6865 67.7785 51.6668C67.749 51.6668 67.749 51.6865 67.749 51.6963ZM67.8671 51.6963H67.8474C67.8572 51.6963 67.8671 51.716 67.8671 51.6963ZM67.9557 51.7948C67.9458 51.7652 67.9852 51.7455 67.9557 51.7357C67.9655 51.7554 67.9261 51.7849 67.9557 51.7948ZM67.9261 51.8538C67.9261 51.8144 67.9163 51.9227 67.9261 51.8538ZM67.4537 52.3065C67.4636 52.1983 67.5718 52.0408 67.5128 51.9621C67.4931 52.09 67.4242 52.1884 67.4537 52.3065ZM67.8868 52.0211C67.8868 52.0113 67.9163 51.9621 67.8671 51.9719C67.8769 51.9916 67.8671 52.0113 67.8868 52.0211ZM67.808 52.2081C67.808 52.1786 67.8572 52.1589 67.8277 52.1294C67.8179 52.1491 67.7883 52.1884 67.808 52.2081ZM67.7982 52.2376C67.808 52.2475 67.7883 52.2278 67.7982 52.2376ZM67.7982 52.3065C67.7982 52.2868 67.7982 52.277 67.7785 52.2672C67.7687 52.2868 67.7785 52.3065 67.7982 52.3065ZM67.7883 52.4049C67.7982 52.3853 67.7883 52.3262 67.749 52.3164C67.7588 52.3459 67.749 52.4049 67.7883 52.4049ZM67.6702 52.5919C67.6899 52.6412 67.6309 52.6805 67.6506 52.7002C67.6899 52.6412 67.7785 52.5034 67.7391 52.4246C67.7096 52.4738 67.7096 52.6116 67.6702 52.5919ZM67.6112 52.8478C67.6407 52.838 67.6506 52.7593 67.6309 52.7396C67.6309 52.7789 67.6112 52.7986 67.6112 52.8478ZM67.562 53.0644C67.5718 53.1136 67.5718 53.0151 67.562 53.0644ZM67.2077 53.2809C67.2175 53.3301 67.2175 53.2317 67.2077 53.2809ZM69.8059 46.3128C69.8059 46.303 69.8158 46.303 69.8158 46.303C69.8158 46.3128 69.8158 46.3128 69.8059 46.3128ZM69.7567 46.3227C69.7567 46.3128 69.7666 46.3128 69.7764 46.3128C69.7764 46.3227 69.7666 46.3227 69.7567 46.3227ZM69.3138 46.3424C69.3434 46.3128 69.2843 46.3817 69.3138 46.3424ZM70.1799 46.3522C70.1799 46.3424 70.1898 46.3424 70.1996 46.3424C70.1996 46.3522 70.1898 46.3522 70.1799 46.3522ZM70.4063 46.3719C70.3866 46.3719 70.3768 46.362 70.3768 46.3424C70.3964 46.3325 70.4063 46.3522 70.4063 46.3719ZM69.1662 46.3522C69.1761 46.3522 69.1761 46.362 69.1957 46.362V46.3817C69.1662 46.3817 69.1268 46.3916 69.0973 46.3916C69.0875 46.3522 69.1564 46.3817 69.1662 46.3522ZM70.2488 46.3719C70.2587 46.3817 70.239 46.3719 70.2488 46.3719ZM70.1504 46.3916C70.1406 46.4014 70.1406 46.4113 70.1406 46.4211C70.111 46.3817 70.0618 46.4801 70.0618 46.4014C70.1012 46.3916 70.1012 46.3817 70.1504 46.3916ZM71.3511 46.3817C71.3511 46.4113 71.2527 46.4506 71.2625 46.3916C71.2822 46.3817 71.3314 46.3817 71.3511 46.3817ZM71.3708 46.3916C71.3708 46.3817 71.3905 46.3916 71.3905 46.3817C71.3806 46.3817 71.3708 46.3817 71.3708 46.3916ZM69.3434 46.4014C69.3335 46.4408 69.3138 46.4408 69.2843 46.4113C69.2843 46.3817 69.3335 46.3817 69.3434 46.4014ZM70.1701 46.4014C70.1799 46.3916 70.1701 46.3817 70.1701 46.4014ZM70.298 46.3916C70.3177 46.3916 70.3079 46.4211 70.3079 46.4309C70.2882 46.4309 70.2882 46.4014 70.298 46.3916ZM68.9891 46.4014C69.0087 46.3916 69.0087 46.4113 69.0087 46.4211C68.9989 46.4211 68.9989 46.4309 68.9989 46.4309C68.9891 46.4309 68.9891 46.4113 68.9891 46.4014ZM70.1701 46.4014C70.1701 46.4113 70.1602 46.4113 70.1701 46.4014ZM68.8513 46.4113C68.871 46.4113 68.8611 46.4408 68.871 46.4605C68.8217 46.4506 68.8119 46.49 68.7627 46.4801C68.7529 46.4014 68.8414 46.4801 68.8513 46.4113ZM68.93 46.4113H68.9497V46.4309H68.93V46.4113ZM69.1662 46.4998C69.1761 46.4506 69.1268 46.4605 69.1564 46.4113C69.1957 46.4408 69.1761 46.4113 69.2253 46.4113C69.2351 46.4506 69.2154 46.4506 69.2253 46.49C69.1859 46.4801 69.1957 46.49 69.1662 46.4998ZM69.1761 46.4703H69.2056V46.4506H69.1761V46.4703ZM69.9634 46.4211C69.9634 46.4113 69.9732 46.4113 69.9831 46.4113C69.9831 46.4211 69.9732 46.4211 69.9634 46.4211ZM73.0636 46.4211C73.0734 46.4703 73.0734 46.3817 73.0636 46.4211ZM69.117 46.4703C69.1072 46.4703 69.1072 46.4605 69.1072 46.4506C69.0973 46.4506 69.1072 46.4801 69.0678 46.4703C69.0481 46.4113 69.1761 46.4309 69.117 46.4703ZM69.9339 46.4309H69.9634V46.4605H69.9339V46.4309ZM70.2488 46.4506C70.2488 46.4309 70.2685 46.4309 70.2685 46.4506C70.2685 46.4605 70.2587 46.4506 70.2488 46.4506ZM69.0284 46.4605C69.0383 46.4998 69.0383 46.4113 69.0284 46.4605ZM68.9595 46.4605C68.9891 46.4703 68.9497 46.4998 68.93 46.49C68.9103 46.4506 68.9694 46.49 68.9595 46.4605ZM68.9891 46.4703C68.9989 46.5097 68.9989 46.4211 68.9891 46.4703ZM69.9142 46.4703C69.924 46.4801 69.9043 46.4703 69.9142 46.4703ZM68.7135 46.4801C68.7135 46.4998 68.6544 46.4998 68.6741 46.4703H68.7036C68.7036 46.4801 68.7036 46.4801 68.7135 46.4801ZM68.7135 46.4801C68.7725 46.4998 68.7332 46.4506 68.7135 46.4801ZM68.6544 46.49C68.6544 46.5097 68.6151 46.5097 68.6052 46.4998C68.6249 46.4801 68.6347 46.49 68.6544 46.49ZM68.5757 46.49C68.6249 46.5195 68.5462 46.5195 68.5757 46.49ZM68.8316 46.49C68.8414 46.5392 68.7725 46.4998 68.7627 46.5294C68.743 46.5097 68.7922 46.49 68.8316 46.49ZM69.0973 46.4998C69.1268 46.4801 69.0678 46.5392 69.0973 46.4998ZM68.556 46.4998C68.5166 46.5294 68.4576 46.5392 68.4084 46.5687V46.5097C68.4871 46.4998 68.5166 46.5097 68.556 46.4998ZM69.0481 46.5392C69.0087 46.5589 69.0383 46.5097 68.9989 46.5195C68.9989 46.49 69.0579 46.4998 69.0481 46.5392ZM69.1662 46.4998C69.1662 46.5097 69.1465 46.4998 69.1662 46.4998ZM68.6544 46.5097C68.6643 46.5097 68.684 46.5294 68.7036 46.5294C68.6938 46.5589 68.6347 46.549 68.6544 46.5097ZM72.5912 46.5195C72.6109 46.5195 72.6109 46.5097 72.6404 46.5097C72.6404 46.5392 72.5912 46.5294 72.5912 46.5589C72.5715 46.549 72.5715 46.5392 72.5518 46.5294C72.5518 46.5195 72.5912 46.4998 72.5912 46.5195ZM69.2056 46.5294C69.2154 46.5392 69.1957 46.5294 69.2056 46.5294ZM72.3648 46.5884C72.3943 46.5392 72.4632 46.549 72.4928 46.5392C72.4928 46.5884 72.414 46.549 72.4239 46.5983C72.4042 46.6081 72.3747 46.6081 72.3648 46.5884ZM72.5026 46.5294H72.5321V46.5589H72.5026V46.5294ZM68.8906 46.5589C68.9202 46.5983 68.9103 46.5195 68.8906 46.5589ZM68.9398 46.5392C68.9694 46.549 68.9891 46.6081 68.9398 46.5983C68.9202 46.5786 68.9497 46.5786 68.9398 46.5392ZM68.9891 46.5687C68.9989 46.5786 68.9891 46.5589 68.9891 46.5687ZM68.2509 46.5786C68.2608 46.5294 68.2411 46.6376 68.2509 46.5786ZM68.8217 46.5786C68.8316 46.5884 68.8119 46.5786 68.8217 46.5786ZM68.1722 46.5983C68.182 46.6376 68.182 46.5589 68.1722 46.5983ZM68.8414 46.5884C68.8611 46.6179 68.7922 46.6179 68.8316 46.6179C68.8316 46.6278 68.8217 46.6278 68.8217 46.6278H68.7922V46.5983C68.8021 46.5884 68.8217 46.5884 68.8414 46.5884ZM69.0678 46.5884C69.1072 46.5687 69.1072 46.6376 69.0678 46.6179V46.5884ZM72.3648 46.5884C72.3451 46.6179 72.3353 46.6081 72.2861 46.6179C72.2861 46.5786 72.3254 46.5884 72.3648 46.5884ZM68.3887 46.6179C68.3985 46.6475 68.3985 46.5687 68.3887 46.6179ZM68.7332 46.6179C68.7332 46.6179 68.7529 46.6081 68.7627 46.6179C68.7725 46.6179 68.7233 46.6376 68.7332 46.6179ZM68.9497 46.6179C68.9694 46.6278 68.9792 46.6179 68.9989 46.6179C69.0087 46.6376 68.9694 46.6278 68.9497 46.6376V46.6179ZM72.1975 46.6278C72.1975 46.6179 72.2073 46.6081 72.227 46.6179C72.227 46.6179 72.2172 46.6278 72.1975 46.6278ZM72.2467 46.6179C72.2467 46.6278 72.2369 46.6179 72.2467 46.6179ZM72.168 46.6278C72.1778 46.677 72.1778 46.5884 72.168 46.6278ZM68.5068 46.6278H68.5166V46.6475H68.5068V46.6278ZM68.6249 46.6376C68.6347 46.6868 68.6347 46.5983 68.6249 46.6376ZM68.8414 46.6376C68.8611 46.6868 68.8611 46.5983 68.8414 46.6376ZM68.9202 46.6376C68.9202 46.6475 68.9103 46.6376 68.9202 46.6376ZM72.1188 46.6376C72.1188 46.6278 72.1385 46.6278 72.1483 46.6278C72.1483 46.6376 72.1286 46.6376 72.1188 46.6376ZM72.1975 46.6278C72.1975 46.6376 72.1778 46.6376 72.1975 46.6278ZM68.1722 46.6376C68.1919 46.6376 68.2115 46.6376 68.2115 46.6671H68.1722V46.6376ZM68.6052 46.6376C68.5954 46.6671 68.5659 46.677 68.5166 46.677C68.5363 46.6475 68.5757 46.6475 68.6052 46.6376ZM72.0794 46.6475C72.0794 46.6573 72.0696 46.6475 72.0794 46.6475ZM67.9163 46.6475H67.936V46.677H67.9163V46.6475ZM68.1328 46.6475C68.1427 46.6868 67.9655 46.7557 67.9557 46.6967C68.0442 46.6868 68.0738 46.677 68.1328 46.6475ZM72.0105 46.6475H72.04C72.04 46.677 72.0204 46.677 72.0007 46.677C72.0007 46.6671 72.0105 46.6671 72.0105 46.6475ZM73.6049 46.6868C73.6147 46.6868 73.6147 46.6868 73.6147 46.677C73.7033 46.677 73.7132 46.6376 73.7919 46.6671C73.7722 46.736 73.6738 46.6671 73.6639 46.736C73.6344 46.7065 73.6147 46.7164 73.6049 46.6868ZM68.4674 46.677C68.497 46.6278 68.4871 46.7164 68.4674 46.677ZM67.8572 46.6868C67.8769 46.677 67.8572 46.677 67.8572 46.6868ZM67.8572 46.6868C67.8572 46.7065 67.8376 46.7065 67.8474 46.736C67.8966 46.736 67.9163 46.6967 67.9458 46.7262C67.9261 46.7459 67.8572 46.7459 67.808 46.7754C67.7883 46.7459 67.8572 46.736 67.808 46.7262C67.808 46.6967 67.8277 46.6868 67.8572 46.6868ZM68.2804 46.6868C68.2706 46.7065 68.2608 46.7065 68.2411 46.7065C68.2509 46.6967 68.2608 46.6868 68.2804 46.6868ZM68.2903 46.6868C68.31 46.6967 68.3198 46.7065 68.3198 46.7262C68.3001 46.7164 68.2903 46.7065 68.2903 46.6868ZM68.5363 46.6967C68.5659 46.677 68.5659 46.7459 68.5363 46.736V46.6967ZM68.0738 46.7262C68.0934 46.736 68.1033 46.7557 68.1131 46.7852C68.0934 46.7852 68.0934 46.7852 68.0836 46.7951C68.0639 46.7656 68.0639 46.7459 68.0738 46.7262ZM68.2312 46.736C68.2115 46.7557 68.182 46.7557 68.1623 46.7754C68.1623 46.7459 68.182 46.736 68.2312 46.736ZM68.4478 46.736C68.4576 46.736 68.4674 46.736 68.4674 46.7557C68.4478 46.7656 68.4478 46.7459 68.4478 46.736ZM67.749 46.736C67.7687 46.7459 67.7982 46.7459 67.7883 46.7852H67.749V46.736ZM68.3789 46.7459C68.3789 46.7557 68.369 46.7459 68.3789 46.7459ZM67.6506 46.8837C67.6604 46.864 67.6702 46.8541 67.6702 46.8443C67.6604 46.8246 67.6407 46.8246 67.6309 46.8148C67.6112 46.8148 67.6112 46.8541 67.6309 46.8541C67.621 46.8837 67.5718 46.7656 67.562 46.8443C67.5128 46.8148 67.5718 46.8049 67.5718 46.7852C67.6014 46.8246 67.6506 46.7951 67.6506 46.7459C67.6899 46.7754 67.6998 46.8541 67.6506 46.8837ZM67.6899 46.7754C67.7096 46.8148 67.6998 46.736 67.6899 46.7754ZM68.1919 46.7852C68.2017 46.7656 68.2214 46.7754 68.2214 46.7852C68.2115 46.8049 68.2115 46.7852 68.1919 46.7852ZM68.2411 46.7852C68.2509 46.7951 68.2411 46.7754 68.2411 46.7852ZM68.0147 46.7852C68.0049 46.8148 67.995 46.8345 67.9655 46.8443C67.9557 46.8345 67.9557 46.8148 67.9557 46.7951C67.9852 46.8049 67.9852 46.7754 68.0147 46.7852ZM67.9261 46.8049C67.936 46.8148 67.9458 46.8246 67.9458 46.8541C67.9261 46.8443 67.9065 46.8246 67.9261 46.8049ZM67.8868 46.8345C67.9163 46.864 67.8966 46.7951 67.8868 46.8345ZM67.6899 46.8443C67.7195 46.8148 67.7293 46.8837 67.7785 46.8541C67.7588 46.8738 67.7293 46.8837 67.6899 46.8837C67.6899 46.8541 67.7293 46.8541 67.6899 46.8443ZM68.7922 46.8443C68.7922 46.8541 68.7529 46.8443 68.7529 46.864C68.7233 46.8541 68.7627 46.8345 68.7922 46.8443ZM68.0049 46.8541C67.995 46.8837 67.9753 46.8837 67.9557 46.864C67.9557 46.8541 67.9852 46.8541 68.0049 46.8541ZM67.8966 46.8837C67.9065 46.8837 67.8868 46.8738 67.8966 46.8837ZM67.7588 46.9033C67.7588 46.8837 67.749 46.9033 67.7588 46.9033ZM68.5659 46.8935C68.5659 46.9132 68.5363 46.8935 68.5363 46.9132C68.5068 46.9033 68.5462 46.8837 68.5659 46.8935ZM66.9616 46.9033C66.9715 46.9033 66.9813 46.9132 66.9813 46.9132C66.9912 46.9427 66.9419 46.9329 66.9616 46.9033ZM67.7588 46.9033C67.7982 46.9033 67.749 46.9526 67.7588 46.9033ZM68.497 46.9132C68.5068 46.923 68.4871 46.9132 68.497 46.9132ZM68.4576 46.9132C68.4478 46.9329 68.4379 46.9329 68.4084 46.9427C68.3985 46.9033 68.4379 46.923 68.4576 46.9132ZM68.3395 46.9526C68.3395 46.9427 68.3493 46.9427 68.3592 46.9427C68.3592 46.9526 68.3493 46.9526 68.3395 46.9526ZM66.8238 46.9624C66.8238 46.9526 66.8435 46.9526 66.8534 46.9526C66.8435 46.9624 66.8337 46.9624 66.8238 46.9624ZM67.5718 46.9722C67.5718 46.9624 67.5817 46.9624 67.5817 46.9526H67.6112V46.9919C67.5915 46.9821 67.5817 46.9722 67.5718 46.9722ZM68.2804 46.9722C68.2804 46.9624 68.2903 46.9624 68.3001 46.9624C68.3001 46.9722 68.2804 46.9722 68.2804 46.9722ZM68.1722 46.9722C68.2115 47.0116 68.123 47.0018 68.1722 46.9722ZM66.6467 47.0116C66.6565 47.0215 66.6369 47.0116 66.6467 47.0116ZM68.1033 47.0116C68.1033 47.0018 68.123 47.0018 68.1328 47.0018C68.1328 47.0116 68.1131 47.0116 68.1033 47.0116ZM66.6172 47.0608C66.5975 47.051 66.5483 47.0707 66.5581 47.0313C66.5778 47.0411 66.5876 47.051 66.5876 47.0215C66.6073 47.0215 66.627 47.0313 66.6172 47.0608ZM67.3455 47.0215C67.3651 47.0313 67.3455 47.0411 67.3455 47.0608C67.3356 47.051 67.3455 47.0411 67.3455 47.0215ZM67.995 47.0313C67.9065 47.0805 67.808 47.1002 67.6899 47.11C67.7785 47.0707 67.8966 47.0608 67.995 47.0313ZM66.5187 47.0608C66.5286 47.051 66.5089 47.0411 66.5187 47.0608ZM67.2667 47.051C67.3061 47.0411 67.2963 47.0608 67.3258 47.0608C67.3258 47.0707 67.2766 47.0903 67.2667 47.0707V47.051ZM66.5187 47.0608C66.5286 47.1002 66.4695 47.051 66.5187 47.0608ZM67.2175 47.0903C67.247 47.0707 67.188 47.1199 67.2175 47.0903ZM65.7216 47.8088C65.7314 47.8088 65.7117 47.799 65.7216 47.8088ZM65.6723 47.8285C65.6625 47.8482 65.6527 47.8482 65.633 47.8482C65.633 47.8285 65.6527 47.8285 65.6723 47.8285ZM67.6702 48.7044C67.6702 48.7143 67.6604 48.7044 67.6702 48.7044ZM67.5718 49.4524C67.621 49.4721 67.5817 49.5803 67.5915 49.6492C67.5718 49.5902 67.5521 49.5016 67.5718 49.4524ZM67.5817 49.6984C67.6112 49.6788 67.5817 49.7969 67.5817 49.6984ZM67.5817 49.8264C67.5915 49.8264 67.5817 49.8165 67.5817 49.8264ZM67.8277 50.2791C67.8474 50.3086 67.8966 50.4366 67.808 50.4267C67.8572 50.3874 67.7982 50.3382 67.8277 50.2791Z" fill="url(#paint2_linear_214_469)"/>
<defs>
<linearGradient id="paint0_linear_214_469" x1="9" y1="14" x2="50.9547" y2="14" gradientUnits="userSpaceOnUse">
<stop stop-color="#905E26"/>
<stop offset="0.52" stop-color="#F5EC9B"/>
<stop offset="1" stop-color="#905E26"/>
</linearGradient>
<linearGradient id="paint1_linear_214_469" x1="61" y1="23" x2="131.799" y2="23" gradientUnits="userSpaceOnUse">
<stop stop-color="#905E26"/>
<stop offset="0.5" stop-color="#F5EC9B"/>
<stop offset="1" stop-color="#905E26"/>
</linearGradient>
<linearGradient id="paint2_linear_214_469" x1="61" y1="44" x2="74.0526" y2="44" gradientUnits="userSpaceOnUse">
<stop stop-color="#905E26"/>
<stop offset="0.5" stop-color="#F5EC9B"/>
<stop offset="1" stop-color="#905E26"/>
</linearGradient>
</defs>
</svg>
