<svg width="44" height="44" viewBox="0 0 44 44" fill="none" xmlns="http://www.w3.org/2000/svg">
<rect width="44" height="44" rx="22" fill="#222222"/>
<path d="M17.988 23.6058C17.9119 23.6058 17.8349 23.5849 17.7683 23.5408C17.6264 23.4472 17.5582 23.2738 17.5991 23.1088L18.3112 20.2315H15.5495C15.3603 20.2315 15.1959 20.1 15.1574 19.914L12.7686 8.54179C12.7454 8.43033 12.7694 8.31486 12.8368 8.22345C12.9034 8.13204 13.0052 8.0727 13.1183 8.06047L30.7763 6.16263C30.898 6.1482 31.0209 6.19391 31.1067 6.28131C31.1925 6.36872 31.2332 6.49301 31.2163 6.61409L29.6455 18.2795C29.6182 18.4784 29.4492 18.6276 29.2479 18.6276H24.6396L18.2326 23.5232C18.1596 23.5785 18.0738 23.6058 17.988 23.6058Z" fill="url(#paint0_linear_32_180)"/>
<path d="M7.96938 31.2018C7.96938 31.3536 7.9954 31.4805 8.04745 31.5824C8.0995 31.6843 8.22095 31.7353 8.41179 31.7353C8.49854 31.7353 8.58095 31.7309 8.65903 31.7223V32.542C8.50288 32.5594 8.35758 32.5681 8.22312 32.5681C7.94552 32.5681 7.72106 32.5453 7.54973 32.4997C7.3784 32.4542 7.24503 32.3664 7.1496 32.2362C7.05418 32.1061 7.00647 31.9196 7.00647 31.6767V29.6923H6.57056V28.84H7.00647V27.8836H7.96938V28.84H8.68505V29.6923H7.96938V31.2018ZM12.1463 32.1191C12.0639 32.2319 11.9219 32.3328 11.7202 32.4217C11.5185 32.5106 11.2983 32.555 11.0598 32.555C10.6911 32.555 10.3712 32.4726 10.1001 32.3078C9.82905 32.143 9.62193 31.9185 9.4788 31.6344C9.33566 31.3503 9.2641 31.0348 9.2641 30.6878C9.2641 30.3408 9.33566 30.0252 9.4788 29.7411C9.62193 29.457 9.82905 29.2326 10.1001 29.0678C10.3712 28.9029 10.6911 28.8205 11.0598 28.8205C11.307 28.8205 11.525 28.8628 11.7137 28.9474C11.9023 29.032 12.0466 29.1393 12.1463 29.2694V28.8986H13.1092V32.477H12.1463V32.1191ZM11.9186 29.9558C11.7408 29.7672 11.5022 29.6728 11.2029 29.6728C10.8993 29.6728 10.6597 29.7672 10.484 29.9558C10.3083 30.1445 10.2205 30.3885 10.2205 30.6878C10.2205 30.9784 10.3105 31.2191 10.4905 31.41C10.6705 31.6008 10.908 31.6962 11.2029 31.6962C11.5065 31.6962 11.7462 31.6062 11.9219 31.4262C12.0975 31.2462 12.1854 31.0001 12.1854 30.6878C12.1854 30.3885 12.0964 30.1445 11.9186 29.9558ZM14.0721 32.477V27.5583H15.035V29.2694C15.1348 29.1393 15.279 29.032 15.4677 28.9474C15.6564 28.8628 15.8743 28.8205 16.1216 28.8205C16.4902 28.8205 16.8101 28.9029 17.0812 29.0678C17.3523 29.2326 17.5594 29.457 17.7026 29.7411C17.8457 30.0252 17.9173 30.3408 17.9173 30.6878C17.9173 31.0348 17.8457 31.3503 17.7026 31.6344C17.5594 31.9185 17.3523 32.143 17.0812 32.3078C16.8101 32.4726 16.4902 32.555 16.1216 32.555C15.883 32.555 15.6629 32.5106 15.4612 32.4217C15.2595 32.3328 15.1175 32.2319 15.035 32.1191V32.477H14.0721ZM15.2595 31.4262C15.4352 31.6062 15.6748 31.6962 15.9784 31.6962C16.2734 31.6962 16.5108 31.6008 16.6909 31.41C16.8709 31.2191 16.9609 30.9784 16.9609 30.6878C16.9609 30.3885 16.873 30.1445 16.6974 29.9558C16.5217 29.7672 16.282 29.6728 15.9784 29.6728C15.6791 29.6728 15.4406 29.7672 15.2628 29.9558C15.0849 30.1445 14.996 30.3885 14.996 30.6878C14.996 31.0001 15.0838 31.2462 15.2595 31.4262ZM18.7175 27.5583H19.6934V32.477H18.7175V27.5583ZM21.5379 32.3924C21.2408 32.2753 20.986 32.0768 20.7735 31.7971C20.5609 31.5173 20.4547 31.1519 20.4547 30.7008C20.4547 30.2497 20.562 29.8854 20.7767 29.6078C20.9914 29.3302 21.2484 29.1328 21.5477 29.0157C21.847 28.8986 22.1311 28.84 22.4 28.84C22.7123 28.84 23.0094 28.9094 23.2913 29.0482C23.5733 29.187 23.8042 29.3909 23.9842 29.6598C24.1642 29.9287 24.2586 30.2475 24.2672 30.6162C24.2672 30.729 24.2651 30.8266 24.2607 30.909C24.2564 30.9914 24.2521 31.0435 24.2477 31.0651H21.4241C21.4761 31.3167 21.6062 31.488 21.8144 31.5791C22.0226 31.6702 22.2178 31.7158 22.4 31.7158C22.6342 31.7158 22.8207 31.6735 22.9595 31.5889C23.0983 31.5043 23.2176 31.4078 23.3174 31.2994L24.0721 31.7353C23.6643 32.2905 23.107 32.5681 22.4 32.5681C22.1224 32.5681 21.835 32.5095 21.5379 32.3924ZM21.7364 29.8908C21.5672 30.0231 21.4718 30.1846 21.4501 30.3755H23.2393C23.2263 30.2627 23.1829 30.1543 23.1092 30.0502C23.0354 29.9461 22.9367 29.8604 22.8131 29.7932C22.6895 29.726 22.5496 29.6923 22.3935 29.6923C22.1246 29.6923 21.9055 29.7585 21.7364 29.8908ZM26.2581 31.2018C26.2581 31.3536 26.2842 31.4805 26.3362 31.5824C26.3882 31.6843 26.5097 31.7353 26.7005 31.7353C26.7873 31.7353 26.8697 31.7309 26.9478 31.7223V32.542C26.7916 32.5594 26.6463 32.5681 26.5119 32.5681C26.2343 32.5681 26.0098 32.5453 25.8385 32.4997C25.6672 32.4542 25.5338 32.3664 25.4384 32.2362C25.3429 32.1061 25.2952 31.9196 25.2952 31.6767V29.6923H24.8593V28.84H25.2952V27.8836H26.2581V28.84H26.9738V29.6923H26.2581V31.2018ZM30.4351 32.1191C30.3527 32.2319 30.2106 32.3328 30.0089 32.4217C29.8072 32.5106 29.5871 32.555 29.3485 32.555C28.9799 32.555 28.66 32.4726 28.3889 32.3078C28.1178 32.143 27.9107 31.9185 27.7676 31.6344C27.6244 31.3503 27.5528 31.0348 27.5528 30.6878C27.5528 30.3408 27.6244 30.0252 27.7676 29.7411C27.9107 29.457 28.1178 29.2326 28.3889 29.0678C28.66 28.9029 28.9799 28.8205 29.3485 28.8205C29.5958 28.8205 29.8137 28.8628 30.0024 28.9474C30.1911 29.032 30.3353 29.1393 30.4351 29.2694V28.8986H31.398V32.477H30.4351V32.1191ZM30.2074 29.9558C30.0295 29.7672 29.791 29.6728 29.4917 29.6728C29.1881 29.6728 28.9484 29.7672 28.7727 29.9558C28.5971 30.1445 28.5093 30.3885 28.5093 30.6878C28.5093 30.9784 28.5993 31.2191 28.7793 31.41C28.9593 31.6008 29.1967 31.6962 29.4917 31.6962C29.7953 31.6962 30.0349 31.6062 30.2106 31.4262C30.3863 31.2462 30.4741 31.0001 30.4741 30.6878C30.4741 30.3885 30.3852 30.1445 30.2074 29.9558ZM32.3674 27.5583H33.3433V32.477H32.3674V27.5583ZM35.2561 27.5583V30.421L36.4728 28.9181H37.6634L36.2255 30.5837L37.7219 32.477H36.5443L35.6074 31.3059L35.2561 31.7092V32.477H34.2802V27.5583H35.2561Z" fill="url(#paint1_linear_32_180)"/>
<path d="M20.4094 35.7318C20.3877 35.8054 20.3921 35.9006 20.3401 35.9439C20.3228 36.1778 20.2102 36.403 20.1669 36.6108C20.2665 36.6238 20.4007 36.6195 20.509 36.6152C20.7688 36.6541 21.0849 36.5978 21.3404 36.7407C21.3188 36.7494 21.3015 36.7364 21.2841 36.7494C20.9594 36.6325 20.5047 36.6888 20.1842 36.6411C20.1626 36.6455 20.1452 36.6628 20.1409 36.6888C20.1409 36.7104 20.1842 36.6931 20.1929 36.7148C20.1972 36.6974 20.2015 36.6758 20.2102 36.6801C20.2102 36.7018 20.2622 36.7191 20.2795 36.6888C20.3271 36.7104 20.3618 36.6931 20.4007 36.6931C20.4137 36.6974 20.4094 36.7148 20.4181 36.7234C20.4311 36.7234 20.4354 36.7191 20.4354 36.7148C20.444 36.7148 20.4397 36.7234 20.444 36.7234C20.457 36.7234 20.4484 36.7061 20.4397 36.7061C20.4397 36.6931 20.457 36.7061 20.457 36.7148C20.47 36.7104 20.4527 36.6974 20.457 36.6888C20.509 36.7537 20.5999 36.7018 20.6606 36.7321C20.6649 36.7321 20.6649 36.7278 20.6649 36.7191C20.6909 36.7364 20.6952 36.7104 20.7255 36.7278C20.7385 36.7148 20.6995 36.7148 20.6995 36.6974C20.7169 36.7061 20.7428 36.7018 20.7472 36.7018C20.7602 36.7234 20.7385 36.7018 20.7385 36.7148C20.7948 36.7537 20.8728 36.7148 20.9334 36.7407C20.9464 36.7364 20.955 36.7278 20.9594 36.7148C20.9724 36.7191 20.9594 36.7494 20.981 36.7451C20.994 36.7407 20.9724 36.7321 20.9767 36.7191C20.9897 36.7364 21.0157 36.7494 21.007 36.7711C21.033 36.7711 21.0243 36.7624 21.0243 36.7451C21.0416 36.7624 21.0633 36.7321 21.0676 36.7494C21.0806 36.7494 21.072 36.7321 21.0763 36.7234C21.1109 36.7494 21.1845 36.7148 21.2495 36.7494C21.2062 36.7624 21.1586 36.7667 21.1066 36.7494C21.0893 36.7581 21.0936 36.7884 21.0676 36.784C21.0503 36.7884 21.0546 36.7667 21.0503 36.7581C21.0373 36.7884 20.9767 36.7624 20.981 36.797C20.9594 36.8014 20.9724 36.7711 20.955 36.7711C20.955 36.797 20.942 36.784 20.9117 36.7927C20.9117 36.7797 20.9204 36.7797 20.9291 36.7797C20.9291 36.7667 20.8987 36.7624 20.9074 36.784C20.8944 36.7797 20.8987 36.7624 20.8771 36.7667C20.8598 36.7667 20.8598 36.7797 20.8511 36.7927C20.6086 36.7624 20.3011 36.7711 20.1236 36.7797C20.1019 36.7884 20.1149 36.8317 20.0889 36.8317C20.0889 36.9573 20.011 37.0699 19.9937 37.1911C19.9331 37.3643 19.8464 37.5895 19.7815 37.7714C19.6949 38.0225 19.5217 38.1871 19.4914 38.4469C19.4914 38.5076 19.4914 38.5595 19.474 38.6201C19.4784 38.6938 19.4827 38.776 19.4654 38.8497C19.4697 39.0575 19.487 39.2957 19.6299 39.4169C19.4177 39.391 19.3701 39.1874 19.3355 39.0056C19.3268 38.9103 19.3095 38.7717 19.3225 38.6634C19.3355 38.6634 19.3268 38.6808 19.3398 38.6764C19.3398 38.6418 19.3311 38.5942 19.3484 38.5725C19.3225 38.5855 19.3355 38.6115 19.3268 38.6288C19.3268 38.5509 19.3181 38.4772 19.3528 38.4166C19.3484 38.356 19.3571 38.2824 19.3181 38.2304C19.3398 38.2044 19.3528 38.1698 19.3788 38.1481C19.4437 37.6545 19.5433 37.2907 19.6646 36.8317C19.5173 36.8057 19.3355 36.9356 19.2055 36.849C19.1839 36.7537 19.2055 36.6455 19.3138 36.6715C19.4307 36.6411 19.5736 36.6411 19.7252 36.6195C19.7945 36.403 19.8724 36.1172 19.9504 35.8703C20.0327 35.6148 20.0803 35.329 20.2708 35.1818C20.4397 35.1948 20.4657 35.3853 20.4181 35.5499C20.4354 35.5672 20.4354 35.5715 20.4311 35.6018C20.4397 35.6018 20.4354 35.5845 20.4397 35.5802C20.4614 35.6322 20.4007 35.6755 20.4137 35.7188C20.4094 35.7188 20.4094 35.7144 20.4007 35.7144C20.3964 35.7231 20.4007 35.7491 20.4051 35.7318H20.4094ZM20.1929 35.6235C20.1712 35.6408 20.1842 35.5932 20.1929 35.6235C20.1885 35.6322 20.1885 35.6408 20.1799 35.6408C20.1799 35.6278 20.1756 35.6322 20.1756 35.6408H20.1712C20.1626 35.6495 20.1626 35.6625 20.1669 35.6755C20.1582 35.6755 20.1626 35.6798 20.1582 35.6841H20.1539C20.1582 35.7101 20.1279 35.7318 20.1452 35.7534C20.1496 35.7274 20.1626 35.7144 20.1582 35.6841C20.1669 35.6841 20.1626 35.6798 20.1669 35.6755H20.1712C20.1712 35.6668 20.1712 35.6625 20.1756 35.6625C20.0933 35.9569 19.9807 36.3034 19.8941 36.6152C19.9417 36.6238 19.9547 36.6108 19.998 36.6152C20.1149 36.1821 20.2795 35.7881 20.3055 35.3637C20.2578 35.4373 20.2232 35.5282 20.1929 35.6235ZM20.3791 35.407C20.3618 35.4243 20.3964 35.4243 20.3791 35.407V35.407ZM20.1019 36.6022C20.0889 36.6065 20.1063 36.6238 20.1019 36.6022C20.1236 36.5848 20.1019 36.5762 20.0976 36.5589C20.1063 36.5329 20.1279 36.5156 20.1236 36.4809C20.1366 36.4723 20.1409 36.4809 20.1539 36.4679V36.4376C20.1496 36.4376 20.1409 36.4376 20.1409 36.4333C20.1539 36.4073 20.1496 36.364 20.1712 36.351C20.1712 36.3553 20.1712 36.3597 20.1756 36.3597C20.1799 36.338 20.2102 36.3164 20.1929 36.2904C20.1799 36.3034 20.1885 36.3294 20.1756 36.3337C20.1669 36.3077 20.1885 36.2774 20.1972 36.2557C20.2059 36.2557 20.1972 36.2731 20.2059 36.2731C20.2275 36.2124 20.2448 36.1735 20.2578 36.0955C20.2275 36.1302 20.2275 36.2254 20.1972 36.2384C20.2578 36.0046 20.3488 35.7621 20.3791 35.5109C20.3834 35.5109 20.3834 35.5022 20.3791 35.5022C20.3704 35.4806 20.3877 35.4763 20.3921 35.4676C20.3834 35.4633 20.3748 35.4546 20.3834 35.4459C20.3531 35.5196 20.3444 35.6105 20.3358 35.6841C20.3271 35.6885 20.3228 35.6798 20.3141 35.6798C20.3141 35.6928 20.3228 35.6971 20.3228 35.7101C20.2968 35.7318 20.2622 35.8227 20.2881 35.866C20.2752 35.8747 20.2708 35.8617 20.2578 35.8703C20.2102 36.1215 20.0889 36.3943 20.0456 36.6195C20.076 36.6238 20.0846 36.6022 20.0976 36.5892C20.0976 36.5978 20.1019 36.5978 20.1019 36.6022ZM20.2102 35.5455C20.2059 35.5455 20.2145 35.5499 20.2102 35.5455C20.1972 35.5282 20.2319 35.5369 20.2102 35.5455ZM20.1149 35.5802C20.1149 35.5629 20.1366 35.5845 20.1149 35.5802V35.5802ZM20.1929 35.5845C20.1885 35.5845 20.1929 35.5889 20.1929 35.5845V35.5845ZM20.3315 35.6018C20.3315 35.5845 20.3531 35.6062 20.3315 35.6018V35.6018ZM20.3271 35.6365C20.3315 35.6148 20.3315 35.6581 20.3271 35.6365V35.6365ZM20.4051 35.6495C20.4007 35.6451 20.4094 35.6495 20.4051 35.6495V35.6495ZM20.4007 35.6538C20.3921 35.6841 20.4224 35.6538 20.4007 35.6538V35.6538ZM20.3921 35.7144C20.4007 35.7101 20.4051 35.6841 20.3921 35.6798C20.3921 35.6971 20.3748 35.7058 20.3921 35.7144ZM20.1236 35.7881C20.1409 35.7967 20.1366 35.7621 20.1279 35.7621C20.1323 35.7751 20.1236 35.7751 20.1236 35.7881ZM20.0456 35.7924C20.0413 35.7924 20.0413 35.801 20.0413 35.8054C20.024 35.8097 20.0456 35.8314 20.0413 35.8054C20.0456 35.8054 20.0456 35.7967 20.0456 35.7924C20.063 35.7924 20.0413 35.7707 20.0456 35.7924ZM20.3315 35.7967H20.3401V35.7881H20.3315V35.7967ZM20.1193 35.8314C20.1193 35.8227 20.1409 35.7967 20.1193 35.7967C20.1236 35.814 20.1019 35.8227 20.1193 35.8314ZM19.9937 35.8227V35.8357C20.0067 35.8443 20.011 35.8184 19.998 35.8184C19.998 35.8227 19.998 35.827 19.9937 35.8227ZM20.0283 35.8357C20.037 35.814 20.037 35.8573 20.0283 35.8357V35.8357ZM20.3748 35.8573C20.3748 35.853 20.3834 35.8314 20.3748 35.8314C20.3704 35.8314 20.3618 35.853 20.3748 35.8573ZM19.985 35.8747C19.9764 35.879 19.985 35.8833 19.985 35.8747C19.9937 35.8703 19.9937 35.853 19.998 35.8443C19.985 35.8443 19.985 35.8617 19.985 35.8747ZM20.1019 35.8833C20.1063 35.8747 20.1193 35.8487 20.1063 35.8443C20.1063 35.853 20.0933 35.879 20.1019 35.8833ZM20.3228 35.8487C20.3271 35.8314 20.3271 35.8703 20.3228 35.8487V35.8487ZM20.0197 35.8703C20.0197 35.8703 20.0197 35.866 20.024 35.866C20.024 35.8617 20.024 35.853 20.0153 35.8573C20.0153 35.8617 20.0153 35.8703 20.0197 35.8703ZM20.011 35.918C20.0023 35.9006 20.0283 35.8833 20.0023 35.8833C20.0067 35.892 19.998 35.918 20.011 35.918ZM20.3055 35.8877V35.8963C20.3185 35.905 20.3228 35.879 20.3098 35.8833C20.3098 35.8833 20.3098 35.8877 20.3055 35.8877ZM19.972 35.9136C19.9677 35.918 19.972 35.918 19.972 35.9136H19.9764C19.972 35.8963 19.985 35.9006 19.985 35.8877C19.9677 35.8833 19.9764 35.905 19.972 35.9136ZM20.0933 35.918C20.0933 35.9136 20.1063 35.8963 20.0933 35.8963C20.0933 35.9006 20.0803 35.918 20.0933 35.918ZM20.3055 35.9266C20.3055 35.9266 20.3185 35.9093 20.3055 35.9093C20.3055 35.9093 20.2925 35.9266 20.3055 35.9266ZM19.9677 35.9439C19.9634 35.9353 19.985 35.9266 19.9677 35.9223C19.9677 35.9266 19.9547 35.9439 19.9677 35.9439ZM20.076 35.9396C20.076 35.9223 20.0976 35.9439 20.076 35.9396V35.9396ZM20.2795 35.9873C20.3011 35.9916 20.2838 35.9613 20.3055 35.9656C20.2925 35.9526 20.3185 35.9353 20.2968 35.9353C20.2925 35.9526 20.2838 35.9656 20.2795 35.9873ZM19.9893 35.9743C19.9893 35.9656 20.0067 35.9353 19.9893 35.9396C19.9937 35.9526 19.972 35.9656 19.9893 35.9743ZM20.3271 35.9613C20.3271 35.9569 20.3271 35.9526 20.3315 35.9526C20.3315 35.9483 20.3315 35.9439 20.3228 35.9439C20.3228 35.9483 20.3185 35.9569 20.3271 35.9613ZM19.9417 36.0132C19.9244 36.0219 19.959 36.0262 19.9417 36.0132H19.946C19.9504 35.9959 19.9677 35.9699 19.959 35.9526C19.9504 35.9743 19.946 35.9916 19.9417 36.0132ZM20.0673 35.9656C20.076 35.9483 20.0846 35.9829 20.0673 35.9656V35.9656ZM20.0673 36.0002C20.063 35.9916 20.0803 35.9829 20.0673 35.9786C20.0673 35.9829 20.0543 36.0002 20.0673 36.0002ZM19.972 36.0132C19.9547 36.0219 19.9893 36.0262 19.972 36.0132C19.9677 35.9829 19.9893 36.0046 19.972 36.0132ZM20.2795 36.0002C20.2838 35.9786 20.2838 36.0219 20.2795 36.0002V36.0002ZM19.959 36.0522C19.972 36.0565 19.972 36.0435 19.972 36.0306C19.9547 36.0262 19.9677 36.0479 19.959 36.0522ZM20.05 36.0435C20.05 36.0392 20.0543 36.0479 20.05 36.0435V36.0435ZM19.9157 36.0912C19.9331 36.0782 19.9417 36.0609 19.9331 36.0435C19.9287 36.0609 19.9201 36.0695 19.9157 36.0912ZM20.3055 36.0565H20.3141V36.0479H20.3055V36.0565ZM20.0456 36.0652C20.037 36.0652 20.0456 36.0695 20.0456 36.0652C20.0456 36.0565 20.0543 36.0609 20.0456 36.0652ZM19.9504 36.0782C19.959 36.0565 19.959 36.0998 19.9504 36.0782V36.0782ZM20.2535 36.0912C20.2535 36.0869 20.2578 36.0912 20.2535 36.0912V36.0912ZM19.9417 36.0955V36.1042C19.9547 36.1128 19.959 36.0869 19.946 36.0912C19.946 36.0912 19.946 36.0955 19.9417 36.0955ZM19.9071 36.1518C19.9027 36.1345 19.9417 36.1042 19.9114 36.0955C19.9201 36.1215 19.8897 36.1388 19.9071 36.1518ZM20.024 36.1172C20.024 36.1128 20.0283 36.1172 20.024 36.1172V36.1172ZM20.2838 36.1215C20.2795 36.1518 20.2881 36.0998 20.2838 36.1215V36.1215ZM19.9374 36.1258C19.9244 36.1518 19.946 36.0998 19.9374 36.1258V36.1258ZM19.9331 36.1605C19.9331 36.1605 19.9331 36.1561 19.9374 36.1561C19.9374 36.1518 19.9331 36.1431 19.9244 36.1475C19.9287 36.1518 19.9244 36.1605 19.9331 36.1605ZM19.8854 36.1951C19.8984 36.1951 19.9071 36.1691 19.8941 36.1605C19.8897 36.1691 19.8941 36.1865 19.8854 36.1951ZM20.011 36.1691C20.0067 36.1994 20.011 36.1475 20.011 36.1691V36.1691ZM19.9114 36.2384C19.9157 36.2254 19.9287 36.1994 19.9157 36.1865C19.9201 36.2081 19.8984 36.2298 19.9114 36.2384ZM19.8464 36.3164C19.8205 36.403 19.7772 36.5372 19.7642 36.6195C19.7945 36.5372 19.8464 36.39 19.8464 36.3164C19.8638 36.286 19.8897 36.2384 19.8854 36.1994C19.8638 36.2211 19.8551 36.2817 19.8464 36.3164ZM19.998 36.2124C19.985 36.2298 20.0153 36.2038 19.998 36.2124V36.2124ZM19.8984 36.2557H19.8941C19.8854 36.3077 19.8681 36.3294 19.8638 36.3813C19.8811 36.3597 19.8984 36.299 19.8984 36.2557C19.9071 36.2514 19.8984 36.2514 19.8984 36.2557ZM19.9201 36.2557C19.9157 36.286 19.9244 36.2341 19.9201 36.2557V36.2557ZM19.985 36.2557C19.9807 36.2557 19.985 36.2601 19.985 36.2557V36.2557ZM19.985 36.2904C19.9807 36.286 19.985 36.2731 19.9764 36.2731C19.972 36.2774 19.972 36.2904 19.985 36.2904ZM19.9634 36.3337C19.959 36.3337 19.9677 36.338 19.9634 36.3337V36.3337ZM19.959 36.3553C19.9547 36.351 19.959 36.3597 19.959 36.3553V36.3553ZM20.1712 36.377C20.1756 36.377 20.1756 36.3813 20.1712 36.377C20.1626 36.377 20.1669 36.3683 20.1712 36.377ZM19.7945 36.6195C19.8291 36.5459 19.8421 36.4723 19.8681 36.39H19.8551C19.8378 36.4809 19.8031 36.5459 19.7945 36.6195ZM19.9374 36.416C19.9547 36.4203 19.946 36.3986 19.9504 36.3943C19.9374 36.39 19.946 36.4116 19.9374 36.416ZM20.1539 36.429C20.1539 36.4246 20.1582 36.429 20.1539 36.429V36.429ZM19.9201 36.4852C19.9157 36.4896 19.9201 36.4896 19.9201 36.4852C19.9287 36.4809 19.9287 36.4723 19.9331 36.4636C19.9157 36.4593 19.9244 36.4766 19.9201 36.4852ZM19.9071 36.5459C19.9071 36.5459 19.9157 36.5242 19.9071 36.5199C19.9114 36.5329 19.8897 36.5415 19.9071 36.5459ZM20.1193 36.5589C20.1063 36.5762 20.1366 36.5459 20.1193 36.5589V36.5589ZM19.8941 36.5675C19.8897 36.5978 19.8984 36.5459 19.8941 36.5675V36.5675ZM20.063 36.6801C20.063 36.6888 20.0673 36.6801 20.063 36.6801C20.063 36.6715 20.0803 36.6715 20.076 36.6541C20.063 36.6541 20.037 36.6455 20.024 36.6628C20.05 36.6715 20.0023 36.6628 20.0197 36.7018C20.0327 36.7018 20.0327 36.6844 20.0543 36.6931C20.0543 36.6844 20.0586 36.6844 20.063 36.6801ZM19.9417 36.6801C19.9417 36.6715 19.9331 36.6671 19.9244 36.6628C19.9027 36.6715 19.8897 36.6628 19.8811 36.6758C19.9027 36.6715 19.8941 36.7018 19.9244 36.6974C19.9331 36.6844 19.9114 36.6758 19.9244 36.6715C19.9287 36.6801 19.9331 36.6801 19.9331 36.6931C19.9504 36.7018 19.9893 36.6844 19.972 36.6628C19.972 36.6888 19.959 36.6671 19.9417 36.6541C19.9331 36.6671 19.959 36.6758 19.9417 36.6801ZM20.0803 36.6628C20.0803 36.6585 20.0846 36.6628 20.0803 36.6628V36.6628ZM20.3791 36.7191C20.3877 36.7018 20.3964 36.7364 20.3791 36.7191V36.7191ZM20.037 36.7278C20.0413 36.7278 20.0413 36.7321 20.0456 36.7321C20.0456 36.7278 20.0456 36.7148 20.037 36.7191V36.7278ZM20.955 36.7581C20.955 36.7494 20.9507 36.7451 20.9464 36.7451C20.9464 36.7537 20.942 36.7624 20.955 36.7581ZM20.9247 36.7581H20.9334V36.7494H20.9247V36.7581ZM20.6259 36.7711C20.6303 36.7581 20.6173 36.7624 20.6129 36.7537C20.6129 36.7667 20.6173 36.7711 20.6259 36.7711ZM20.6649 36.7667C20.6692 36.7451 20.6692 36.784 20.6649 36.7667V36.7667ZM19.9331 37.1478C19.946 37.1435 19.9331 37.1348 19.946 37.1218C19.9417 37.1262 19.9331 37.1262 19.9331 37.1175C19.9504 37.0872 19.9807 37.0612 19.9634 37.0136C19.9764 37.0092 19.9764 37.0136 19.9893 37.0049C19.9937 36.9659 20.0023 36.9183 20.0197 36.8966C20.0067 36.8923 20.0023 36.849 20.024 36.8447V36.8533C20.011 36.8533 20.0283 36.875 20.024 36.8533C20.037 36.8403 20.037 36.8014 20.024 36.7927C20.0153 36.797 20.0023 36.7927 19.985 36.797C19.9634 36.9183 19.9027 37.0049 19.8897 37.1045C19.8594 37.1608 19.8291 37.2344 19.8161 37.3124L19.8031 37.2994C19.7945 37.321 19.8118 37.3513 19.8031 37.3557C19.7901 37.36 19.8031 37.334 19.7858 37.3427C19.7685 37.4466 19.7209 37.5159 19.6906 37.6155C19.7122 37.6025 19.7035 37.6025 19.7252 37.6155C19.7598 37.5072 19.8205 37.4033 19.8551 37.3037C19.8681 37.3037 19.8508 37.3297 19.8638 37.3253C19.8638 37.3167 19.8681 37.3124 19.8724 37.3124C19.8768 37.2907 19.8551 37.2994 19.8594 37.2777C19.8724 37.282 19.8768 37.2907 19.8854 37.2777C19.8724 37.2604 19.8724 37.2214 19.8984 37.2431C19.9157 37.2171 19.8811 37.2258 19.8854 37.1954C19.8984 37.1954 19.8941 37.2084 19.8984 37.2084C19.9157 37.1911 19.8854 37.1868 19.8984 37.1738C19.9071 37.1781 19.9114 37.1824 19.9201 37.1868C19.9201 37.1695 19.9287 37.1651 19.9331 37.1478ZM19.8378 36.8057C19.7642 37.0482 19.7339 37.282 19.6516 37.5116C19.6689 37.5505 19.6213 37.5895 19.6472 37.6112C19.7512 37.3427 19.8594 37.0612 19.9374 36.8014C19.8897 36.7927 19.8681 36.81 19.8378 36.8057ZM19.6299 37.1045C19.5996 37.1521 19.5736 37.2214 19.5953 37.2647C19.6386 37.1262 19.6689 36.9486 19.7079 36.823H19.6906C19.6689 36.9399 19.6343 36.9919 19.6299 37.1045ZM19.7122 36.8836C19.7295 36.8793 19.7468 36.8317 19.7295 36.8274C19.7209 36.849 19.7165 36.8707 19.7122 36.8836ZM19.6906 37.0049C19.6949 36.9616 19.7339 36.9096 19.7079 36.888C19.7122 36.9313 19.6689 36.9703 19.6906 37.0049ZM19.6732 37.0266C19.6732 37.0092 19.6949 37.0309 19.6732 37.0266V37.0266ZM19.6732 37.0525C19.6862 37.0569 19.6862 37.0266 19.6732 37.0352V37.0525ZM19.6732 37.0699C19.6776 37.0525 19.6776 37.0915 19.6732 37.0699V37.0699ZM19.6472 37.1824C19.6386 37.1824 19.6472 37.1868 19.6472 37.1824H19.6516C19.6602 37.1608 19.6602 37.1305 19.6646 37.1088C19.6472 37.1175 19.6429 37.1608 19.6472 37.1824ZM19.6299 37.2647C19.6256 37.2387 19.6516 37.2171 19.6343 37.1954C19.6299 37.2128 19.6126 37.2561 19.6299 37.2647ZM19.6126 37.3124C19.6126 37.295 19.6343 37.2734 19.6126 37.2691C19.6126 37.282 19.6039 37.295 19.6126 37.3124ZM19.5043 37.6241C19.5 37.6285 19.5043 37.6371 19.4957 37.6371C19.4784 37.6545 19.487 37.6112 19.4957 37.6371C19.5043 37.6718 19.4784 37.6501 19.474 37.6588C19.4784 37.6631 19.487 37.6631 19.4914 37.6675C19.4654 37.7367 19.4394 37.7974 19.448 37.8623C19.4307 37.871 19.4351 37.8883 19.4307 37.9229C19.4221 37.9316 19.4134 37.9663 19.4264 37.9879C19.4177 37.9792 19.4091 37.9836 19.4134 37.9966C19.4177 37.9966 19.4264 37.9966 19.4264 38.0009C19.4264 38.0182 19.4047 38.0225 19.4004 38.0399C19.4047 38.0442 19.4177 38.0399 19.4177 38.0485C19.4004 38.0485 19.3918 38.0702 19.4134 38.0745C19.4004 38.0832 19.3788 38.1092 19.4004 38.1221C19.3918 38.0962 19.4307 38.0918 19.4134 38.0745C19.4134 38.0615 19.4177 38.0702 19.4221 38.0702C19.4524 37.8753 19.4827 37.7671 19.5043 37.6241C19.5303 37.4942 19.5823 37.399 19.578 37.2734C19.5606 37.3037 19.5606 37.3687 19.5433 37.399C19.565 37.4206 19.513 37.4423 19.5347 37.4726C19.526 37.4769 19.5217 37.4553 19.5217 37.4769C19.5433 37.5072 19.4827 37.5895 19.4914 37.6241H19.5043ZM19.5996 37.3297C19.5953 37.3297 19.6039 37.334 19.5996 37.3297V37.3297ZM19.5866 37.399C19.5953 37.373 19.6083 37.3643 19.5953 37.3427C19.5996 37.3643 19.5736 37.3816 19.5866 37.399ZM19.8464 37.3557C19.8508 37.3513 19.8594 37.347 19.8464 37.3427C19.8464 37.347 19.8378 37.3557 19.8464 37.3557ZM19.8335 37.3946C19.8205 37.412 19.8508 37.3816 19.8335 37.3946V37.3946ZM19.5736 37.4466C19.5866 37.4466 19.5823 37.4293 19.5866 37.4206C19.5736 37.4163 19.5736 37.4293 19.5736 37.4466ZM19.5693 37.4596C19.5693 37.4466 19.591 37.4683 19.5693 37.4596V37.4596ZM19.5476 37.5592H19.5433C19.5433 37.5895 19.5217 37.5982 19.5347 37.6241C19.513 37.6415 19.5217 37.6891 19.5087 37.7151C19.539 37.6934 19.5217 37.6545 19.5347 37.6241C19.552 37.6155 19.5433 37.5895 19.5476 37.5592C19.565 37.5505 19.565 37.5029 19.5606 37.4812C19.5563 37.5072 19.5476 37.5462 19.5476 37.5592ZM19.6819 37.6415C19.6819 37.6371 19.6906 37.6328 19.6819 37.6285C19.6819 37.6328 19.6732 37.6415 19.6819 37.6415ZM19.6776 37.6804C19.6819 37.6588 19.6819 37.7021 19.6776 37.6804V37.6804ZM19.5087 37.7324C19.5087 37.7281 19.513 37.7367 19.5087 37.7324V37.7324ZM19.5043 37.7541C19.513 37.7324 19.513 37.7714 19.5043 37.7541V37.7541ZM19.4827 37.8753C19.4827 37.8537 19.513 37.8147 19.5 37.7844C19.4957 37.8104 19.474 37.8493 19.4827 37.8753ZM19.4654 37.9792C19.4697 37.9489 19.4957 37.9186 19.474 37.8926C19.4697 37.9273 19.4567 37.9489 19.4654 37.9792ZM19.3441 38.4296C19.3398 38.4599 19.3658 38.4296 19.3441 38.4296V38.4296ZM19.3484 38.4902C19.3528 38.4772 19.3614 38.4686 19.3441 38.4642C19.3484 38.4729 19.3398 38.4902 19.3484 38.4902ZM19.3874 38.4902C19.3874 38.4729 19.4091 38.4946 19.3874 38.4902V38.4902ZM19.3441 38.5119C19.3441 38.5032 19.3528 38.4989 19.3441 38.4946C19.3441 38.5032 19.3355 38.5076 19.3441 38.5119ZM19.3874 38.5119C19.3918 38.4946 19.4004 38.5335 19.3874 38.5119V38.5119ZM19.3788 38.5465C19.3961 38.5552 19.3961 38.5249 19.3874 38.5249C19.3874 38.5379 19.3788 38.5379 19.3788 38.5465ZM19.3398 38.5638C19.3528 38.5638 19.3614 38.5552 19.3614 38.5422C19.3484 38.5422 19.3398 38.5509 19.3398 38.5638ZM19.3788 38.6461C19.3744 38.6764 19.3831 38.6245 19.3788 38.6461V38.6461ZM19.3744 38.6678C19.3831 38.6851 19.3874 38.6461 19.3744 38.6678V38.6678ZM19.3398 38.7068C19.3355 38.7024 19.3441 38.6808 19.3355 38.6808C19.3311 38.6938 19.3225 38.7068 19.3398 38.7068ZM19.3788 38.7327C19.3788 38.7241 19.3874 38.6981 19.3701 38.7024C19.3744 38.7111 19.3701 38.7284 19.3788 38.7327ZM19.3484 38.7414C19.3441 38.7197 19.3614 38.7111 19.3441 38.7068C19.3484 38.7241 19.3311 38.7371 19.3484 38.7414ZM19.3744 38.7934C19.3788 38.7804 19.3831 38.7587 19.3744 38.7457C19.3701 38.7501 19.3658 38.7847 19.3744 38.7934ZM19.3441 38.7544C19.3484 38.7327 19.3484 38.776 19.3441 38.7544V38.7544ZM19.3441 38.7934C19.3398 38.815 19.3614 38.7934 19.3441 38.7934C19.3398 38.7804 19.3614 38.776 19.3441 38.7717C19.3441 38.776 19.3355 38.776 19.3355 38.7804C19.3398 38.7847 19.3355 38.7934 19.3441 38.7934ZM19.3744 38.88C19.3701 38.854 19.3831 38.8193 19.3701 38.802C19.3744 38.8367 19.3571 38.8583 19.3744 38.88ZM19.3484 38.8367C19.3484 38.8323 19.3571 38.8107 19.3441 38.8107C19.3355 38.8193 19.3355 38.8367 19.3484 38.8367ZM19.3398 38.8626C19.3355 38.8973 19.3441 38.8453 19.3398 38.8626V38.8626ZM19.3701 38.8886C19.3614 38.9406 19.3874 38.9449 19.3701 38.8886V38.8886ZM20.4527 35.381C20.4484 35.4156 20.4527 35.3637 20.4527 35.381V35.381ZM20.444 35.42C20.4527 35.4026 20.4614 35.4373 20.444 35.42V35.42ZM20.3791 35.5022C20.3704 35.5022 20.3748 35.5109 20.3791 35.5109V35.5022ZM20.4354 35.5326C20.4311 35.4936 20.4527 35.5152 20.4354 35.5326V35.5326ZM20.4354 35.5326C20.4267 35.5369 20.4354 35.5412 20.4354 35.5326V35.5326ZM20.1756 35.6408H20.1799C20.1799 35.6495 20.1842 35.6625 20.1756 35.6625V35.6408ZM20.4094 35.7318C20.4094 35.7231 20.4181 35.7274 20.4094 35.7318V35.7318ZM20.3055 35.7577C20.3141 35.7404 20.3228 35.7751 20.3055 35.7577V35.7577ZM20.3011 35.7707C20.2881 35.801 20.3185 35.7924 20.3011 35.7707V35.7707ZM20.2881 35.8054C20.2968 35.8054 20.3011 35.8097 20.3011 35.8184C20.2881 35.8227 20.2925 35.814 20.2881 35.8054ZM20.2708 35.8963C20.2708 35.8833 20.2925 35.9006 20.2708 35.8963V35.8963ZM20.2578 35.9439C20.2535 35.9223 20.2752 35.9439 20.2578 35.9439V35.9439ZM20.2578 35.9439C20.2448 35.9439 20.2622 35.9656 20.2578 35.9439V35.9439ZM20.2102 36.1042C20.2189 36.0825 20.2189 36.1258 20.2102 36.1042V36.1042ZM20.1842 36.1605H20.1972V36.1821H20.1842V36.1605ZM20.1712 36.2254C20.1669 36.2211 20.1756 36.2298 20.1712 36.2254V36.2254ZM20.1452 36.3294C20.1409 36.325 20.1496 36.3337 20.1452 36.3294V36.3294ZM20.1279 36.4549H20.1409V36.4636C20.1366 36.4636 20.1366 36.4679 20.1323 36.4679H20.1236V36.4593C20.1279 36.4593 20.1279 36.4549 20.1279 36.4549ZM20.3358 36.6715C20.3011 36.6888 20.3098 36.6585 20.3358 36.6715V36.6715ZM20.4354 36.7148C20.4224 36.7061 20.4181 36.6931 20.4137 36.6758C20.4267 36.6844 20.4311 36.6974 20.4354 36.7148ZM20.574 36.6801C20.5826 36.6628 20.5913 36.6974 20.574 36.6801V36.6801ZM20.6086 36.6801C20.6303 36.6844 20.6432 36.6888 20.6476 36.7061C20.6259 36.7061 20.6216 36.6801 20.6129 36.7061C20.5956 36.7148 20.6043 36.6844 20.6086 36.6801ZM20.7775 36.6888C20.7948 36.6844 20.7818 36.7061 20.7948 36.7061C20.7861 36.7234 20.7818 36.6931 20.7775 36.6888ZM20.5133 36.6931C20.522 36.6931 20.5263 36.6974 20.535 36.6974C20.535 36.7061 20.5047 36.7061 20.5133 36.6931ZM20.8424 36.6974C20.8424 36.6931 20.8511 36.6931 20.8554 36.6931V36.7061C20.8511 36.7061 20.8468 36.6974 20.8424 36.6974ZM20.8728 36.6931C20.8857 36.6931 20.8857 36.7104 20.8771 36.7191C20.8641 36.7191 20.8771 36.7018 20.8728 36.6931ZM20.561 36.7018C20.5696 36.6844 20.5783 36.7191 20.561 36.7018V36.7018ZM20.5826 36.7018C20.5869 36.6801 20.5869 36.7234 20.5826 36.7018V36.7018ZM20.6649 36.7018C20.6692 36.6801 20.6692 36.7234 20.6649 36.7018V36.7018ZM20.8078 36.6974C20.8121 36.7018 20.8165 36.7018 20.8251 36.7018C20.8251 36.7104 20.8078 36.7061 20.8078 36.7191C20.7948 36.7148 20.8165 36.7061 20.8078 36.6974ZM20.7688 36.7061C20.7602 36.7104 20.7645 36.7018 20.7688 36.7061V36.7061ZM20.7688 36.7061C20.7732 36.7061 20.7732 36.7148 20.7688 36.7061V36.7061ZM20.9291 36.7148C20.9377 36.6974 20.942 36.7321 20.9291 36.7148V36.7148ZM21.007 36.7148C21.0157 36.7148 21.02 36.7234 21.0157 36.7321C21.007 36.7321 21.007 36.7234 21.007 36.7148ZM21.0286 36.7148C21.033 36.7148 21.0373 36.7234 21.0373 36.7321C21.0286 36.7321 21.0286 36.7234 21.0286 36.7148ZM21.2582 36.7494C21.2625 36.7278 21.2625 36.7711 21.2582 36.7494V36.7494ZM21.1326 36.7711C21.1369 36.7494 21.1369 36.7927 21.1326 36.7711V36.7711ZM21.1066 36.7797C21.1066 36.7667 21.1282 36.784 21.1066 36.7797V36.7797ZM19.9677 36.9832C19.9677 37.0309 19.9807 36.9703 19.9677 36.9832V36.9832ZM19.9157 37.0525C19.9157 37.0352 19.9374 37.0569 19.9157 37.0525V37.0525ZM19.9331 37.1478C19.9244 37.1478 19.9201 37.1391 19.9244 37.1391C19.9287 37.1391 19.9331 37.1435 19.9331 37.1478ZM19.448 37.8363C19.4524 37.8147 19.4524 37.858 19.448 37.8363V37.8363ZM19.4437 37.8883C19.4394 37.884 19.448 37.8926 19.4437 37.8883V37.8883ZM19.4307 37.9229C19.4351 37.9316 19.4394 37.9229 19.4307 37.9229V37.9229ZM19.3398 38.408C19.3355 38.4036 19.3441 38.4123 19.3398 38.408V38.408ZM19.3355 39.0056V39.0185C19.3268 39.0185 19.3225 39.0142 19.3225 39.0056H19.3355ZM24.506 36.0002C24.506 35.9959 24.5103 35.9959 24.5146 35.9959C24.5146 36.0002 24.506 36.0002 24.506 36.0002ZM24.3198 36.0002C24.3284 36.0046 24.3111 36.0176 24.3024 36.0132C24.2938 35.9959 24.3198 36.0132 24.3198 36.0002ZM24.2462 36.0046C24.2591 36.0046 24.2678 36.0176 24.2591 36.0219C24.2548 36.0176 24.2462 36.0176 24.2462 36.0046ZM24.6835 36.0089C24.6835 36.0435 24.6922 35.9916 24.6835 36.0089V36.0089ZM24.7225 36.0089C24.7312 36.0089 24.7312 36.0176 24.7398 36.0132C24.7398 36.0219 24.7138 36.0219 24.7225 36.0089ZM24.8264 36.0522C24.8264 36.0565 24.8308 36.0565 24.8351 36.0565C24.8351 36.0435 24.8308 36.0522 24.8264 36.0522C24.8221 36.0392 24.8091 36.0349 24.8091 36.0219C24.8264 36.0306 24.8567 36.0262 24.8567 36.0522C24.8654 36.0522 24.8654 36.0435 24.8654 36.0349C24.9 36.0479 24.9174 36.0782 24.9217 36.1258C24.9 36.1735 24.952 36.1994 24.939 36.2427C24.9174 36.2514 24.9347 36.2254 24.9217 36.2254C24.9044 36.2341 24.926 36.2514 24.9217 36.2687C24.8697 36.3034 24.8091 36.3337 24.7485 36.3597C24.7442 36.3597 24.7441 36.3597 24.7441 36.364C24.5969 36.39 24.4713 36.4203 24.3198 36.4419C24.3024 36.4376 24.3241 36.4203 24.3241 36.4116C24.3068 36.4116 24.2548 36.4203 24.2505 36.39C24.2375 36.4073 24.2202 36.3856 24.2202 36.416C24.2202 36.4073 24.2028 36.4073 24.2028 36.39C24.2202 36.3813 24.2332 36.3943 24.2462 36.3813C24.1769 36.377 24.0946 36.4116 24.0166 36.4203C24.0166 36.4116 24.0166 36.4073 24.0123 36.403C24.0123 36.416 23.9344 36.4376 23.9084 36.4116C24.047 36.3683 24.1812 36.3467 24.3024 36.3207C24.3154 36.312 24.3241 36.299 24.3241 36.2817C24.3328 36.286 24.3328 36.2774 24.3458 36.2774C24.3458 36.2904 24.3241 36.2904 24.3241 36.3077C24.3328 36.312 24.3501 36.3077 24.3761 36.3077V36.2904C24.3761 36.2817 24.3631 36.286 24.3544 36.286C24.3544 36.2687 24.3761 36.2731 24.3847 36.2687C24.3934 36.2774 24.3804 36.2774 24.3847 36.2904C24.3847 36.3034 24.4064 36.2947 24.415 36.2947C24.4237 36.2947 24.415 36.2817 24.4237 36.2774C24.428 36.2687 24.4064 36.2817 24.402 36.2817C24.3891 36.2514 24.4497 36.2557 24.4757 36.2471C24.467 36.2687 24.4367 36.2644 24.4324 36.2817C24.454 36.286 24.48 36.2601 24.506 36.2731C24.519 36.2687 24.5103 36.2341 24.532 36.2341C24.532 36.2471 24.519 36.2427 24.5233 36.2601C24.5406 36.2644 24.5363 36.2471 24.5363 36.2341C24.5969 36.2427 24.6532 36.2038 24.7095 36.1908C24.7095 36.1778 24.6879 36.1865 24.6965 36.1735C24.6879 36.1735 24.6879 36.1821 24.6879 36.1865C24.6446 36.1778 24.6056 36.1778 24.5666 36.1778C24.5536 36.1778 24.5623 36.1518 24.5363 36.1561C24.5233 36.1605 24.5406 36.1691 24.5363 36.1778C24.5233 36.1821 24.5103 36.1778 24.506 36.1648C24.493 36.1605 24.4887 36.1691 24.4887 36.1778C24.48 36.1778 24.48 36.1691 24.4757 36.1691C24.48 36.1778 24.4627 36.1778 24.441 36.1778C24.4367 36.1778 24.4324 36.1691 24.4367 36.1561C24.428 36.1605 24.428 36.1648 24.428 36.1691C24.4237 36.1691 24.4194 36.1648 24.4194 36.1561C24.4064 36.1605 24.4107 36.1735 24.402 36.1778C24.3847 36.1518 24.3674 36.1691 24.3414 36.1691C24.3414 36.1778 24.3544 36.1735 24.3501 36.1778C24.3328 36.1778 24.3371 36.1561 24.3154 36.1648C24.3068 36.1778 24.3241 36.1691 24.3284 36.1778C24.3284 36.1908 24.2981 36.1821 24.2808 36.1865C24.2765 36.1735 24.2938 36.1778 24.2981 36.1735C24.2721 36.1648 24.2202 36.1561 24.2072 36.1865C24.1899 36.1778 24.1812 36.1908 24.1682 36.1951C24.1552 36.1908 24.1509 36.1778 24.1379 36.1735C24.0383 36.1735 23.9127 36.2168 23.8261 36.1908C23.8218 36.1994 23.8131 36.2081 23.8044 36.2168C23.7438 36.2081 23.6875 36.2384 23.6312 36.2254C23.6356 36.2124 23.6312 36.2081 23.6269 36.1994H23.6009C23.6009 36.1994 23.5966 36.2211 23.5966 36.2298C23.6096 36.2298 23.6096 36.2211 23.6096 36.2124C23.6226 36.2124 23.6139 36.2298 23.6312 36.2254C23.5879 36.2427 23.5403 36.2514 23.4927 36.2471C23.4927 36.2298 23.4927 36.2298 23.51 36.2341C23.51 36.2254 23.5057 36.2254 23.5057 36.2168C23.4927 36.2168 23.497 36.2298 23.4797 36.2254C23.4797 36.2081 23.471 36.1951 23.484 36.1778C23.4927 36.1778 23.4797 36.2038 23.4927 36.1994C23.5143 36.2081 23.4927 36.1691 23.51 36.1778C23.5057 36.1908 23.5013 36.1994 23.5273 36.1951C23.5143 36.1865 23.5663 36.1561 23.5619 36.1865C23.5749 36.1778 23.5793 36.1561 23.6009 36.1648C23.6096 36.1735 23.5966 36.1735 23.6052 36.1778C23.6356 36.1821 23.6356 36.1778 23.6572 36.1735C23.6615 36.1605 23.6399 36.1778 23.6486 36.1561C23.6529 36.1561 23.6572 36.1648 23.6572 36.1561C23.6659 36.1605 23.6615 36.1691 23.6659 36.1778C23.6789 36.1735 23.6875 36.1691 23.6962 36.1778C23.7048 36.1691 23.7222 36.1605 23.7135 36.1302C23.7438 36.1388 23.7395 36.1475 23.7525 36.1431C23.7525 36.1561 23.7482 36.1648 23.7525 36.1735C23.7655 36.1648 23.7871 36.1648 23.7741 36.1431C23.7915 36.1475 23.7871 36.1345 23.8001 36.1388C23.8001 36.1561 23.7958 36.1561 23.8044 36.1691C23.8174 36.1735 23.8131 36.1561 23.8218 36.1561C23.8261 36.1431 23.8088 36.1475 23.8131 36.1302C23.8218 36.1345 23.8261 36.1258 23.8218 36.1215C23.8304 36.1345 23.8348 36.1431 23.8391 36.1561C23.8651 36.1648 23.8564 36.1258 23.8651 36.1215C23.8694 36.1258 23.8911 36.1345 23.8737 36.1431C23.8737 36.1518 23.8867 36.1518 23.8997 36.1518C23.8997 36.1431 23.8997 36.1345 23.8911 36.1302C23.8867 36.1215 23.9127 36.1345 23.9084 36.1258C23.9214 36.1302 23.9084 36.1431 23.9084 36.1518H23.917C23.93 36.1431 23.9214 36.1388 23.9214 36.1258C23.9257 36.1258 23.9344 36.1258 23.9344 36.1215C23.9474 36.1215 23.943 36.1345 23.943 36.1475C23.9603 36.1302 23.9777 36.1085 24.0123 36.1215C24.0123 36.1388 24.0296 36.1215 24.0123 36.1215C24.0123 36.1128 24.0123 36.1085 24.0253 36.1085C24.021 36.1258 24.0296 36.1345 24.0383 36.1388C24.0556 36.1302 24.0296 36.1215 24.0426 36.1172C24.0513 36.1258 24.1032 36.1345 24.1032 36.1042C24.1119 36.1085 24.1119 36.1172 24.1162 36.1258C24.1379 36.1258 24.1725 36.1042 24.1769 36.1258C24.1855 36.1258 24.1812 36.1128 24.1812 36.1042C24.1812 36.0955 24.1682 36.0998 24.1639 36.0998C24.1682 36.0825 24.1639 36.0739 24.1595 36.0695C24.1682 36.0652 24.1725 36.0782 24.1682 36.0825C24.1812 36.0912 24.1769 36.0739 24.1769 36.0695C24.1855 36.0739 24.1855 36.0912 24.2072 36.0825C24.2115 36.1042 24.1899 36.0955 24.1855 36.1085C24.1855 36.1258 24.2245 36.1215 24.2245 36.1042C24.2505 36.1258 24.2635 36.1042 24.2981 36.1042C24.2981 36.0955 24.3068 36.0782 24.3241 36.0739C24.3241 36.0869 24.3198 36.0912 24.3154 36.0998C24.3198 36.1258 24.3414 36.1042 24.3544 36.1172C24.3544 36.1128 24.3544 36.1042 24.3501 36.1042C24.3761 36.0912 24.4064 36.1042 24.4367 36.1042C24.4583 36.1042 24.4713 36.0912 24.4887 36.0912C24.519 36.0912 24.532 36.0998 24.5536 36.0955C24.6186 36.0825 24.6835 36.1302 24.7312 36.0998C24.7398 36.1172 24.7528 36.1128 24.7615 36.1172C24.7831 36.1128 24.7658 36.0782 24.7875 36.0955C24.7831 36.0782 24.7571 36.0869 24.7745 36.0695C24.7745 36.0609 24.7658 36.0609 24.7571 36.0609C24.7528 36.0652 24.7571 36.0955 24.7398 36.0955C24.7398 36.0869 24.7398 36.0782 24.7355 36.0739C24.7571 36.0695 24.7398 36.0479 24.7441 36.0349C24.7528 36.0306 24.7788 36.0565 24.7788 36.0306C24.7788 36.0219 24.7701 36.0392 24.7571 36.0306C24.7571 36.0219 24.7528 36.0219 24.7528 36.0132C24.7788 36.0176 24.7831 36.0176 24.8004 36.0219C24.7961 36.0306 24.7875 36.0306 24.7831 36.0435C24.7875 36.0609 24.8091 36.0522 24.8264 36.0522ZM24.8481 36.0609C24.8567 36.0739 24.8611 36.0435 24.8481 36.0609V36.0609ZM24.8048 36.0782C24.8091 36.0652 24.7918 36.0739 24.7875 36.0695C24.7875 36.0782 24.7961 36.0782 24.8048 36.0782ZM24.8481 36.1258C24.8611 36.1302 24.8611 36.1042 24.8481 36.1085V36.1258ZM24.4497 36.1258H24.4237C24.4194 36.1431 24.4497 36.1431 24.4497 36.1258ZM24.2418 36.1388C24.2462 36.1215 24.2462 36.1561 24.2418 36.1388V36.1388ZM24.2678 36.1388C24.2591 36.1561 24.2981 36.1431 24.2981 36.1302C24.2851 36.1302 24.2721 36.1302 24.2678 36.1388ZM24.3761 36.1388C24.3761 36.1345 24.3804 36.1388 24.3761 36.1388V36.1388ZM24.0816 36.1518H24.0903C24.0989 36.1388 24.0729 36.1388 24.0773 36.1475C24.0773 36.1475 24.0816 36.1475 24.0816 36.1518ZM23.8391 36.1865C23.8391 36.1778 23.8348 36.1778 23.8261 36.1735C23.8261 36.1778 23.8261 36.1865 23.8391 36.1865ZM23.5749 36.1908C23.5836 36.1908 23.5879 36.1908 23.5966 36.1951V36.1778H23.5793C23.5793 36.1821 23.5749 36.1865 23.5749 36.1908ZM23.7655 36.1865C23.7698 36.2038 23.7785 36.1691 23.7655 36.1865V36.1865ZM23.8651 36.1908H23.8737V36.1778H23.8651V36.1908ZM23.8131 36.1951C23.8088 36.1951 23.8174 36.1994 23.8131 36.1951V36.1951ZM23.6702 36.1994C23.6659 36.1994 23.6745 36.2038 23.6702 36.1994V36.1994ZM24.7008 36.2427C24.7355 36.2514 24.7658 36.2254 24.8004 36.2211C24.8004 36.2081 24.8004 36.2038 24.7918 36.1994C24.7615 36.2168 24.7268 36.2254 24.7008 36.2427ZM23.5749 36.2254C23.5706 36.2254 23.5793 36.2298 23.5749 36.2254V36.2254ZM23.549 36.2298C23.5446 36.2298 23.5403 36.2298 23.5403 36.2341C23.5446 36.2298 23.549 36.2341 23.549 36.2298ZM24.6879 36.2471C24.6792 36.2384 24.6792 36.2644 24.6879 36.2644V36.2471C24.6965 36.2427 24.6879 36.2427 24.6879 36.2471ZM24.5146 36.3207C24.5103 36.3207 24.519 36.325 24.5146 36.3207V36.3207ZM24.2548 36.3813C24.2721 36.3727 24.2721 36.3813 24.2765 36.3856C24.2808 36.3597 24.3111 36.3856 24.3198 36.3597C24.2895 36.3727 24.2721 36.3553 24.2548 36.3813ZM24.3934 36.39H24.402V36.3856H24.3934V36.39ZM24.3068 36.3943C24.3154 36.3813 24.3198 36.416 24.3068 36.3943V36.3943ZM24.0383 36.0219C24.0426 36.0392 24.021 36.0219 24.0166 36.0306C24.0036 36.0219 24.0296 36.0219 24.0383 36.0219ZM24.0643 36.0219C24.0686 36.0046 24.0686 36.0435 24.0643 36.0219V36.0219ZM24.3674 36.0219C24.3761 36.0349 24.3847 36.0176 24.3977 36.0262C24.4064 36.0522 24.3761 36.0349 24.3717 36.0479C24.3587 36.0392 24.3631 36.0349 24.3674 36.0219ZM24.4237 36.0219C24.428 36.0219 24.4324 36.0306 24.4324 36.0435C24.4194 36.0392 24.4194 36.0392 24.402 36.0435C24.3977 36.0219 24.428 36.0392 24.4237 36.0219ZM24.7268 36.0695H24.7225C24.7182 36.0739 24.7225 36.0739 24.7268 36.0739C24.7225 36.0825 24.7312 36.0869 24.7312 36.0955C24.7182 36.0869 24.6662 36.1085 24.6619 36.0782C24.6705 36.0782 24.6792 36.0782 24.6792 36.0739C24.6879 36.0739 24.6879 36.0825 24.7008 36.0782C24.7138 36.0695 24.6879 36.0695 24.6965 36.0479C24.6359 36.0435 24.5753 36.0392 24.5146 36.0306C24.5016 36.0522 24.5233 36.0435 24.519 36.0695C24.506 36.0652 24.506 36.0479 24.4973 36.0349C24.4713 36.0349 24.4583 36.0565 24.4367 36.0306C24.5233 36.0219 24.6142 36.0219 24.7355 36.0349C24.7398 36.0565 24.7182 36.0479 24.7268 36.0695ZM24.2721 36.0306C24.2418 36.0479 24.1985 36.0565 24.1769 36.0349C24.2115 36.0349 24.2418 36.0349 24.2721 36.0306ZM23.9863 36.0349C23.9863 36.0306 23.9907 36.0306 23.995 36.0306C23.995 36.0349 23.9907 36.0349 23.9863 36.0349ZM24.2895 36.0349C24.2895 36.0219 24.3024 36.0479 24.3024 36.0306C24.3198 36.0392 24.2895 36.0479 24.2895 36.0349ZM24.3371 36.0349C24.3544 36.0219 24.3631 36.0522 24.3371 36.0349V36.0349ZM23.8954 36.0435C23.8954 36.0392 23.8997 36.0435 23.8954 36.0435V36.0435ZM23.9084 36.0435C23.9084 36.0349 23.9084 36.0392 23.9127 36.0349C23.9127 36.0435 23.9084 36.0392 23.9084 36.0435ZM24.1725 36.0435C24.1552 36.0739 24.0989 36.0306 24.0903 36.0739C24.0859 36.0739 24.0859 36.0652 24.0859 36.0565C24.0599 36.0609 24.0599 36.0609 24.0296 36.0609C24.0513 36.0349 24.1336 36.0479 24.1725 36.0435ZM24.2895 36.0349C24.2808 36.0392 24.2895 36.0435 24.2895 36.0349V36.0349ZM24.4107 36.0479C24.4237 36.0479 24.4107 36.0782 24.4367 36.0739C24.4367 36.0998 24.415 36.0869 24.402 36.0825C24.4107 36.0695 24.4107 36.0739 24.4107 36.0479ZM23.9907 36.0522C23.9993 36.0565 23.9907 36.0609 23.9907 36.0695C23.982 36.0652 23.9907 36.0565 23.9907 36.0522ZM24.0036 36.0565C24.0036 36.0435 24.0166 36.0565 24.0123 36.0695H24.0036C24.0036 36.0652 24.008 36.0565 24.0036 36.0565ZM24.4627 36.0565C24.4583 36.0565 24.467 36.0609 24.4627 36.0565V36.0565ZM23.9647 36.0609C23.9733 36.0435 23.9777 36.0782 23.9647 36.0609V36.0609ZM24.3847 36.0565C24.3804 36.0652 24.3761 36.0695 24.3717 36.0695C24.3717 36.0609 24.3761 36.0565 24.3847 36.0565ZM24.5363 36.0609C24.5363 36.0609 24.545 36.0522 24.5536 36.0565C24.5623 36.0652 24.532 36.0782 24.5363 36.0609ZM24.6316 36.0739C24.6316 36.0825 24.6272 36.0869 24.6272 36.0912C24.6099 36.0825 24.5883 36.0825 24.5709 36.0825C24.5796 36.0739 24.5709 36.0739 24.5709 36.0565C24.5839 36.0565 24.5883 36.0695 24.6012 36.0739C24.6099 36.0739 24.6012 36.0609 24.6099 36.0565C24.6316 36.0479 24.6099 36.0825 24.6316 36.0739ZM24.6316 36.0739C24.6316 36.0695 24.6229 36.0695 24.6272 36.0609C24.6402 36.0479 24.6575 36.0695 24.6532 36.0912C24.6359 36.0955 24.6446 36.0739 24.6316 36.0739ZM24.6792 36.0739H24.6619C24.6619 36.0652 24.6662 36.0609 24.6662 36.0565H24.6792V36.0739ZM23.8997 36.0609L23.9084 36.0695V36.0739H23.8954C23.8954 36.0695 23.8997 36.0695 23.8997 36.0609ZM23.9387 36.0695C23.9387 36.0609 23.9647 36.0565 23.9603 36.0739C23.9517 36.0739 23.9474 36.0652 23.9387 36.0695ZM24.2938 36.0695C24.2895 36.0652 24.2981 36.0695 24.2938 36.0695V36.0695ZM24.3284 36.0609C24.3414 36.0652 24.3501 36.0739 24.3544 36.0739C24.3587 36.0912 24.3458 36.0825 24.3458 36.0739C24.3414 36.0739 24.3414 36.0825 24.3414 36.0912C24.3328 36.1042 24.3371 36.0695 24.3284 36.0609ZM24.7268 36.0695C24.7312 36.0695 24.7355 36.0739 24.7355 36.0739H24.7268V36.0695ZM23.8737 36.0739C23.8824 36.0565 23.8824 36.0955 23.8737 36.0739V36.0739ZM24.3847 36.0739H24.3934C24.3934 36.0782 24.3891 36.0782 24.3891 36.0825C24.3847 36.0825 24.3847 36.0782 24.3761 36.0782C24.3804 36.0739 24.3847 36.0739 24.3847 36.0739ZM24.5233 36.0739C24.532 36.0565 24.532 36.0955 24.5233 36.0739V36.0739ZM24.5623 36.0739C24.5666 36.0565 24.5666 36.0955 24.5623 36.0739V36.0739ZM23.5749 36.0782C23.5706 36.0782 23.5793 36.0825 23.5749 36.0782V36.0782ZM24.4843 36.0739C24.4973 36.0739 24.5016 36.0739 24.5103 36.0782C24.5103 36.0869 24.48 36.0912 24.4843 36.0739ZM23.7611 36.0825C23.7611 36.0998 23.7438 36.0955 23.7525 36.1172C23.7352 36.0998 23.7135 36.1042 23.6962 36.0998C23.7005 36.0912 23.7005 36.0825 23.7135 36.0825C23.7178 36.1085 23.7438 36.0739 23.7611 36.0825ZM23.7698 36.0782H23.7785V36.0912H23.7698V36.0782ZM23.8131 36.0825C23.8088 36.0825 23.8174 36.0869 23.8131 36.0825V36.0825ZM23.956 36.0782C23.969 36.0739 23.969 36.1085 23.956 36.1042V36.0782ZM24.0556 36.0825C24.0513 36.0825 24.0599 36.0869 24.0556 36.0825V36.0825ZM23.8391 36.0825C23.8521 36.0869 23.8478 36.0998 23.8434 36.1042C23.8348 36.1042 23.8391 36.0912 23.8391 36.0825ZM23.9777 36.0825C23.9907 36.0782 23.9863 36.0955 23.9863 36.1042C23.9777 36.1042 23.9733 36.0955 23.9777 36.0825ZM24.1032 36.1042C24.0816 36.0998 24.0729 36.1172 24.0643 36.1042C24.0599 36.0912 24.0729 36.0955 24.0729 36.0825C24.0773 36.0955 24.0903 36.0998 24.1032 36.1042ZM24.1466 36.0912C24.1379 36.0955 24.1379 36.1042 24.1249 36.1042C24.1206 36.0912 24.1336 36.0912 24.1466 36.0912ZM24.7571 36.0955C24.7658 36.0739 24.7658 36.1172 24.7571 36.0955V36.0955ZM23.6659 36.0955C23.6745 36.0912 23.6702 36.1172 23.6572 36.1085V36.0998C23.6615 36.0998 23.6615 36.0998 23.6659 36.0955ZM23.6269 36.1042V36.1215C23.6096 36.1042 23.6096 36.1258 23.5879 36.1172C23.5793 36.1128 23.6096 36.1042 23.6182 36.0998C23.6182 36.1042 23.6226 36.1042 23.6269 36.1042ZM23.6269 36.1042C23.6269 36.0998 23.6356 36.0998 23.6269 36.1042V36.1042ZM23.6442 36.1042C23.6486 36.0825 23.6486 36.1258 23.6442 36.1042V36.1042ZM23.9127 36.0998C23.9084 36.1258 23.9344 36.1042 23.9127 36.0998V36.0998ZM23.5619 36.1172C23.5706 36.0955 23.5706 36.1302 23.5619 36.1172V36.1172ZM23.7871 36.1085C23.7915 36.1128 23.7871 36.1215 23.7958 36.1215C23.7915 36.1302 23.7785 36.1215 23.7871 36.1085ZM23.523 36.1215C23.5143 36.1215 23.5186 36.1128 23.523 36.1215V36.1215ZM23.5446 36.1215C23.5446 36.1172 23.549 36.1172 23.5533 36.1172C23.5533 36.1215 23.5446 36.1215 23.5446 36.1215ZM23.497 36.1215C23.484 36.1345 23.5143 36.1302 23.497 36.1215V36.1215ZM23.523 36.1215C23.5273 36.1215 23.5316 36.1215 23.5316 36.1258H23.523V36.1215ZM23.8088 36.1258C23.8131 36.1388 23.8218 36.1042 23.8088 36.1258V36.1258ZM23.7741 36.1258C23.7828 36.1085 23.7828 36.1475 23.7741 36.1258V36.1258ZM23.4494 36.1302C23.445 36.1302 23.4494 36.1345 23.4494 36.1302V36.1302ZM23.432 36.1388C23.4234 36.1388 23.4277 36.1302 23.432 36.1388V36.1388ZM23.3931 36.1388C23.4017 36.1518 23.3887 36.1475 23.3801 36.1475C23.3801 36.1388 23.3887 36.1345 23.3931 36.1388ZM23.432 36.1388C23.432 36.1518 23.4494 36.1302 23.432 36.1388V36.1388ZM23.3584 36.1475C23.3584 36.1431 23.3627 36.1431 23.3584 36.1475V36.1475ZM23.3584 36.1475C23.3368 36.1431 23.3541 36.1648 23.3584 36.1475V36.1475ZM23.4407 36.1475H23.4537V36.1648H23.4407V36.1475ZM23.1289 36.1561C23.1332 36.1388 23.1332 36.1778 23.1289 36.1561V36.1561ZM23.6789 36.1561C23.6659 36.1735 23.6962 36.1475 23.6789 36.1561V36.1561ZM23.2675 36.1561H23.2761V36.1735H23.2631V36.1648C23.2675 36.1648 23.2675 36.1605 23.2675 36.1561ZM23.5403 36.1648C23.5403 36.1605 23.5446 36.1648 23.5403 36.1648V36.1648ZM23.6312 36.1648C23.6312 36.1561 23.6399 36.1605 23.6442 36.1561C23.6399 36.1648 23.6356 36.1605 23.6312 36.1648ZM23.2242 36.1648C23.2285 36.1648 23.2285 36.1735 23.2328 36.1735C23.2328 36.1821 23.2198 36.1735 23.2242 36.1648ZM23.2458 36.1648C23.2588 36.1648 23.2588 36.1735 23.2502 36.1778H23.2415V36.1691C23.2458 36.1691 23.2458 36.1648 23.2458 36.1648ZM23.6182 36.1735C23.6139 36.1735 23.6182 36.1778 23.6182 36.1735V36.1735ZM24.428 36.1691C24.4107 36.1821 24.4454 36.1778 24.428 36.1691V36.1691ZM23.1765 36.1778C23.1722 36.2038 23.1809 36.1561 23.1765 36.1778V36.1778ZM22.999 36.1778C22.9903 36.2038 23.0206 36.1778 22.999 36.1778V36.1778ZM23.1289 36.1778C23.1073 36.1951 23.1506 36.1994 23.1289 36.1778V36.1778ZM23.3368 36.1778C23.3454 36.1951 23.3498 36.1648 23.3368 36.1778V36.1778ZM24.3717 36.1778C24.3674 36.1778 24.3761 36.1821 24.3717 36.1778V36.1778ZM23.2891 36.1865C23.2718 36.1865 23.2761 36.2124 23.2502 36.2124C23.2545 36.2038 23.2588 36.1951 23.2588 36.1865C23.2675 36.1994 23.2761 36.1735 23.2891 36.1865ZM23.4061 36.1865C23.4104 36.1821 23.4147 36.1865 23.4147 36.1778C23.4104 36.1821 23.4061 36.1778 23.4061 36.1865ZM22.2975 38.5292V38.5249C22.2931 38.5249 22.2975 38.5292 22.2975 38.5292C22.2931 38.6028 22.2585 38.6505 22.2498 38.6981C22.2368 38.776 22.2195 38.828 22.2022 38.8843C22.1719 38.9839 22.1329 39.0922 22.1113 39.1874C22.0983 39.2307 22.068 39.274 22.0506 39.3173C22.0333 39.3823 21.9987 39.4949 21.99 39.5339C21.9813 39.5988 21.925 39.7157 21.9164 39.7764C21.9077 39.7807 21.8991 39.7764 21.8991 39.785C21.8817 39.785 21.8861 39.772 21.8817 39.7634C21.8601 39.7894 21.8384 39.7461 21.8298 39.7634C21.7995 39.7547 21.8038 39.7157 21.7951 39.6941C21.7778 39.6941 21.7865 39.7157 21.7778 39.7201C21.7562 39.6984 21.7692 39.6421 21.7475 39.6205C21.7908 39.5858 21.7908 39.5036 21.8298 39.4602C21.8644 39.3 21.9294 39.1918 21.951 39.0185C22.055 38.6634 22.1069 38.2694 22.1156 37.845C22.1156 37.7541 22.1113 37.6978 22.1199 37.6328C22.0939 37.5808 22.1069 37.4899 22.0853 37.4336V37.4163C22.0766 37.412 22.0766 37.4336 22.0853 37.4336C22.0766 37.4769 22.1026 37.5072 22.0896 37.5462C22.0593 37.4206 22.0376 37.282 21.9857 37.1651C21.9164 37.0006 21.7995 36.862 21.5959 36.823C21.5266 36.836 21.479 36.797 21.4184 36.81C21.4141 36.8014 21.4011 36.8014 21.3967 36.797C21.3101 36.8187 21.2582 36.8577 21.1716 36.888C21.1586 36.888 21.1672 36.9053 21.1586 36.9096C21.1499 36.914 21.1542 36.901 21.1412 36.901C21.0893 36.9573 20.968 36.9962 20.8944 36.9399C20.8901 36.9096 20.8944 36.8663 20.8728 36.8533C20.8684 36.8144 20.8771 36.7884 20.8857 36.7537C20.9853 36.6931 21.1239 36.6585 21.2192 36.5848C21.2582 36.5978 21.3534 36.5415 21.3664 36.6022C21.4097 36.5935 21.44 36.5762 21.4747 36.5632C21.4747 36.5719 21.4747 36.5762 21.4704 36.5805C21.479 36.5762 21.5266 36.5589 21.5353 36.5502C21.544 36.5502 21.5526 36.5545 21.5483 36.5632C21.5613 36.5589 21.5656 36.5459 21.57 36.5372C21.5959 36.5459 21.5829 36.5372 21.6089 36.5286C21.6133 36.5415 21.6003 36.5415 21.6046 36.5502C21.6219 36.5415 21.6522 36.5459 21.6696 36.5286C21.7778 36.5112 21.8471 36.4593 21.938 36.4636C21.9424 36.4593 21.9467 36.4506 21.9467 36.4376C21.99 36.4593 22.0333 36.4116 22.068 36.429C22.0376 36.4549 22.016 36.4419 21.9943 36.4679C21.9943 36.4896 22.029 36.4593 22.0246 36.4896C22.003 36.4852 21.9813 36.4852 21.9813 36.5112C21.977 36.5112 21.977 36.5026 21.9727 36.4982C21.925 36.5156 21.8817 36.5156 21.8601 36.5502C21.8514 36.5459 21.8384 36.5459 21.8341 36.5372C21.8298 36.5415 21.8211 36.5415 21.8254 36.5589C21.8471 36.5762 21.8774 36.5545 21.8947 36.5459C21.9034 36.5459 21.8991 36.5545 21.8947 36.5589H21.9077C21.925 36.5545 21.9034 36.5502 21.9077 36.5415C21.951 36.5589 21.9857 36.5329 22.029 36.5242C22.029 36.5112 22.0073 36.5242 22.016 36.5026C22.0376 36.5069 22.0506 36.5286 22.0506 36.5415C22.0723 36.5415 22.0766 36.5286 22.0896 36.5286C22.0896 36.5112 22.068 36.5415 22.0636 36.5242C22.0636 36.5069 22.0809 36.5242 22.0853 36.5026C22.0766 36.4939 22.0636 36.5069 22.0463 36.5026C22.0506 36.4896 22.0333 36.4896 22.0376 36.4766C22.042 36.4679 22.0463 36.4506 22.0636 36.4506C22.0636 36.4549 22.0593 36.4549 22.0593 36.4593C22.0809 36.4636 22.0593 36.4419 22.0723 36.4376C22.0896 36.4376 22.0896 36.4463 22.0766 36.4549C22.0896 36.4593 22.0939 36.4506 22.0896 36.4376C22.0983 36.4506 22.1069 36.4549 22.1242 36.4506C22.1113 36.4766 22.0766 36.4593 22.0506 36.4896C22.0593 36.5112 22.0723 36.4852 22.0896 36.4896C22.0896 36.5026 22.1069 36.5026 22.0983 36.5242C22.1113 36.5242 22.1113 36.5156 22.1199 36.5156C22.1069 36.5112 22.1156 36.5069 22.1113 36.5026C22.1286 36.4982 22.1546 36.4896 22.1805 36.4896C22.1849 36.4896 22.1935 36.4679 22.1849 36.4636C22.1892 36.4506 22.2065 36.4549 22.2195 36.4506C22.2238 36.4593 22.2152 36.4593 22.2152 36.4679C22.2542 36.4593 22.2975 36.4636 22.3364 36.4376C22.3494 36.4376 22.3451 36.4593 22.3538 36.4593C22.3581 36.4463 22.3711 36.4419 22.3711 36.429C22.3754 36.4333 22.3841 36.4333 22.3971 36.4333V36.4506C22.4014 36.4333 22.4014 36.4333 22.4187 36.4419C22.423 36.429 22.4014 36.4333 22.4057 36.4116C22.4187 36.4073 22.423 36.4246 22.423 36.4073C22.436 36.4073 22.4274 36.4333 22.436 36.4376C22.449 36.4246 22.4447 36.4116 22.4663 36.416C22.4707 36.403 22.4577 36.403 22.4577 36.39C22.475 36.3943 22.4707 36.416 22.475 36.4333C22.475 36.4073 22.5226 36.3856 22.5313 36.403C22.553 36.3683 22.6006 36.3986 22.6179 36.364C22.6309 36.364 22.6266 36.3813 22.6439 36.3813C22.6526 36.377 22.6482 36.3683 22.6482 36.3597C22.6742 36.3597 22.7262 36.3553 22.7565 36.338C22.7651 36.338 22.7651 36.3597 22.7781 36.3597C22.7781 36.3553 22.7651 36.338 22.7825 36.325C22.7868 36.3207 22.8171 36.3337 22.8041 36.3164C22.8171 36.2947 22.8041 36.3423 22.8301 36.3337C22.8301 36.338 22.8258 36.338 22.8171 36.338C22.8128 36.351 22.8258 36.3467 22.8258 36.3597C22.8344 36.338 22.8474 36.3337 22.8388 36.3077C22.8604 36.299 22.8734 36.2601 22.8691 36.2384C22.8691 36.2298 22.8691 36.2298 22.8777 36.2341C22.8821 36.2298 22.8907 36.2081 22.8821 36.2038C22.9297 36.2124 23.0206 36.1821 23.0769 36.2254C23.0856 36.2384 23.0813 36.2644 23.0899 36.2774C23.1202 36.2687 23.1635 36.2817 23.1722 36.2601C23.1982 36.2731 23.2328 36.2341 23.2372 36.2774C23.2631 36.2774 23.2848 36.2557 23.3065 36.2731C23.3151 36.2601 23.2935 36.2168 23.2978 36.2124C23.3194 36.2081 23.3194 36.2514 23.3368 36.2254C23.3368 36.2254 23.3411 36.2298 23.3454 36.2298C23.3584 36.2298 23.3454 36.1994 23.3584 36.1951C23.3671 36.2038 23.3844 36.2038 23.3801 36.2254C23.3887 36.2254 23.3974 36.2254 23.4061 36.2168C23.4017 36.1994 23.3887 36.2211 23.3844 36.2168C23.3801 36.1951 23.4104 36.2081 23.4104 36.1908C23.4277 36.1951 23.4147 36.1994 23.4147 36.2168C23.4364 36.2254 23.4147 36.1865 23.4364 36.1951C23.4277 36.2211 23.458 36.2298 23.4883 36.2298C23.4927 36.2384 23.4797 36.2384 23.484 36.2514C23.3844 36.2687 23.2675 36.3034 23.1809 36.2947C23.1679 36.2947 23.1809 36.3207 23.1679 36.312C23.1679 36.299 23.1679 36.2904 23.1635 36.286C23.1419 36.2904 23.1592 36.3034 23.1635 36.3164C23.1289 36.3164 23.1029 36.325 23.0553 36.3337C23.0596 36.3727 23.038 36.39 23.0206 36.4073C22.9817 36.5112 22.947 36.6108 22.8994 36.6974C22.8821 36.7754 22.8388 36.8403 22.8344 36.9053C22.7868 36.9659 22.7868 37.0742 22.7348 37.1262C22.7305 37.1348 22.7392 37.1348 22.7392 37.1478C22.7089 37.2647 22.6612 37.3687 22.6222 37.4596V37.4812C22.6006 37.5375 22.6049 37.6198 22.5616 37.6804C22.5616 37.6848 22.5659 37.6848 22.5703 37.6848C22.553 37.7021 22.5486 37.7194 22.553 37.7454C22.527 37.8104 22.501 37.8926 22.4837 37.9792C22.4793 37.9792 22.475 37.9792 22.4707 37.9749C22.4534 38.0485 22.4274 38.1438 22.4014 38.2088C22.4101 38.2391 22.3971 38.2694 22.3754 38.2824C22.3884 38.3127 22.3581 38.3127 22.3711 38.3517C22.3408 38.3603 22.3624 38.4209 22.3234 38.4296C22.3364 38.4642 22.3191 38.5076 22.2975 38.5292ZM23.3627 36.2254C23.3627 36.2211 23.3714 36.2168 23.3714 36.2124C23.3627 36.2081 23.3498 36.2254 23.3627 36.2254ZM23.4147 36.2471C23.4364 36.2427 23.445 36.2514 23.4537 36.2298C23.4407 36.2298 23.419 36.2298 23.4147 36.2471ZM23.2285 36.2731C23.2112 36.2601 23.2155 36.2904 23.2285 36.2731V36.2731ZM23.0769 36.2904C23.0856 36.2774 23.0899 36.312 23.0769 36.2904V36.2904ZM22.8085 36.3423C22.8041 36.351 22.7998 36.3467 22.7955 36.3423C22.7868 36.364 22.8258 36.351 22.8085 36.3423ZM22.7392 36.364C22.7435 36.3423 22.7435 36.3856 22.7392 36.364V36.364ZM22.7218 36.3683C22.7305 36.3856 22.7348 36.351 22.7218 36.3683V36.3683ZM22.6612 36.3727C22.6612 36.3856 22.6699 36.3856 22.6829 36.3856V36.3683C22.6699 36.3683 22.6699 36.377 22.6612 36.3727ZM22.1113 36.5502C22.0896 36.5502 22.0723 36.5545 22.0636 36.5632C22.0853 36.5632 22.0983 36.5589 22.1113 36.5502C22.1242 36.5545 22.1329 36.5372 22.1416 36.5502C21.9424 36.6325 21.7085 36.6671 21.5223 36.7537C21.8298 36.81 22.0723 36.9746 22.1069 37.2474C22.1286 37.2431 22.1329 37.2907 22.1416 37.308C22.1372 37.3124 22.1242 37.3124 22.1242 37.321C22.1416 37.321 22.1372 37.347 22.1416 37.3557C22.1416 37.347 22.1459 37.3427 22.1546 37.3427C22.1805 37.4206 22.2195 37.5202 22.2022 37.5938C22.1935 37.5982 22.1979 37.5895 22.2022 37.5938V37.6112C22.2325 37.6415 22.2109 37.7108 22.2282 37.7627C22.1979 37.7974 22.2325 37.858 22.1935 37.897C22.1979 37.91 22.2065 37.9186 22.2065 37.9403C22.1935 37.9403 22.1979 37.9229 22.1935 37.9229C22.1849 37.9706 22.1935 37.9966 22.1892 38.0485C22.1979 38.0615 22.2109 38.0269 22.2152 38.0399C22.2152 38.0659 22.2238 38.0745 22.2152 38.0962C22.1892 38.0832 22.2065 38.1005 22.1935 38.1135C22.1935 38.1005 22.1935 38.0745 22.1849 38.0918C22.1935 38.1005 22.1589 38.1481 22.1849 38.1525C22.1805 38.1395 22.2109 38.1351 22.2109 38.1481C22.1935 38.1611 22.1589 38.2174 22.1892 38.2564C22.1632 38.2521 22.1719 38.2824 22.1892 38.2824V38.2564H22.1935C22.1935 38.2174 22.1935 38.1958 22.2065 38.1784C22.2109 38.2131 22.2022 38.2391 22.2065 38.2564C22.4101 37.6198 22.5876 36.9789 22.8258 36.3813C22.8041 36.3727 22.7955 36.3856 22.7651 36.39C22.7348 36.3986 22.7002 36.39 22.6699 36.3943C22.6569 36.3986 22.6439 36.4203 22.6222 36.4203C22.5097 36.4376 22.4057 36.4766 22.3018 36.4982C22.2715 36.5026 22.2585 36.5026 22.2368 36.5112C22.1979 36.5286 22.1416 36.5286 22.1113 36.5502ZM22.5616 36.403C22.5659 36.403 22.5703 36.4073 22.5789 36.4073V36.39C22.5703 36.39 22.5616 36.3943 22.5616 36.403ZM22.553 36.4073C22.553 36.403 22.5573 36.4116 22.553 36.4073V36.4073ZM22.5053 36.4203C22.514 36.4203 22.527 36.4246 22.527 36.416C22.5226 36.416 22.5226 36.4073 22.5183 36.4073C22.5183 36.416 22.5053 36.4116 22.5053 36.4203ZM22.3278 36.4636C22.3234 36.4636 22.3321 36.4679 22.3278 36.4636V36.4636ZM21.951 36.4896C21.964 36.4939 21.9857 36.4679 21.9684 36.4636C21.9727 36.4852 21.9554 36.4809 21.951 36.4896ZM22.2585 36.4809C22.2542 36.4766 22.2628 36.4852 22.2585 36.4809V36.4809ZM22.2152 36.4896H22.2325C22.2325 36.4896 22.2325 36.4809 22.2282 36.4809C22.2238 36.4896 22.2195 36.4896 22.2152 36.4896ZM21.938 36.4896C21.9337 36.4896 21.938 36.4939 21.938 36.4896V36.4896ZM21.9337 36.4896C21.9294 36.4939 21.925 36.4896 21.925 36.4982C21.9294 36.4939 21.9337 36.4982 21.9337 36.4896ZM21.9034 36.5026C21.9121 36.4852 21.9121 36.5242 21.9034 36.5026V36.5026ZM22.1719 36.4982H22.1546C22.1416 36.5199 22.1762 36.5112 22.1719 36.4982ZM22.1935 36.5026C22.1979 36.4852 22.1979 36.5242 22.1935 36.5026V36.5026ZM22.1329 36.5112C22.1199 36.5286 22.1459 36.4982 22.1329 36.5112V36.5112ZM21.7865 36.5632C21.8038 36.5589 21.7995 36.5632 21.8125 36.5719C21.8125 36.5589 21.8125 36.5545 21.8038 36.5502C21.8038 36.5632 21.7778 36.5459 21.7865 36.5632ZM21.9987 36.5502C21.9943 36.5502 21.9857 36.5502 21.9857 36.5545C21.99 36.5545 21.9987 36.5545 21.9987 36.5502ZM21.7605 36.5762L21.7475 36.5632C21.7388 36.5762 21.7605 36.5892 21.7605 36.5762C21.7735 36.5719 21.7735 36.5805 21.7778 36.5805C21.7778 36.5719 21.7821 36.5719 21.7821 36.5632C21.7778 36.5545 21.7648 36.5632 21.7605 36.5762ZM22.042 36.5632C22.0506 36.5805 22.055 36.5459 22.042 36.5632V36.5632ZM21.938 36.5719C21.9294 36.5892 21.9554 36.5589 21.938 36.5719V36.5719ZM21.9337 36.6022C21.9684 36.5935 22.0073 36.5892 22.0376 36.5719C21.99 36.5719 21.9554 36.5805 21.9337 36.6022ZM21.6999 36.5848C21.6825 36.5848 21.6652 36.5978 21.6739 36.6065C21.6739 36.5935 21.7042 36.6108 21.7042 36.5935C21.6999 36.5935 21.6999 36.5892 21.6999 36.5848C21.7085 36.5892 21.7085 36.5978 21.7258 36.5935C21.7215 36.5892 21.7258 36.5892 21.7258 36.5805C21.7172 36.5762 21.7042 36.5719 21.6999 36.5848ZM21.7388 36.5762C21.7345 36.5762 21.7302 36.5762 21.7302 36.5805C21.7345 36.5805 21.7388 36.5805 21.7388 36.5762ZM21.427 36.6065C21.3924 36.6108 21.453 36.6065 21.427 36.6065V36.6065ZM21.9077 36.6065C21.9164 36.6238 21.9207 36.5935 21.9077 36.6065V36.6065ZM21.8817 36.6195C21.8817 36.6108 21.8774 36.6108 21.8774 36.6195C21.8817 36.6195 21.8817 36.6238 21.8817 36.6195ZM21.8428 36.6282C21.8514 36.6282 21.8688 36.6325 21.8601 36.6195H21.8428V36.6282ZM22.042 37.2777C22.0376 37.308 22.0463 37.2604 22.042 37.2777V37.2777ZM22.042 37.3037C22.0463 37.3037 22.0463 37.308 22.0506 37.308C22.0506 37.3037 22.0506 37.2907 22.042 37.295V37.3037ZM22.0506 37.321H22.0636V37.3167H22.0506V37.321ZM22.5486 37.3557C22.5443 37.3557 22.553 37.36 22.5486 37.3557V37.3557ZM22.5486 37.373C22.5443 37.373 22.54 37.373 22.54 37.3773C22.54 37.3773 22.5486 37.3773 22.5486 37.373ZM22.5226 37.3903C22.5183 37.386 22.527 37.3946 22.5226 37.3903V37.3903ZM22.1719 38.4686C22.1849 38.4859 22.1762 38.5076 22.1719 38.5249C22.1589 38.5249 22.1459 38.5249 22.1589 38.5379C22.1502 38.5422 22.1719 38.5379 22.1805 38.5509C22.1892 38.5162 22.2109 38.4859 22.2065 38.4469C22.2455 38.3993 22.2455 38.304 22.2758 38.2564C22.3061 38.1438 22.3494 37.9922 22.4014 37.8667C22.4014 37.819 22.423 37.7497 22.449 37.7064C22.449 37.6934 22.449 37.6848 22.4447 37.6848C22.475 37.5982 22.514 37.4899 22.5183 37.3946C22.4014 37.7194 22.2888 38.1395 22.1719 38.4686ZM22.1632 37.4206C22.1676 37.399 22.1676 37.4379 22.1632 37.4206V37.4206ZM22.6136 37.4336C22.6179 37.4163 22.6179 37.4509 22.6136 37.4336V37.4336ZM22.1676 37.4423C22.1676 37.4379 22.1589 37.4379 22.1589 37.4423C22.1632 37.4423 22.1676 37.4509 22.1676 37.4423ZM22.1676 37.4596C22.1632 37.4856 22.1719 37.4379 22.1676 37.4596V37.4596ZM22.5919 37.5072C22.5833 37.5332 22.6093 37.5072 22.5919 37.5072V37.5072ZM22.1459 37.5808C22.1416 37.5635 22.1502 37.5289 22.1372 37.5202C22.1242 37.5419 22.1372 37.5722 22.1459 37.5808ZM22.5616 37.6068C22.5746 37.6155 22.5746 37.5808 22.5659 37.5808C22.5616 37.5852 22.5573 37.5938 22.5616 37.6068ZM22.1459 37.6285C22.1459 37.6241 22.1502 37.6285 22.1459 37.6285V37.6285ZM22.5443 37.6848C22.54 37.6718 22.5573 37.6545 22.5486 37.6415C22.5486 37.6588 22.527 37.6761 22.5443 37.6848ZM22.1589 37.7237C22.1632 37.7064 22.1589 37.6848 22.1459 37.6804C22.1546 37.6978 22.1329 37.7194 22.1589 37.7237ZM22.527 37.7324C22.527 37.7281 22.527 37.7194 22.54 37.7237C22.5356 37.7151 22.5443 37.6934 22.5313 37.6978C22.5356 37.7064 22.514 37.7194 22.527 37.7324ZM22.2065 37.7584C22.2022 37.7411 22.2109 37.7367 22.2152 37.7237C22.2109 37.7194 22.2065 37.7151 22.1935 37.7151C22.2065 37.7367 22.1805 37.7497 22.2065 37.7584ZM22.1589 37.858C22.1502 37.8233 22.1589 37.7757 22.1459 37.7367C22.1459 37.7627 22.1329 37.8363 22.1589 37.858ZM22.5226 37.7367C22.514 37.7411 22.5226 37.7454 22.5226 37.7367V37.7367ZM22.54 37.7367C22.5356 37.7367 22.54 37.7411 22.54 37.7367V37.7367ZM22.514 37.7627C22.5183 37.7454 22.5183 37.7844 22.514 37.7627V37.7627ZM22.5053 37.8233C22.5053 37.8104 22.5183 37.7887 22.5053 37.78C22.501 37.7887 22.4967 37.8147 22.5053 37.8233ZM22.475 37.9056C22.4837 37.8883 22.5053 37.8537 22.4923 37.832C22.4837 37.8537 22.462 37.8883 22.475 37.9056ZM22.1546 38.0182C22.1459 37.9663 22.1719 37.897 22.1416 37.871C22.1459 37.9359 22.1286 37.9922 22.1546 38.0182ZM22.475 37.9143C22.4707 37.9143 22.4663 37.9143 22.4663 37.9186C22.4663 37.9186 22.475 37.9186 22.475 37.9143ZM22.4014 38.1481C22.436 38.1178 22.4144 38.0139 22.4577 37.9966C22.4447 37.9663 22.475 37.9403 22.4577 37.9229C22.4404 37.9966 22.4057 38.0702 22.4014 38.1481ZM22.4014 37.9966C22.3971 37.9966 22.3884 37.9966 22.3884 38.0009C22.3927 38.0009 22.4014 38.0009 22.4014 37.9966ZM22.1416 38.2564C22.1329 38.1958 22.1632 38.0788 22.1416 38.0225C22.1459 38.1005 22.1026 38.1871 22.1416 38.2564ZM22.3797 38.2174C22.3884 38.2131 22.4014 38.1698 22.3841 38.1698C22.3927 38.1958 22.3624 38.2044 22.3797 38.2174ZM22.3711 38.2521C22.3711 38.2477 22.3841 38.2304 22.3711 38.2304C22.3667 38.2347 22.3581 38.2477 22.3711 38.2521ZM22.3061 38.2564C22.3191 38.2607 22.3278 38.2434 22.3148 38.2391C22.3148 38.2477 22.3105 38.2521 22.3061 38.2564ZM22.0983 38.408C22.1069 38.5119 22.0593 38.5768 22.0766 38.6721C22.0939 38.6201 22.0983 38.5509 22.0983 38.4902C22.1199 38.4166 22.1416 38.3257 22.1242 38.2651C22.1113 38.3127 22.1199 38.369 22.0983 38.408ZM22.3408 38.3257C22.3581 38.3213 22.3624 38.2737 22.3581 38.2607C22.3538 38.2867 22.3408 38.2997 22.3408 38.3257ZM22.1849 38.291C22.1892 38.2737 22.1892 38.3084 22.1849 38.291V38.291ZM22.1719 38.3127C22.1632 38.3257 22.1546 38.356 22.1632 38.3603C22.1805 38.3603 22.1935 38.33 22.1849 38.3084C22.1849 38.3213 22.1676 38.2954 22.1676 38.3084C22.1719 38.3084 22.1762 38.3084 22.1719 38.3127ZM22.3278 38.3776C22.3408 38.3776 22.3451 38.343 22.3364 38.3387C22.3321 38.3517 22.3234 38.3603 22.3278 38.3776ZM22.2845 38.3603C22.2801 38.3647 22.2758 38.3603 22.2758 38.369C22.2758 38.3647 22.2845 38.369 22.2845 38.3603ZM22.1632 38.382C22.1589 38.4253 22.1762 38.369 22.1632 38.382V38.382ZM22.3018 38.4469C22.3191 38.4469 22.3321 38.395 22.3148 38.395C22.3061 38.4123 22.3105 38.4253 22.3018 38.4469ZM22.2801 38.5205C22.2931 38.5205 22.2975 38.4946 22.2888 38.4902C22.2845 38.4989 22.2845 38.5119 22.2801 38.5205ZM22.2628 38.5682C22.2801 38.5768 22.2758 38.5465 22.2671 38.5465C22.2715 38.5595 22.2585 38.5595 22.2628 38.5682ZM22.1676 38.5682C22.1589 38.5725 22.1676 38.5725 22.1676 38.5682C22.1892 38.5682 22.1676 38.5638 22.1805 38.5552C22.1676 38.5552 22.1676 38.5638 22.1676 38.5682ZM22.2195 38.5682H22.2109C22.2152 38.5682 22.2195 38.5768 22.2195 38.5682ZM22.2585 38.6115C22.2542 38.5985 22.2715 38.5898 22.2585 38.5855C22.2628 38.5942 22.2455 38.6072 22.2585 38.6115ZM22.2455 38.6375C22.2412 38.6678 22.2455 38.6201 22.2455 38.6375V38.6375ZM22.0376 38.8367C22.042 38.789 22.0896 38.7197 22.0636 38.6851C22.055 38.7414 22.0246 38.7847 22.0376 38.8367ZM22.2282 38.7111C22.2282 38.7068 22.2412 38.6851 22.2195 38.6894C22.2238 38.6981 22.2195 38.7068 22.2282 38.7111ZM22.1935 38.7934C22.1935 38.7804 22.2152 38.7717 22.2022 38.7587C22.1979 38.7674 22.1849 38.7847 22.1935 38.7934ZM22.1892 38.8064C22.1849 38.802 22.1935 38.8107 22.1892 38.8064V38.8064ZM22.1892 38.8367C22.1892 38.828 22.1892 38.8237 22.1805 38.8193C22.1762 38.828 22.1805 38.8367 22.1892 38.8367ZM22.1849 38.88C22.1892 38.8713 22.1849 38.8453 22.1676 38.841C22.1719 38.854 22.1676 38.88 22.1849 38.88ZM22.1329 38.9622C22.1416 38.9839 22.1156 39.0012 22.1242 39.0099C22.1416 38.9839 22.1805 38.9233 22.1632 38.8886C22.1502 38.9103 22.1502 38.9709 22.1329 38.9622ZM22.1069 39.0748C22.1199 39.0705 22.1242 39.0359 22.1156 39.0272C22.1156 39.0445 22.1069 39.0532 22.1069 39.0748ZM22.0853 39.1701C22.0896 39.1485 22.0896 39.1918 22.0853 39.1701V39.1701ZM21.9294 39.2654C21.9337 39.2437 21.9337 39.287 21.9294 39.2654V39.2654ZM23.0726 36.1994C23.0726 36.1951 23.0769 36.1951 23.0769 36.1951C23.0769 36.1994 23.0769 36.1994 23.0726 36.1994ZM23.051 36.2038C23.051 36.1994 23.0553 36.1994 23.0596 36.1994C23.0596 36.2038 23.0553 36.2038 23.051 36.2038ZM22.8561 36.2124C22.8431 36.2298 22.8691 36.1994 22.8561 36.2124V36.2124ZM23.2372 36.2168C23.2372 36.2124 23.2415 36.2124 23.2458 36.2124C23.2458 36.2168 23.2415 36.2168 23.2372 36.2168ZM23.3368 36.2254C23.3281 36.2254 23.3238 36.2211 23.3238 36.2124C23.3324 36.2081 23.3368 36.2168 23.3368 36.2254ZM22.7911 36.2168C22.7955 36.2168 22.7955 36.2211 22.8041 36.2211V36.2298C22.7911 36.2298 22.7738 36.2341 22.7608 36.2341C22.7565 36.2168 22.7868 36.2298 22.7911 36.2168ZM23.2675 36.2254C23.2631 36.2254 23.2718 36.2298 23.2675 36.2254V36.2254ZM23.2242 36.2341C23.2198 36.2384 23.2198 36.2427 23.2198 36.2471C23.2069 36.2298 23.1852 36.2731 23.1852 36.2384C23.2025 36.2341 23.2025 36.2298 23.2242 36.2341ZM23.7525 36.2298C23.7525 36.2427 23.7092 36.2601 23.7135 36.2341C23.7222 36.2298 23.7438 36.2298 23.7525 36.2298ZM23.7611 36.2341C23.7611 36.2298 23.7698 36.2341 23.7698 36.2298C23.7655 36.2298 23.7611 36.2298 23.7611 36.2341ZM22.8691 36.2384C22.8647 36.2557 22.8561 36.2557 22.8431 36.2427C22.8431 36.2298 22.8647 36.2298 22.8691 36.2384ZM23.2328 36.2384C23.2328 36.2298 23.2372 36.2341 23.2328 36.2384V36.2384ZM23.2891 36.2341C23.2978 36.2341 23.2935 36.2471 23.2935 36.2514C23.2848 36.2514 23.2848 36.2384 23.2891 36.2341ZM22.7132 36.2384C22.7218 36.2341 22.7218 36.2427 22.7218 36.2471C22.7175 36.2471 22.7175 36.2514 22.7175 36.2514C22.7132 36.2514 22.7132 36.2427 22.7132 36.2384ZM23.2328 36.2384C23.2285 36.2427 23.2328 36.2427 23.2328 36.2384V36.2384ZM22.6526 36.2427C22.6612 36.2427 22.6569 36.2557 22.6612 36.2644C22.6396 36.2601 22.6352 36.2774 22.6136 36.2731C22.6093 36.2384 22.6482 36.2731 22.6526 36.2427ZM22.6872 36.2427H22.6959V36.2514H22.6872V36.2427ZM22.7911 36.2817C22.7955 36.2601 22.7738 36.2644 22.7868 36.2427C22.8041 36.2557 22.7955 36.2427 22.8171 36.2427C22.8214 36.2601 22.8128 36.2601 22.8171 36.2774C22.7998 36.2731 22.8041 36.2774 22.7911 36.2817ZM22.7955 36.2687H22.8085V36.2601H22.7955V36.2687ZM23.1419 36.2471C23.1419 36.2427 23.1462 36.2427 23.1506 36.2427C23.1506 36.2471 23.1462 36.2471 23.1419 36.2471ZM24.506 36.2471C24.5103 36.2298 24.5103 36.2687 24.506 36.2471V36.2471ZM22.7695 36.2687C22.7651 36.2687 22.7651 36.2644 22.7651 36.2601C22.7608 36.2601 22.7651 36.2731 22.7478 36.2687C22.7392 36.2427 22.7955 36.2514 22.7695 36.2687ZM23.1289 36.2514H23.1419V36.2644H23.1289V36.2514ZM23.2675 36.2601C23.2675 36.2514 23.2761 36.2514 23.2761 36.2601C23.2761 36.2644 23.2718 36.2601 23.2675 36.2601ZM22.7305 36.2644C22.7348 36.2427 22.7348 36.2817 22.7305 36.2644V36.2644ZM22.7002 36.2644C22.7132 36.2687 22.6959 36.2817 22.6872 36.2774C22.6785 36.2601 22.7045 36.2774 22.7002 36.2644ZM22.7132 36.2687C22.7175 36.2471 22.7175 36.286 22.7132 36.2687V36.2687ZM23.1202 36.2687C23.1159 36.2687 23.1246 36.2731 23.1202 36.2687V36.2687ZM22.5919 36.2731C22.5919 36.2817 22.5659 36.2817 22.5746 36.2687H22.5876C22.5876 36.2731 22.5876 36.2731 22.5919 36.2731ZM22.5919 36.2731C22.6006 36.2601 22.6179 36.2817 22.5919 36.2731V36.2731ZM22.5659 36.2774C22.5659 36.286 22.5486 36.286 22.5443 36.2817C22.553 36.2731 22.5573 36.2774 22.5659 36.2774ZM22.5313 36.2774C22.5183 36.2904 22.553 36.2904 22.5313 36.2774V36.2774ZM22.6439 36.2774C22.6482 36.299 22.6179 36.2817 22.6136 36.2947C22.6049 36.286 22.6266 36.2774 22.6439 36.2774ZM22.7608 36.2817C22.7478 36.299 22.7738 36.2731 22.7608 36.2817V36.2817ZM22.5226 36.2817C22.5053 36.2947 22.4793 36.299 22.4577 36.312V36.286C22.4923 36.2817 22.5053 36.286 22.5226 36.2817ZM22.7392 36.299C22.7218 36.3077 22.7348 36.286 22.7175 36.2904C22.7175 36.2774 22.7435 36.2817 22.7392 36.299ZM22.7911 36.2817C22.7825 36.2817 22.7911 36.286 22.7911 36.2817V36.2817ZM22.5659 36.286C22.5703 36.286 22.5789 36.2947 22.5876 36.2947C22.5833 36.3077 22.5573 36.3034 22.5659 36.286ZM24.2981 36.2904C24.3068 36.2904 24.3068 36.286 24.3198 36.286C24.3198 36.299 24.2981 36.2947 24.2981 36.3077C24.2895 36.3034 24.2895 36.299 24.2808 36.2947C24.2808 36.2904 24.2981 36.2817 24.2981 36.2904ZM22.8085 36.2947C22.8041 36.2947 22.8128 36.299 22.8085 36.2947V36.2947ZM24.1985 36.3207C24.2115 36.299 24.2418 36.3034 24.2548 36.299C24.2548 36.3207 24.2202 36.3034 24.2245 36.325C24.2158 36.3294 24.2028 36.3294 24.1985 36.3207ZM24.2591 36.2947H24.2721V36.3077H24.2591V36.2947ZM22.6699 36.3077C22.6785 36.2904 22.6829 36.325 22.6699 36.3077V36.3077ZM22.6915 36.299C22.7045 36.3034 22.7132 36.3294 22.6915 36.325C22.6829 36.3164 22.6959 36.3164 22.6915 36.299ZM22.7132 36.312C22.7132 36.3077 22.7175 36.3164 22.7132 36.312V36.312ZM22.3884 36.3164C22.3841 36.3423 22.3927 36.2947 22.3884 36.3164V36.3164ZM22.6396 36.3164C22.6352 36.3164 22.6439 36.3207 22.6396 36.3164V36.3164ZM22.3538 36.325C22.3581 36.3077 22.3581 36.3423 22.3538 36.325V36.325ZM22.6482 36.3207C22.6569 36.3337 22.6266 36.3337 22.6439 36.3337C22.6439 36.338 22.6396 36.338 22.6396 36.338H22.6266V36.325C22.6309 36.3207 22.6396 36.3207 22.6482 36.3207ZM22.7478 36.3207C22.7651 36.312 22.7651 36.3423 22.7478 36.3337V36.3207ZM24.1985 36.3207C24.1899 36.3337 24.1855 36.3294 24.1639 36.3337C24.1639 36.3164 24.1812 36.3207 24.1985 36.3207ZM22.449 36.3337C22.4534 36.312 22.4534 36.3467 22.449 36.3337V36.3337ZM22.6006 36.3337C22.6006 36.3337 22.6093 36.3294 22.6136 36.3337C22.6179 36.3337 22.5963 36.3423 22.6006 36.3337ZM22.6959 36.3337C22.7045 36.338 22.7089 36.3337 22.7175 36.3337C22.7218 36.3423 22.7045 36.338 22.6959 36.3423V36.3337ZM24.1249 36.338C24.1249 36.3337 24.1292 36.3294 24.1379 36.3337C24.1379 36.3337 24.1336 36.338 24.1249 36.338ZM24.1466 36.3337C24.1422 36.3337 24.1466 36.338 24.1466 36.3337V36.3337ZM24.1119 36.338C24.1162 36.3207 24.1162 36.3597 24.1119 36.338V36.338ZM22.501 36.338H22.5053V36.3467H22.501V36.338ZM22.553 36.3423C22.5573 36.325 22.5573 36.364 22.553 36.3423V36.3423ZM22.6482 36.3423C22.6569 36.325 22.6569 36.364 22.6482 36.3423V36.3423ZM22.6829 36.3423C22.6785 36.3423 22.6829 36.3467 22.6829 36.3423V36.3423ZM24.0903 36.3423C24.0903 36.338 24.0989 36.338 24.1032 36.338C24.1032 36.3423 24.0946 36.3423 24.0903 36.3423ZM24.1249 36.338C24.1162 36.3423 24.1249 36.3423 24.1249 36.338V36.338ZM22.3538 36.3423C22.3624 36.3423 22.3711 36.3423 22.3711 36.3553H22.3538V36.3423ZM22.5443 36.3423C22.54 36.3553 22.527 36.3597 22.5053 36.3597C22.514 36.3467 22.5313 36.3467 22.5443 36.3423ZM24.0729 36.3467C24.0686 36.3467 24.0729 36.351 24.0729 36.3467V36.3467ZM22.2412 36.3467H22.2498V36.3597H22.2412V36.3467ZM22.3364 36.3467C22.3408 36.364 22.2628 36.3943 22.2585 36.3683C22.2975 36.364 22.3105 36.3597 22.3364 36.3467ZM24.0426 36.3467H24.0556C24.0556 36.3597 24.047 36.3597 24.0383 36.3597C24.0383 36.3553 24.0426 36.3553 24.0426 36.3467ZM24.7441 36.364C24.7485 36.364 24.7485 36.364 24.7485 36.3597C24.7875 36.3597 24.7918 36.3423 24.8264 36.3553C24.8178 36.3856 24.7745 36.3553 24.7701 36.3856C24.7571 36.3727 24.7485 36.377 24.7441 36.364ZM22.4837 36.3597C22.4923 36.377 22.4967 36.338 22.4837 36.3597V36.3597ZM22.2152 36.364C22.2152 36.3597 22.2238 36.3597 22.2152 36.364V36.364ZM22.2152 36.364C22.2152 36.3727 22.2065 36.3727 22.2109 36.3856C22.2325 36.3856 22.2412 36.3683 22.2542 36.3813C22.2455 36.39 22.2152 36.39 22.1935 36.403C22.1849 36.39 22.2152 36.3856 22.1935 36.3813C22.1935 36.3683 22.2022 36.364 22.2152 36.364ZM22.4014 36.364C22.3971 36.3727 22.3927 36.3727 22.3841 36.3727C22.3884 36.3683 22.3927 36.364 22.4014 36.364ZM22.4057 36.364C22.4144 36.3683 22.4187 36.3727 22.4187 36.3813C22.4101 36.377 22.4057 36.3727 22.4057 36.364ZM22.514 36.3683C22.527 36.3597 22.527 36.39 22.514 36.3856V36.3683ZM22.3105 36.3813C22.3191 36.3856 22.3234 36.3943 22.3278 36.4073C22.3191 36.4073 22.3191 36.4073 22.3148 36.4116C22.3061 36.3986 22.3061 36.39 22.3105 36.3813ZM22.3797 36.3856C22.3711 36.3943 22.3581 36.3943 22.3494 36.403C22.3494 36.39 22.3581 36.3856 22.3797 36.3856ZM22.475 36.3856C22.4793 36.3856 22.4837 36.3856 22.4837 36.3943C22.475 36.3986 22.475 36.39 22.475 36.3856ZM22.1676 36.3856C22.1762 36.39 22.1892 36.39 22.1849 36.4073H22.1676V36.3856ZM22.4447 36.39C22.4404 36.39 22.4447 36.3943 22.4447 36.39V36.39ZM22.1242 36.4506C22.1286 36.4419 22.1329 36.4376 22.1329 36.4333C22.1286 36.4246 22.1199 36.4246 22.1156 36.4203C22.1069 36.4203 22.1069 36.4376 22.1156 36.4376C22.1113 36.4506 22.0896 36.3986 22.0853 36.4333C22.0636 36.4203 22.0896 36.416 22.0896 36.4073C22.1026 36.4246 22.1242 36.4116 22.1242 36.39C22.1416 36.403 22.1459 36.4376 22.1242 36.4506ZM22.1416 36.403C22.1459 36.3856 22.1502 36.4203 22.1416 36.403V36.403ZM22.3624 36.4073C22.3667 36.3986 22.3754 36.403 22.3754 36.4073C22.3711 36.416 22.3711 36.4073 22.3624 36.4073ZM22.3841 36.4073C22.3841 36.403 22.3884 36.4116 22.3841 36.4073V36.4073ZM22.2845 36.4073C22.2801 36.4203 22.2758 36.429 22.2628 36.4333C22.2585 36.429 22.2585 36.4203 22.2585 36.4116C22.2715 36.416 22.2715 36.403 22.2845 36.4073ZM22.2455 36.416C22.2498 36.4203 22.2542 36.4246 22.2542 36.4376C22.2455 36.4333 22.2368 36.4246 22.2455 36.416ZM22.2282 36.429C22.2325 36.4116 22.2412 36.4419 22.2282 36.429V36.429ZM22.1416 36.4333C22.1546 36.4203 22.1589 36.4506 22.1805 36.4376C22.1719 36.4463 22.1589 36.4506 22.1416 36.4506C22.1416 36.4376 22.1589 36.4376 22.1416 36.4333ZM22.6266 36.4333C22.6266 36.4376 22.6093 36.4333 22.6093 36.4419C22.5963 36.4376 22.6136 36.429 22.6266 36.4333ZM22.2801 36.4376C22.2758 36.4506 22.2671 36.4506 22.2585 36.4419C22.2585 36.4376 22.2715 36.4376 22.2801 36.4376ZM22.2325 36.4506C22.2282 36.4463 22.2368 36.4506 22.2325 36.4506V36.4506ZM22.1719 36.4593C22.1676 36.4593 22.1719 36.4506 22.1719 36.4593V36.4593ZM22.527 36.4549C22.527 36.4636 22.514 36.4549 22.514 36.4636C22.501 36.4593 22.5183 36.4506 22.527 36.4549ZM21.8211 36.4593C21.8254 36.4593 21.8298 36.4636 21.8298 36.4636C21.8341 36.4766 21.8125 36.4723 21.8211 36.4593ZM22.1719 36.4593C22.1676 36.4809 22.1892 36.4593 22.1719 36.4593V36.4593ZM22.4967 36.4636C22.4923 36.4636 22.501 36.4679 22.4967 36.4636V36.4636ZM22.4793 36.4636C22.475 36.4723 22.4707 36.4723 22.4577 36.4766C22.4534 36.4593 22.4707 36.4679 22.4793 36.4636ZM22.4274 36.4809C22.4274 36.4766 22.4317 36.4766 22.436 36.4766C22.436 36.4809 22.4317 36.4809 22.4274 36.4809ZM21.7605 36.4852C21.7605 36.4809 21.7692 36.4809 21.7735 36.4809C21.7692 36.4852 21.7648 36.4852 21.7605 36.4852ZM22.0896 36.4896C22.0896 36.4852 22.0939 36.4852 22.0939 36.4809H22.1069V36.4982C22.0983 36.4939 22.0939 36.4896 22.0896 36.4896ZM22.4014 36.4896C22.4014 36.4852 22.4057 36.4852 22.4101 36.4852C22.4101 36.4896 22.4014 36.4896 22.4014 36.4896ZM22.3538 36.4896C22.3321 36.5026 22.3711 36.5069 22.3538 36.4896V36.4896ZM21.6825 36.5069C21.6782 36.5069 21.6869 36.5112 21.6825 36.5069V36.5069ZM22.3234 36.5069C22.3234 36.5026 22.3321 36.5026 22.3364 36.5026C22.3364 36.5069 22.3278 36.5069 22.3234 36.5069ZM21.6696 36.5286C21.6609 36.5242 21.6392 36.5329 21.6436 36.5156C21.6522 36.5199 21.6566 36.5242 21.6566 36.5112C21.6652 36.5112 21.6739 36.5156 21.6696 36.5286ZM21.99 36.5112C21.9987 36.5156 21.99 36.5199 21.99 36.5286C21.9857 36.5242 21.99 36.5199 21.99 36.5112ZM22.2758 36.5156C22.2368 36.5372 22.1935 36.5459 22.1416 36.5502C22.1805 36.5329 22.2325 36.5286 22.2758 36.5156ZM21.6262 36.5286C21.6219 36.5199 21.6306 36.5242 21.6262 36.5286V36.5286ZM21.9554 36.5242C21.9727 36.5199 21.9684 36.5286 21.9813 36.5286C21.9813 36.5329 21.9597 36.5415 21.9554 36.5329V36.5242ZM21.6262 36.5286C21.6046 36.5242 21.6306 36.5459 21.6262 36.5286V36.5286ZM21.9337 36.5415C21.9207 36.5545 21.9467 36.5329 21.9337 36.5415V36.5415ZM21.2755 36.8577C21.2712 36.8533 21.2798 36.8577 21.2755 36.8577V36.8577ZM21.2538 36.8663C21.2495 36.875 21.2452 36.875 21.2365 36.875C21.2365 36.8663 21.2452 36.8663 21.2538 36.8663ZM22.1329 37.2517C22.1286 37.2517 22.1329 37.2561 22.1329 37.2517V37.2517ZM22.0896 37.5808C22.1113 37.5895 22.0939 37.6371 22.0983 37.6675C22.0896 37.6415 22.0809 37.6025 22.0896 37.5808ZM22.0939 37.6891C22.0939 37.7324 22.1069 37.6804 22.0939 37.6891V37.6891ZM22.0939 37.7454C22.0939 37.7411 22.0983 37.7454 22.0939 37.7454V37.7454ZM22.2022 37.9446C22.2109 37.9576 22.2325 38.0139 22.1935 38.0096C22.2152 37.9922 22.1892 37.9706 22.2022 37.9446Z" fill="url(#paint2_linear_32_180)"/>
<defs>
<linearGradient id="paint0_linear_32_180" x1="12.76" y1="6.16" x2="31.2201" y2="6.16" gradientUnits="userSpaceOnUse">
<stop stop-color="#905E26"/>
<stop offset="0.52" stop-color="#F5EC9B"/>
<stop offset="1" stop-color="#905E26"/>
</linearGradient>
<linearGradient id="paint1_linear_32_180" x1="6.57056" y1="27.5583" x2="37.7219" y2="27.5583" gradientUnits="userSpaceOnUse">
<stop stop-color="#905E26"/>
<stop offset="0.5" stop-color="#F5EC9B"/>
<stop offset="1" stop-color="#905E26"/>
</linearGradient>
<linearGradient id="paint2_linear_32_180" x1="19.198" y1="35.1818" x2="24.9411" y2="35.1818" gradientUnits="userSpaceOnUse">
<stop stop-color="#905E26"/>
<stop offset="0.5" stop-color="#F5EC9B"/>
<stop offset="1" stop-color="#905E26"/>
</linearGradient>
</defs>
</svg>
